<?xml version="1.0" encoding="UTF-8" standalone="no"?>
<svg
   xmlns:dc="http://purl.org/dc/elements/1.1/"
   xmlns:cc="http://creativecommons.org/ns#"
   xmlns:rdf="http://www.w3.org/1999/02/22-rdf-syntax-ns#"
   xmlns:svg="http://www.w3.org/2000/svg"
   xmlns="http://www.w3.org/2000/svg"
   xmlns:xlink="http://www.w3.org/1999/xlink"
   xmlns:sodipodi="http://sodipodi.sourceforge.net/DTD/sodipodi-0.dtd"
   xmlns:inkscape="http://www.inkscape.org/namespaces/inkscape"
   viewBox="0 0 16 16"
   id="svg2"
   version="1.1"
   inkscape:version="0.91 r13725"
   sodipodi:docname="apple.svg"
   width="16"
   height="16">
  <metadata
     id="metadata141">
    <rdf:RDF>
      <cc:Work
         rdf:about="">
        <dc:format>image/svg+xml</dc:format>
        <dc:type
           rdf:resource="http://purl.org/dc/dcmitype/StillImage" />
        <dc:title />
      </cc:Work>
    </rdf:RDF>
  </metadata>
  <sodipodi:namedview
     pagecolor="#ffffff"
     bordercolor="#666666"
     borderopacity="1"
     objecttolerance="10"
     gridtolerance="10"
     guidetolerance="10"
     inkscape:pageopacity="0"
     inkscape:pageshadow="2"
     inkscape:window-width="1366"
     inkscape:window-height="702"
     id="namedview139"
     showgrid="false"
     inkscape:zoom="17.425773"
     inkscape:cx="10.713111"
     inkscape:cy="5.5068705"
     inkscape:window-x="0"
     inkscape:window-y="29"
     inkscape:window-maximized="1"
     inkscape:current-layer="svg2" />
  <defs
     id="defs4">
    <clipPath
       id="clipPath14282">
      <path
         d="M 100.84271,272.89235 C 79.36216,377.49483 35.88312,391.59016 -4.98119,389.88503 c -7.88444,-0.32898 -7.53147,1.2321 -16.44968,0.10179 -7.77566,-0.98551 -21.32657,-6.02005 -29.17224,-5.43819 -46.97446,3.48375 -91.99218,-58.48044 -91.99218,-117.48015 0,-66.54593 44.03337,-110.22627 113.13273,-111.82065 95.30491,-2.18227 130.30527,51.09859 130.30527,117.64452 z"
         id="path7"
         inkscape:connector-curvature="0" />
    </clipPath>
    <clipPath
       id="clipPath14286">
      <path
         d="m 95.24176,274.24608 c -20.49425,98.94105 -61.9769,112.2735 -100.96488,110.66066 -7.52242,-0.31118 -7.18565,1.16541 -15.69438,0.0963 -7.41863,-0.93217 -20.34734,-5.69423 -27.83277,-5.14386 -44.81758,3.2952 -87.76826,-55.31529 -87.76826,-111.12174 0,-62.94425 42.01153,-104.26047 107.93812,-105.76856 90.92888,-2.06415 124.32217,48.33297 124.32217,111.27722 z"
         id="path10"
         inkscape:connector-curvature="0" />
    </clipPath>
    <clipPath
       id="clipPath14290">
      <path
         d="M 97.16192,268.95702 C 76.1442,373.5595 33.60196,387.65483 -6.38187,385.9497 c -7.71456,-0.32898 -7.3692,1.2321 -16.09525,0.10179 -7.60812,-0.98551 -20.86706,-6.02005 -28.54369,-5.43819 -45.96234,3.48375 -90.0101,-58.48044 -90.0101,-117.48015 0,-66.54593 43.08462,-110.22627 110.69515,-111.82065 93.25145,-2.18227 127.49768,51.09859 127.49768,117.64452 z"
         id="path13"
         inkscape:connector-curvature="0" />
    </clipPath>
    <clipPath
       id="clipPath29604">
      <path
         d="m 214.7035,131.11718 6.077,0.24534 c -2.53429,1.7204 4.83381,-35.34914 16.01425,-42.7394 4.8322,-3.19409 -1.20324,-12.31505 -3.82058,-10.93335 0,0 -6.4702,4.67108 -7.23014,8.09398 -0.75994,3.4229 -6.71906,17.6034 -8.13123,27.84572 -1.41217,10.24232 -2.56255,14.88784 -2.9093,17.4877 z"
         id="path16"
         inkscape:connector-curvature="0"
         style="fill-rule:evenodd" />
    </clipPath>
    <clipPath
       id="clipPath30603">
      <path
         d="m 172.54666,119.65383 c 0,0 20.11621,15.239 54.07792,11.76129 34.14803,-3.51943 40.78441,-10.05479 40.78441,-10.05479 28.52258,-31.58159 -136.19804,-25.14129 -94.86233,-1.7065 z"
         id="path19"
         inkscape:connector-curvature="0"
         style="fill-rule:evenodd" />
    </clipPath>
    <filter
       id="filter12154">
      <feGaussianBlur
         stdDeviation="2.93954"
         id="feGaussianBlur22" />
    </filter>
    <filter
       id="filter13287">
      <feGaussianBlur
         stdDeviation="5.80719"
         id="feGaussianBlur25" />
    </filter>
    <filter
       id="filter24623">
      <feGaussianBlur
         stdDeviation=".2146"
         id="feGaussianBlur28" />
    </filter>
    <filter
       id="filter30589">
      <feGaussianBlur
         stdDeviation=".57678"
         id="feGaussianBlur31" />
    </filter>
    <filter
       id="filter3417">
      <feGaussianBlur
         stdDeviation=".95732"
         id="feGaussianBlur34" />
    </filter>
    <filter
       height="1.23764"
       id="filter7541"
       width="1.18445"
       x="-0.092220001"
       y="-0.11882">
      <feGaussianBlur
         stdDeviation="10.98758"
         id="feGaussianBlur37" />
    </filter>
    <filter
       height="1.2674"
       id="filter18604"
       width="1.05068"
       x="-0.02534"
       y="-0.1337">
      <feGaussianBlur
         stdDeviation=".99193"
         id="feGaussianBlur40" />
    </filter>
    <filter
       height="1.87753"
       id="filter35726"
       width="1.12506"
       x="-0.062530003"
       y="-0.43877">
      <feGaussianBlur
         stdDeviation="5.15449"
         id="feGaussianBlur43" />
    </filter>
    <filter
       height="2.1931"
       id="filter38751"
       width="1.14818"
       x="-0.074089997"
       y="-0.59654999">
      <feGaussianBlur
         stdDeviation="9.88087"
         id="feGaussianBlur46" />
    </filter>
    <linearGradient
       id="linearGradient28622">
      <stop
         offset="0"
         stop-color="#fff"
         id="stop49" />
      <stop
         offset="1"
         stop-color="#fff"
         stop-opacity="0"
         id="stop51" />
    </linearGradient>
    <linearGradient
       gradientUnits="userSpaceOnUse"
       id="linearGradient14306"
       x1="-24.923759"
       x2="-28.8591"
       y1="174.78334"
       y2="272.92316">
      <stop
         offset="0"
         stop-color="#7aa827"
         id="stop54" />
      <stop
         offset="1"
         stop-color="#a3a827"
         stop-opacity="0"
         id="stop56" />
    </linearGradient>
    <linearGradient
       gradientUnits="userSpaceOnUse"
       id="linearGradient30599"
       x1="210.89064"
       x2="243.81516"
       y1="146.45267"
       y2="108.47597">
      <stop
         offset="0"
         id="stop59" />
      <stop
         offset="1"
         stop-opacity="0"
         id="stop61" />
    </linearGradient>
    <linearGradient
       gradientUnits="userSpaceOnUse"
       id="linearGradient37702"
       x1="-134.76347"
       x2="-66.758102"
       y1="343.27988"
       y2="311.95261">
      <stop
         offset="0"
         stop-color="#f8f8f8"
         id="stop64" />
      <stop
         offset="1"
         stop-color="#f8f8f8"
         stop-opacity="0"
         id="stop66" />
    </linearGradient>
    <linearGradient
       gradientUnits="userSpaceOnUse"
       id="linearGradient14308"
       x1="-47.223969"
       x2="-51.159309"
       xlink:href="#linearGradient28622"
       y1="206.26599"
       y2="295.46683" />
    <linearGradient
       gradientUnits="userSpaceOnUse"
       id="linearGradient29608"
       x1="220.90099"
       x2="225.37206"
       xlink:href="#linearGradient28622"
       y1="99.833923"
       y2="101.95313" />
    <pattern
       height="46.65917"
       id="pattern26663"
       patternTransform="translate(163.81449,-152.8456)"
       patternUnits="userSpaceOnUse"
       width="55.73278">
      <path
         d="m-278.71875-209.70604a2.88614,7.83381 0 1,1 -5.77228,0 2.88614,7.83381 0 1,1 5.77228,0z"
         fill="#d7eb90"
         fill-rule="evenodd"
         transform="matrix(.74092,0,0,.45974,262.24155,100.96523)"
         id="path71" />
      <path
         d="m-278.71875-209.70604a2.88614,7.83381 0 1,1 -5.77228,0 2.88614,7.83381 0 1,1 5.77228,0z"
         fill="#d7eb90"
         fill-rule="evenodd"
         transform="matrix(.74092,0,0,.45974,253.16436,126.80313)"
         id="path73" />
      <path
         d="m-278.71875-209.70604a2.88614,7.83381 0 1,1 -5.77228,0 2.88614,7.83381 0 1,1 5.77228,0z"
         fill="#d7eb90"
         fill-rule="evenodd"
         transform="matrix(.74092,0,0,.45974,241.63603,111.21553)"
         id="path75" />
      <path
         d="m-278.71875-209.70604a2.88614,7.83381 0 1,1 -5.77228,0 2.88614,7.83381 0 1,1 5.77228,0z"
         fill="#d7eb90"
         fill-rule="evenodd"
         transform="matrix(.74092,0,0,.45974,219.22886,100.01194)"
         id="path77" />
      <path
         d="m-278.71875-209.70604a2.88614,7.83381 0 1,1 -5.77228,0 2.88614,7.83381 0 1,1 5.77228,0z"
         fill="#d7eb90"
         fill-rule="evenodd"
         transform="matrix(.74092,0,0,.45974,236.44017,139.46806)"
         id="path79" />
      <path
         d="m-278.71875-209.70604a2.88614,7.83381 0 1,1 -5.77228,0 2.88614,7.83381 0 1,1 5.77228,0z"
         fill="#d7eb90"
         fill-rule="evenodd"
         transform="matrix(.74092,0,0,.45974,210.78558,125.50416)"
         id="path81" />
      <path
         d="m-278.71875-209.70604a2.88614,7.83381 0 1,1 -5.77228,0 2.88614,7.83381 0 1,1 5.77228,0z"
         fill="#d7eb90"
         fill-rule="evenodd"
         transform="matrix(.74092,0,0,.45974,210.78558,125.50416)"
         id="path83" />
    </pattern>
    <pattern
       height="24.73528"
       id="pattern30611"
       patternTransform="translate(160.89182,-165.99763)"
       patternUnits="userSpaceOnUse"
       width="39.50123">
      <path
         d="m1.72435,5.4391h32.88199v19.29618h-32.88199z"
         fill="url(#pattern30614)"
         id="path86" />
      <path
         d="m0,0h39.50123v24.73528h-39.50123z"
         fill="none"
         id="path88" />
    </pattern>
    <pattern
       id="pattern30614"
       patternTransform="matrix(.58999,0,0,.41356,1.72435,5.4391)"
       xlink:href="#pattern30609" />
    <pattern
       id="pattern30609"
       patternTransform="matrix(.58999,0,0,.41356,162.61617,-160.55853)"
       xlink:href="#pattern26663" />
    <radialGradient
       cx="-44.642391"
       cy="283.90643"
       gradientTransform="matrix(0.18752,0.97812,-0.90903,0.17428,237.70374,251.6128)"
       gradientUnits="userSpaceOnUse"
       id="radialGradient15285"
       r="121.719">
      <stop
         offset="0"
         stop-color="#b3ff4b"
         id="stop93" />
      <stop
         offset=".73759"
         stop-color="#68a02c"
         id="stop95" />
      <stop
         offset="1"
         stop-color="#3c6320"
         id="stop97" />
    </radialGradient>
    <radialGradient
       cx="-81.081718"
       cy="44.942459"
       gradientTransform="matrix(-0.01789796,-1.17689,2.37216,-0.03448004,134.98924,46.13461)"
       gradientUnits="userSpaceOnUse"
       id="radialGradient15312"
       r="44.555969">
      <stop
         offset="0"
         stop-color="#1d3300"
         id="stop100" />
      <stop
         offset=".49645"
         stop-color="#68a02c"
         stop-opacity=".23684"
         id="stop102" />
      <stop
         offset="1"
         stop-color="#61a334"
         stop-opacity="0"
         id="stop104" />
    </radialGradient>
    <radialGradient
       cx="203.99533"
       cy="148.6814"
       gradientTransform="matrix(-1.33662,-0.10351,0.02705285,-0.2176,472.63736,188.55529)"
       gradientUnits="userSpaceOnUse"
       id="radialGradient21659"
       r="41.193069"
       xlink:href="#linearGradient28622" />
  </defs>
  <g
     transform="matrix(0,0.04357817,-0.04082812,0,17.976514,-2.9331647)"
     id="g107">
    <path
       d="m 411.79872,322.43326 a 133.36339,16.56333 0 1 1 -266.72677,0 133.36339,16.56333 0 1 1 266.72677,0 z"
       transform="matrix(1.04786,0,0,4.07545,-28.31558,-978.33863)"
       id="path109"
       inkscape:connector-curvature="0"
       style="opacity:0.67691997;fill:#4d4d4d;fill-rule:evenodd;filter:url(#filter38751)" />
    <path
       d="m 304.26598,314.99686 a 82.42985,11.74772 0 1 1 -164.85969,0 82.42985,11.74772 0 1 1 164.85969,0 z"
       transform="matrix(1.22567,0,0,1.55252,-21.40213,-116.73827)"
       id="path111"
       inkscape:connector-curvature="0"
       style="fill-opacity:0.95339002;fill-rule:evenodd;filter:url(#filter35726)" />
    <path
       clip-path="url(#clipPath14282)"
       d="M 100.84271,272.89235 C 79.36217,377.49483 35.88312,391.59016 -4.98119,389.88503 c -7.88444,-0.32898 -7.53147,1.2321 -16.44968,0.10179 -7.77566,-0.98551 -21.32657,-6.02005 -29.17224,-5.43819 -46.97446,3.48375 -91.99219,-58.48044 -91.99219,-117.48015 0,-66.54593 44.03338,-110.22627 113.13274,-111.82065 95.30491,-2.18227 130.30526,51.09859 130.30526,117.64452 z"
       transform="matrix(1.22567,0,0,1.22567,269.61174,-94.7973)"
       id="path113"
       inkscape:connector-curvature="0"
       style="fill:url(#radialGradient15285);stroke:url(#linearGradient37702);stroke-width:2.0999999;stroke-opacity:0.30085" />
    <path
       clip-path="url(#clipPath14282)"
       d="M 100.84271,272.89235 C 79.36217,377.49483 35.88312,391.59016 -4.98119,389.88503 c -7.88444,-0.32898 -7.53147,1.2321 -16.44968,0.10179 -7.77566,-0.98551 -21.32657,-6.02005 -29.17224,-5.43819 -46.97446,3.48375 -91.99219,-58.48044 -91.99219,-117.48015 0,-66.54593 44.03338,-110.22627 113.13274,-111.82065 95.30491,-2.18227 130.30526,51.09859 130.30526,117.64452 z"
       transform="matrix(1.22567,0,0,1.22567,269.61174,-94.7973)"
       id="path115"
       inkscape:connector-curvature="0"
       style="opacity:0.09230999;fill:url(#pattern30611);stroke:url(#pattern26663);filter:url(#filter3417)" />
    <path
       clip-path="url(#clipPath14290)"
       d="m 92.37766,214.65037 c 3.10028,12.06886 4.53125,25.04536 4.53125,38.5625 -21.48055,104.6025 -64.94819,118.70513 -105.8125,117 -7.88444,-0.32895 -7.55054,1.22406 -16.46875,0.0937 -7.77566,-0.9855 -21.31058,-6.01936 -29.15625,-5.4375 -29.22413,2.16733 -57.69048,-21.00927 -75.03125,-53.03125 13.12085,45.79255 49.33778,84.68548 86.8125,81.90625 7.84567,-0.58186 21.41185,4.45202 29.1875,5.4375 8.91821,1.13031 8.55305,-0.45399 16.4375,-0.125 40.86431,1.70513 84.36321,-12.36629 105.84375,-116.96875 0,-25.12504 -5.00316,-48.36552 -16.34375,-67.4375 z"
       transform="matrix(1.25266,0,0,1.22567,271.50077,-89.97387)"
       id="path117"
       inkscape:connector-curvature="0"
       style="opacity:0.47692003;fill:#241f1c;filter:url(#filter7541)" />
    <path
       clip-path="url(#clipPath14286)"
       d="m -86.57729,173.47156 c -6.70074,-0.91218 -11.02202,5.7749 -15.74132,10.49422 -5.62676,5.62676 -12.10011,9.77067 -15.74132,17.0531 -3.48237,6.96473 -6.97342,8.69972 -10.49422,15.74132 -2.55549,5.11099 -1.31178,13.58959 -1.31178,19.67666 l 0,19.67665 c 0,8.2013 -0.67162,12.44615 3.93533,17.05311 6.86889,6.86889 5.24711,-8.80618 5.24711,-14.42955 0,-8.49511 0.48199,-12.28798 5.24711,-17.0531 5.78764,-5.78765 14.35082,-8.86754 11.80599,1.31177 -1.89244,7.56979 -1.57316,12.595 1.31178,18.36488 3.07082,6.14163 6.13927,8.29028 11.80599,2.62356 5.33404,-5.33404 -1.39644,-10.57888 6.55889,-2.62356 5.25525,5.25525 8.41352,11.01439 15.74132,9.18244 6.96755,-1.74189 5.09653,-9.18244 17.0531,-9.18244 8.96494,0 8.04962,3.93533 15.74132,3.93533 11.33305,0 10.82026,0.6521 14.42955,7.87067 3.95236,7.90471 7.3019,8.61367 11.80599,13.11777 5.6638,5.6638 8.70856,2.75062 11.80599,10.49421 1.83728,4.5932 8.28184,-6.06946 10.49422,-10.49421 3.54147,-7.08295 11.3905,-11.49438 17.0531,-15.74133 3.63561,-2.72671 7.66537,2.82885 14.42955,-3.93533 6.5222,-6.5222 13.33559,-1.09396 17.0531,2.62355 1.96031,1.96031 16.55976,0 19.67666,0 5.1025,0 6.55888,-9.14615 6.55888,-14.42954 0,-5.68348 -2.99441,-12.5477 -5.24711,-17.0531 -2.81491,-5.62983 -3.96202,-13.17114 -6.55889,-18.36488 l -7.87066,-15.74133 c -3.37777,-6.75554 -8.21811,-9.52989 -11.80599,-13.11777 -3.75193,-3.75193 -5.89342,-8.51697 -9.18244,-11.80599 -5.40126,-5.40126 -7.40843,-6.55889 -15.74133,-6.55889 -6.26624,0 -14.08375,-0.24149 -18.36488,-1.31177 -7.16819,-1.79205 -9.53444,-2.14367 -15.74133,-5.24711 -5.72838,-2.86419 -5.67319,-5.24711 -14.42955,-5.24711 l -19.67666,0 -19.67666,0 c -7.8075,0 -10.68945,5.44234 -14.42955,9.18244 -3.34556,3.34556 -11.32959,3.93533 -15.74133,3.93533 z"
       transform="matrix(1.28466,0,0,1.29581,270.8587,-115.69033)"
       id="path119"
       inkscape:connector-curvature="0"
       style="fill:url(#linearGradient14306);filter:url(#filter13287)" />
    <path
       clip-path="url(#clipPath14282)"
       d="m -97.07151,237.74864 c -2.43613,2.89007 -5.36056,11.35221 -3.93533,17.0531 2.48763,9.95052 1.5628,10.0266 9.18245,15.74132 4.88811,3.66609 4.65038,8.88408 10.49422,11.806 2.43166,1.21583 2.62355,-14.62085 2.62355,-17.0531 0,-4.12811 5.24711,-6.53836 5.24711,-14.42955 0,-8.83492 0.19591,-11.61009 -3.93533,-15.74133 -2.87485,-2.87484 -17.74502,1.8509 -19.67666,2.62356 z m 52.47109,-3.93533 c -3.65088,-3.65088 -4.70563,15.28368 -3.93534,18.36488 2.47606,9.9042 7.87067,6.7327 7.87067,18.36487 0,9.43993 0.88945,10.07189 5.2471,14.42955 4.41031,4.4103 10.10636,3.51042 17.05311,5.24711 7.33006,1.83251 12.20996,5.24711 19.67665,5.24711 8.53414,0 13.32751,-4.0402 20.98844,-7.87066 2.25856,-1.12929 6.37336,-14.24403 7.87066,-15.74133 3.33844,-3.33844 -2.62356,-15.13217 -2.62356,-18.36488 0,-7.50999 1.31178,-10.86628 1.31178,-18.36488 0,-4.64745 -10.87306,-9.27715 -15.74132,-10.49421 -5.62315,-1.40579 -15.60633,1.31177 -22.30021,1.31177 -7.07423,0 -12.45182,2.62356 -19.67666,2.62356 -8.65742,0 -8.43431,1.5936 -15.74132,5.24711 z"
       transform="matrix(1.22567,0,0,1.22567,269.61174,-94.7973)"
       id="path121"
       inkscape:connector-curvature="0"
       style="opacity:0.35769001;fill:url(#linearGradient14308);fill-rule:evenodd;filter:url(#filter12154)" />
    <path
       d="m 190.08388,129.03427 c 0,0 24.65592,18.67805 66.28192,14.41551 41.85436,-4.31367 49.9884,-12.3239 49.9884,-12.3239 34.95939,-38.70874 -166.93444,-30.81503 -116.27032,-2.09161 z"
       id="path123"
       inkscape:connector-curvature="0"
       style="fill:url(#radialGradient15312);fill-rule:evenodd" />
    <path
       d="m 207.50217,98.4286 c 0,0 -30.54893,10.9515 -18.44464,9.79871 22.78886,-7.79131 52.04318,-6.13066 74.93134,1.72919 -17.05106,-14.48384 -33.60675,-12.76465 -56.4867,-11.5279 z"
       transform="matrix(1.43899,0.16791,-0.13347,1.81032,-51.01772,-113.18086)"
       id="path125"
       inkscape:connector-curvature="0"
       style="opacity:0.18461998;fill:#ffffff;fill-rule:evenodd;filter:url(#filter18604)" />
    <path
       d="m 186.03125,121.65625 c -6.70591,-1.04375 -15.3789,6.99089 -7.40625,12.0625 10.90386,5.91232 23.63032,7.12692 35.90572,6.70221 14.62828,0.42983 30.15573,-1.11447 42.62553,-9.07721 2.8147,-6.06863 -4.01497,-2.73125 -7.59375,-1.53125 -12.97406,3.43809 -26.75918,3.77735 -40.18339,3.53446 -7.02399,-0.74023 -15.23264,-1.98364 -21.09786,-5.19071 1.27377,-2.35561 0.95986,-6.47901 -2.25,-6.5 z"
       transform="matrix(1.72473,0,0,2.18535,-131.68108,-142.84327)"
       id="path127"
       inkscape:connector-curvature="0"
       style="opacity:0.46538002;fill:url(#radialGradient21659);fill-rule:evenodd;filter:url(#filter18604)" />
    <path
       clip-path="url(#clipPath30603)"
       d="m 223.08699,127.66322 6.60499,-11.18805 c 0,0 2.96551,-7.81816 10.10969,-11.05325 7.14418,-3.23509 12.8056,-2.29153 12.8056,-2.29153 l 7.41376,6.3354 c 0,0 -10.78366,-2.69592 -22.51089,9.30091 -11.72723,11.99683 -19.0062,16.17549 -19.0062,16.17549 -1.85716,-2.81722 -3.50852,4.88001 4.58305,-7.27897 z"
       transform="matrix(1.22307,-0.07988022,0.07988022,1.22307,-36.66585,0.48925)"
       id="path129"
       inkscape:connector-curvature="0"
       style="fill:url(#linearGradient30599);fill-rule:evenodd;filter:url(#filter30589)" />
    <g
       clip-path="url(#clipPath29604)"
       transform="matrix(1.22567,0,0,1.22567,-24.04558,-16.96149)"
       id="g131">
      <path
         d="m 214.7035,131.11718 6.077,0.24534 c -2.53429,1.7204 4.83381,-35.34914 16.01425,-42.7394 4.8322,-3.19409 -1.20324,-12.31505 -3.82058,-10.93335 0,0 -6.4702,4.67108 -7.23014,8.09398 -0.75994,3.4229 -6.71906,17.6034 -8.13123,27.84572 -1.41217,10.24232 -2.56255,14.88784 -2.9093,17.4877 z"
         id="path133"
         inkscape:connector-curvature="0"
         style="fill:#372a07;fill-rule:evenodd" />
      <path
         d="m 233.12929,78.2052 c -0.12825,0.09394 -1.51429,1.10085 -3.08961,2.57678 -1.64764,1.5437 -3.28325,3.57404 -3.54319,4.74488 -0.44268,1.99388 -2.09435,6.27899 -3.85104,11.50931 -1.75669,5.23032 -3.61028,11.28857 -4.29705,16.26967 -1.31859,9.56365 -2.49196,14.88804 -2.90271,17.47904 l 2.64173,0.13885 c -0.008,-0.98025 0.78354,-3.48685 1.03047,-5.11698 0.51738,-3.4156 1.54186,-8.16772 3.01392,-13.20004 1.47206,-5.03232 3.38143,-10.34998 5.64558,-14.9231 2.26415,-4.57312 4.87226,-8.4069 7.98816,-10.46651 0.90562,-0.59862 1.24693,-1.35552 1.3051,-2.37653 0.0582,-1.02101 -0.006,-2.83184 -0.55751,-3.95728 -0.55191,-1.12544 -1.59275,-1.58881 -2.28556,-2.16374 -0.34641,-0.28747 -0.67743,-0.461 -0.87465,-0.52115 -0.19722,-0.06015 -0.21045,-1.6e-4 -0.22364,0.0068 z"
         id="path135"
         inkscape:connector-curvature="0"
         style="fill:#db9b1e;fill-opacity:0.41102002;fill-rule:evenodd;filter:url(#filter24623)" />
      <path
         d="m 233.00867,80.08646 c -1.93358,1.56802 -4.24549,3.00052 -5.28679,5.34895 -4.08455,10.78449 -3.95203,12.26306 -6.10929,18.32624 -1.22229,4.92851 -2.08035,9.94211 -3.06811,14.92257 -0.73452,3.87631 -1.44728,7.75671 -2.15147,11.63864 1.23671,0.79578 0.81692,-3.06276 1.54251,-4.40948 1.84043,-14.18161 5.3311,-27.65593 10.86012,-39.62691 1.28987,-2.30985 3.60641,-3.78117 5.55546,-5.45405 -0.13849,-0.50824 -1.00803,-0.38593 -1.34243,-0.74597 z"
         id="path137"
         inkscape:connector-curvature="0"
         style="opacity:0.26154001;fill:url(#linearGradient29608);fill-rule:evenodd" />
    </g>
  </g>
</svg>
