<?xml version="1.0" encoding="UTF-8" standalone="no"?>
<!-- Created with Inkscape (http://www.inkscape.org/) -->

<svg
   xmlns:dc="http://purl.org/dc/elements/1.1/"
   xmlns:cc="http://creativecommons.org/ns#"
   xmlns:rdf="http://www.w3.org/1999/02/22-rdf-syntax-ns#"
   xmlns:svg="http://www.w3.org/2000/svg"
   xmlns="http://www.w3.org/2000/svg"
   xmlns:sodipodi="http://sodipodi.sourceforge.net/DTD/sodipodi-0.dtd"
   xmlns:inkscape="http://www.inkscape.org/namespaces/inkscape"
   width="16"
   height="16"
   viewBox="0 0 16 16"
   id="svg3406"
   version="1.1"
   inkscape:version="0.91 r13725"
   sodipodi:docname="branch.svg">
  <defs
     id="defs3408">
    <clipPath
       clipPathUnits="userSpaceOnUse"
       id="clipPath16">
      <path
         d="m 0,595.28 419.53,0 L 419.53,0 0,0 0,595.28 Z"
         id="path18"
         inkscape:connector-curvature="0" />
    </clipPath>
  </defs>
  <sodipodi:namedview
     id="base"
     pagecolor="#ffffff"
     bordercolor="#666666"
     borderopacity="1.0"
     inkscape:pageopacity="0.0"
     inkscape:pageshadow="2"
     inkscape:zoom="22.558526"
     inkscape:cx="4.6229727"
     inkscape:cy="8.3300493"
     inkscape:document-units="px"
     inkscape:current-layer="layer1"
     showgrid="false"
     units="px"
     inkscape:window-width="1364"
     inkscape:window-height="684"
     inkscape:window-x="0"
     inkscape:window-y="27"
     inkscape:window-maximized="1" />
  <metadata
     id="metadata3411">
    <rdf:RDF>
      <cc:Work
         rdf:about="">
        <dc:format>image/svg+xml</dc:format>
        <dc:type
           rdf:resource="http://purl.org/dc/dcmitype/StillImage" />
        <dc:title></dc:title>
      </cc:Work>
    </rdf:RDF>
  </metadata>
  <g
     inkscape:label="Layer 1"
     inkscape:groupmode="layer"
     id="layer1"
     transform="translate(0,-1036.3622)">
    <g
       transform="matrix(0.04085395,0,0,0.04971279,-0.60817971,1028.3442)"
       id="g12">
      <g
         id="g14"
         clip-path="url(#clipPath16)">
        <g
           id="g20"
           transform="translate(330.7061,247.3096)">
          <path
             d="m 0,0 c -7.488,5.328 -7.993,14.38 -12.197,21.143 -11.217,18.043 -47.566,47.253 -81.321,35.78 -14.007,-4.761 -37.759,-17.934 -48.791,-27.649 -3.883,-3.419 -6.137,-8.823 -9.758,-12.197 -9.839,-9.165 -25.135,-14.424 -37.408,-21.957 -12.171,-7.471 -24.82,-15.506 -34.154,-25.209 -19.024,-19.776 -24.663,-46.572 -52.044,-55.297 -4.645,7.967 -3.449,23.157 1.626,30.088 2.211,1.77 3.965,1.385 6.506,0 11.044,18.529 23.612,34.446 45.539,49.606 19.643,13.58 45.738,21.239 58.55,36.593 7.276,8.72 10.703,30.155 4.066,41.473 -2.63,4.484 -8.697,6.016 -8.132,12.198 7.311,-0.007 10.419,-4.218 15.451,-6.506 2.53,10.574 5.347,21.764 9.758,30.902 4.062,8.417 8.763,18.733 18.703,21.143 -4.311,-8.7 -9.78,-16.242 -13.824,-25.209 12.468,-3.751 22.808,5.869 31.715,5.692 -5.382,-9.797 -21.273,-9.087 -33.342,-12.198 -5.45,-14.974 -8.63,-37.287 -4.066,-55.297 29.986,25.582 74.263,36.876 102.464,64.242 1.888,15.472 6.041,31.351 10.571,44.726 1.319,3.898 1.367,10.493 6.506,11.385 -1.581,-15.479 -13.814,-33.07 -5.692,-47.979 20.183,13.428 45.109,26.451 75.627,26.836 -1.015,-4.395 -6.469,-2.683 -8.946,-3.253 -22.576,-5.196 -39.958,-14.279 -56.11,-27.649 -17.321,-14.336 -32.578,-32.13 -55.298,-40.659 7.181,-3.663 16.725,-4.962 22.77,-9.759 13.535,6.271 22.959,20.931 41.473,19.517 C -24.765,76.267 -36.274,68.531 -45.539,58.55 -18.102,46.954 7.071,33.093 40.66,27.648 38.865,21.314 30.83,25.253 26.836,26.021 c -14.82,2.854 -29.755,7.963 -43.1,12.199 -0.659,0.155 -0.809,0.815 -1.626,0.813 C -9.01,28.938 -4.428,14.546 0,0"
             style="fill:#b07e48;fill-opacity:1;fill-rule:evenodd;stroke:none"
             id="path22"
             inkscape:connector-curvature="0" />
        </g>
        <g
           id="g24"
           transform="translate(56.8579,165.9902)">
          <path
             d="m 0,0 c -0.25,24.704 17.66,43.624 22.495,66.62 2.5,11.892 2.525,24.085 2.596,36.338 0.053,9.166 2.696,14.521 5.191,22.496 4.667,14.918 0.639,27.936 2.595,41.529 -16.592,25.472 -56.77,4.193 -74.407,-7.786 9.834,8.046 20.414,15.347 32.012,21.63 -11.772,4.886 -23.882,1.284 -29.416,12.112 16.829,-5.597 35.814,-7.087 54.507,-7.786 -0.181,0.007 12.455,0.785 18.17,-1.731 -0.735,23.685 16.812,60.653 8.652,83.925 -1.21,3.451 -4.389,7.407 -2.596,11.247 8.193,-7.888 13.309,-25.895 8.652,-46.72 15.519,7.553 20.541,25.603 32.878,36.338 -9.605,-16.928 -21.288,-31.778 -33.744,-45.856 -8.645,-31.544 0.763,-53.976 -6.92,-82.194 14.111,8.096 26.287,25.624 37.203,39.799 -2.96,8.018 -8.934,15.042 -3.461,21.631 2.884,-4.395 1.385,-15.901 6.057,-16.439 4.682,-0.54 9.5,22.1 14.708,23.36 -3.2,-18.16 -16.768,-33.399 -26.821,-47.586 4.104,0.779 6.794,1.052 10.382,0 -4.825,-5.48 -13.494,-6.389 -19.034,-11.248 -7.733,-6.782 -16.751,-17.208 -19.9,-25.955 -4.3,-11.948 -1.202,-26.16 -2.595,-41.531 -1.848,-20.381 -9.093,-39.152 -18.17,-57.968 0.771,-0.533 1.548,-1.045 1.731,0 C 18.989,14.46 9.825,4.599 0,0"
             style="fill:#b07e48;fill-opacity:1;fill-rule:evenodd;stroke:none"
             id="path26"
             inkscape:connector-curvature="0" />
        </g>
        <g
           id="g28"
           transform="translate(189.6235,394.2246)">
          <path
             d="m 0,0 c 20.906,25.638 35.234,24.726 35.234,24.726 0,0 10.115,-28.295 1.915,-40.621 -8.2,-12.326 -26.072,-12.374 -26.072,-12.374 0,0 -20.088,17.219 -11.077,28.269"
             style="fill:#3ea85b;fill-opacity:1;fill-rule:evenodd;stroke:none"
             id="path30"
             inkscape:connector-curvature="0" />
        </g>
        <g
           id="g32"
           transform="translate(294.1455,423.0303)">
          <path
             d="m 0,0 c 15.847,28.345 26.619,29.984 26.619,29.984 0,0 7.472,-25.453 1.247,-38.755 -6.227,-13.303 -18.369,-17.93 -18.369,-17.93 0,0 -16.326,14.484 -9.497,26.701"
             style="fill:#3ea85b;fill-opacity:1;fill-rule:evenodd;stroke:none"
             id="path34"
             inkscape:connector-curvature="0" />
        </g>
        <g
           id="g36"
           transform="translate(378.04,403.1367)">
          <path
             d="m 0,0 c 22.541,-1.736 28.037,-10.885 28.037,-10.885 0,0 -11.009,-18.365 -21.072,-18.661 -10.064,-0.295 -17.702,12.586 -17.702,12.586 0,0 1.02,17.709 10.737,16.96"
             style="fill:#3ea85b;fill-opacity:1;fill-rule:evenodd;stroke:none"
             id="path38"
             inkscape:connector-curvature="0" />
        </g>
        <g
           id="g40"
           transform="translate(371.1738,281.8213)">
          <path
             d="m 0,0 c 27.28,-17.032 28.849,-25.51 28.849,-25.51 0,0 -24.516,-1.204 -37.318,5.868 -12.804,7.074 -15.539,18.383 -15.539,18.383 0,0 12.25,8.6 24.008,1.259"
             style="fill:#3ea85b;fill-opacity:1;fill-rule:evenodd;stroke:none"
             id="path42"
             inkscape:connector-curvature="0" />
        </g>
        <g
           id="g44"
           transform="translate(144.5415,391.0313)">
          <path
             d="m 0,0 c 11.592,29.999 19.622,33.134 19.622,33.134 0,0 5.797,-23.85 1.263,-37.755 C 16.347,-18.529 5.754,-23.343 5.754,-23.343 5.754,-23.343 -4.997,-12.929 0,0"
             style="fill:#3ea85b;fill-opacity:1;fill-rule:evenodd;stroke:none"
             id="path46"
             inkscape:connector-curvature="0" />
        </g>
        <g
           id="g48"
           transform="translate(83.9497,444.7637)">
          <path
             d="m 0,0 c 7.326,32.363 21.036,38.1 21.036,38.1 0,0 22.676,-20.55 20.871,-35.262 -1.807,-14.714 -19.56,-22.922 -19.56,-22.922 0,0 -25.505,6.134 -22.347,20.084"
             style="fill:#3ea85b;fill-opacity:1;fill-rule:evenodd;stroke:none"
             id="path50"
             inkscape:connector-curvature="0" />
        </g>
      </g>
    </g>
  </g>
</svg>
