<?xml version="1.0" encoding="UTF-8" standalone="no"?>
<!-- Generator: Adobe Illustrator 16.0.0, SVG Export Plug-In . SVG Version: 6.00 Build 0)  -->

<svg
   xmlns:dc="http://purl.org/dc/elements/1.1/"
   xmlns:cc="http://creativecommons.org/ns#"
   xmlns:rdf="http://www.w3.org/1999/02/22-rdf-syntax-ns#"
   xmlns:svg="http://www.w3.org/2000/svg"
   xmlns="http://www.w3.org/2000/svg"
   xmlns:sodipodi="http://sodipodi.sourceforge.net/DTD/sodipodi-0.dtd"
   xmlns:inkscape="http://www.inkscape.org/namespaces/inkscape"
   version="1.1"
   id="Capa_1"
   x="0px"
   y="0px"
   width="16"
   height="16"
   viewBox="0 0 16 16"
   xml:space="preserve"
   inkscape:version="0.91 r13725"
   sodipodi:docname="butterfly-left.svg"><metadata
     id="metadata41"><rdf:RDF><cc:Work
         rdf:about=""><dc:format>image/svg+xml</dc:format><dc:type
           rdf:resource="http://purl.org/dc/dcmitype/StillImage" /><dc:title></dc:title></cc:Work></rdf:RDF></metadata><defs
     id="defs39" /><sodipodi:namedview
     pagecolor="#ffffff"
     bordercolor="#666666"
     borderopacity="1"
     objecttolerance="10"
     gridtolerance="10"
     guidetolerance="10"
     inkscape:pageopacity="0"
     inkscape:pageshadow="2"
     inkscape:window-width="1366"
     inkscape:window-height="702"
     id="namedview37"
     showgrid="false"
     inkscape:zoom="7.3752303"
     inkscape:cx="16"
     inkscape:cy="15.9995"
     inkscape:window-x="0"
     inkscape:window-y="29"
     inkscape:window-maximized="1"
     inkscape:current-layer="Capa_1" /><g
     id="g3"
     transform="matrix(0.5538781,0,0,0.47882794,-0.69254223,0.40761648)"><path
       d="m 25.066,21.173 c -2.002,-2.592 -2.002,-2.169 -2.783,-2.154 -0.781,0.015 -2.564,-1.57 -2.564,-1.57 0,0 1.611,-1.176 1.784,-2.136 0.172,-2.396 -1.464,-3.17 -1.556,-7.96 C 19.852,2.563 16.025,3.452 15.336,6.099 14.045,1.215 14.016,0.469 12.781,0.039 11.034,-0.535 10,5.495 9.539,7.624 9.094,9.677 9.35,20.152 10.299,22.076 c -0.166,0.002 -0.27,0.019 -0.27,0.019 0,0 -0.573,-1.204 -1.405,-0.859 C 8.61,21.241 8.599,21.249 8.586,21.256 8.4,20.784 8.152,20.048 8.158,19.5 8.238,19.468 8.311,19.394 8.346,19.285 8.399,19.121 8.344,18.956 8.224,18.917 8.104,18.878 7.963,18.98 7.91,19.144 7.864,19.285 7.902,19.421 7.989,19.483 7.98,20.083 8.243,20.86 8.435,21.342 8.429,21.346 8.423,21.352 8.417,21.357 8.008,20.984 7.298,20.419 6.592,20.207 6.584,20.086 6.45,19.989 6.283,19.989 c -0.173,0 -0.313,0.102 -0.313,0.229 0,0.127 0.14,0.229 0.312,0.229 0.098,0 0.182,-0.036 0.239,-0.087 0.663,0.192 1.356,0.746 1.762,1.11 -0.467,0.492 -0.333,1.404 0.626,1.717 -0.373,1.605 1.693,2.667 2.438,3.843 0.746,1.176 3.557,5.536 4.302,4.331 0.359,-0.581 0.064,-1.288 -0.43,-2.02 1.813,1.148 5.015,3.038 5.76,2.593 1.058,-0.632 4.354,-3.451 4.353,-5.653 -0.001,-2.202 1.734,-2.515 -0.266,-5.108 z m 0.193,1.849 c 0.129,-0.015 0.062,0.255 0.008,0.312 -0.053,0.056 -0.42,0.073 -0.465,-0.05 -0.045,-0.125 0.326,-0.248 0.457,-0.262 z m -0.527,-0.948 c -0.054,0.055 -0.42,0.074 -0.465,-0.05 -0.046,-0.124 0.325,-0.248 0.456,-0.261 0.13,-0.014 0.064,0.255 0.009,0.311 z m -0.511,3.251 c -0.053,0.056 -0.419,0.074 -0.465,-0.05 -0.045,-0.125 0.325,-0.248 0.457,-0.262 0.131,-0.013 0.062,0.257 0.008,0.312 z m 0.144,-4.451 c 0.172,-0.018 0.082,0.339 0.012,0.414 -0.07,0.074 -0.559,0.098 -0.617,-0.065 -0.061,-0.166 0.431,-0.33 0.605,-0.349 z m -0.611,1.378 c 0.76,0 0.53,1.363 0.071,1.521 -0.459,0.157 -4.203,-0.417 -4.26,-0.805 -0.056,-0.386 3.429,-0.716 4.189,-0.716 z m -0.674,3.399 c -0.502,0.187 -2.31,-0.92 -2.539,-1.12 -0.229,-0.2 0.115,-0.559 0.561,-0.659 0.445,-0.1 2.653,0.406 2.653,0.406 0,0 -0.173,1.187 -0.675,1.373 z m 0.519,0.587 c -0.053,0.055 -0.42,0.073 -0.465,-0.05 -0.045,-0.125 0.326,-0.248 0.457,-0.263 0.13,-0.013 0.063,0.257 0.008,0.313 z m -2.097,1.034 c -0.531,-0.345 -3.554,-2.275 -3.456,-2.294 0.097,-0.02 1.479,-0.389 1.837,-0.373 0.356,0.014 2.423,0.903 2.91,1.578 0.488,0.674 -0.758,1.433 -1.291,1.089 z m 0.331,1.2 c -0.053,0.055 -0.42,0.073 -0.465,-0.051 -0.045,-0.124 0.326,-0.248 0.457,-0.261 0.13,-0.014 0.062,0.255 0.008,0.312 z m -0.534,0.73 c -0.054,0.056 -0.42,0.074 -0.466,-0.05 -0.045,-0.125 0.326,-0.248 0.457,-0.262 0.13,-0.014 0.062,0.256 0.009,0.312 z M 18.214,19.065 c -0.113,0.18 -1.282,0.917 -1.35,0.546 -0.067,-0.371 0.936,-0.878 1.191,-0.941 0.257,-0.063 0.273,0.215 0.159,0.395 z m -0.025,0.729 c -0.086,0.195 -1.133,1.097 -1.255,0.74 -0.122,-0.357 0.796,-1.006 1.04,-1.106 0.244,-0.1 0.301,0.173 0.215,0.366 z m 0.545,0.106 c 0.932,-0.344 2.323,0.219 1.836,0.633 -0.488,0.414 -3.744,1.217 -3.744,1.217 0,0 0.976,-1.505 1.908,-1.85 z m -0.267,-1.65 c -0.026,-0.1 0.218,-0.209 0.302,-0.224 0.085,-0.014 0.034,0.206 -0.002,0.252 -0.035,0.047 -0.275,0.072 -0.3,-0.028 z m -5.742,5.795 c -0.129,-0.314 0.096,-0.443 0.096,-0.443 0,0 2.873,-1.349 3.618,-1.349 0.746,0 4.36,1.205 3.585,1.922 -0.774,0.718 -7.17,0.185 -7.299,-0.13 z M 23.3,19.899 c 0.172,-0.019 0.082,0.339 0.011,0.414 -0.069,0.074 -0.558,0.098 -0.616,-0.066 -0.062,-0.166 0.431,-0.33 0.605,-0.348 z m -1.097,-0.562 c 0.14,-0.015 0.066,0.273 0.01,0.333 -0.059,0.06 -0.449,0.079 -0.498,-0.054 -0.049,-0.132 0.348,-0.263 0.488,-0.279 z m 0.547,2.624 c -0.325,0.315 -4.104,0.784 -4.891,0.44 -0.787,-0.344 2.739,-1.641 3.715,-1.727 0.976,-0.086 1.502,0.972 1.176,1.287 z m -1.483,-2.289 c -0.093,0.05 -0.779,0.019 -0.881,-0.111 -0.102,-0.131 0.58,-0.205 0.822,-0.201 0.245,0.003 0.153,0.264 0.059,0.312 z M 20.627,18.3 c 0.169,-0.02 0.077,0.348 0.009,0.424 -0.07,0.076 -0.544,0.104 -0.602,-0.063 -0.058,-0.169 0.424,-0.341 0.593,-0.361 z m -0.831,1.209 c -0.079,0.04 -0.662,0.014 -0.748,-0.096 -0.087,-0.107 0.492,-0.168 0.697,-0.165 0.208,0.003 0.13,0.221 0.051,0.261 z M 19.693,18.19 c -0.037,0.046 -0.274,0.069 -0.301,-0.029 -0.025,-0.099 0.219,-0.209 0.303,-0.224 0.084,-0.015 0.033,0.207 -0.002,0.253 z m 0.832,-4.527 c 0.104,-0.19 0.279,-0.43 0.352,-0.28 0.072,0.149 0.059,0.343 -0.08,0.448 -0.139,0.105 -0.378,0.022 -0.272,-0.168 z m 0,1.437 c 0.104,-0.19 0.279,-0.43 0.352,-0.281 0.073,0.149 0.059,0.343 -0.08,0.448 -0.139,0.106 -0.378,0.023 -0.272,-0.167 z m -0.527,-2.323 c 0.104,-0.19 0.279,-0.43 0.352,-0.281 0.073,0.149 0.059,0.343 -0.081,0.448 -0.139,0.106 -0.377,0.023 -0.271,-0.167 z m -0.043,1.332 c 0.105,-0.19 0.281,-0.43 0.352,-0.28 0.072,0.149 0.059,0.343 -0.081,0.448 -0.139,0.105 -0.377,0.022 -0.271,-0.168 z m -0.069,-2.516 c 0.072,0.149 0.059,0.343 -0.081,0.448 -0.14,0.105 -0.376,0.022 -0.271,-0.168 0.105,-0.188 0.28,-0.429 0.352,-0.28 z M 13.43,10.875 c 0.204,-0.369 0.544,-0.835 0.684,-0.545 0.14,0.291 0.112,0.667 -0.157,0.871 -0.269,0.206 -0.731,0.045 -0.527,-0.326 z m 0.048,1.486 c -0.269,0.204 -0.731,0.043 -0.527,-0.326 0.205,-0.369 0.387,-0.782 0.527,-0.491 0.139,0.289 0.269,0.613 0,0.817 z m 0.113,-5.993 c -0.106,-0.221 -0.003,-0.497 0.178,-0.664 0.181,-0.167 0.247,0.261 0.259,0.582 0.012,0.32 -0.332,0.303 -0.437,0.082 z m 0.508,0.464 c 0.181,-0.167 0.247,0.261 0.26,0.582 0.011,0.321 -0.333,0.305 -0.438,0.083 -0.105,-0.223 -0.003,-0.498 0.178,-0.665 z m -0.098,5.204 c 0.205,-0.369 0.544,-0.835 0.684,-0.545 0.14,0.291 0.112,0.667 -0.157,0.872 -0.268,0.202 -0.731,0.041 -0.527,-0.327 z m 2.478,-0.997 c 0.57,-0.291 0.946,1.022 0,1.893 -0.429,0.375 -1.625,1.484 -1.732,1.14 -0.387,-1.495 1.161,-2.743 1.732,-3.033 z M 16.79,8.896 c 0.333,0.009 0.786,0.292 0.709,0.646 -0.074,0.354 -0.473,0.7 -0.838,0.646 -0.365,-0.054 -0.548,-0.376 -0.624,-0.67 -0.075,-0.294 0.42,-0.63 0.753,-0.622 z m -1.967,5.964 c -0.086,-0.373 2.258,-2.188 2.663,-2.201 0.717,0 1.578,0.487 0.918,1.319 -0.658,0.832 -4.331,3.557 -4.388,3.012 -0.057,-0.545 0.72,-1.573 0.807,-2.13 z m 3.159,-6.857 c 0.204,-0.369 0.543,-0.836 0.684,-0.545 0.14,0.291 0.111,0.667 -0.157,0.871 -0.269,0.206 -0.732,0.044 -0.527,-0.326 z m 0.336,1.268 c -0.138,0.105 -0.375,0.022 -0.271,-0.167 0.104,-0.19 0.28,-0.43 0.353,-0.28 0.071,0.148 0.057,0.342 -0.082,0.447 z m -0.336,0.696 c 0.204,-0.369 0.543,-0.835 0.684,-0.545 0.14,0.291 0.111,0.667 -0.157,0.872 -0.269,0.204 -0.732,0.042 -0.527,-0.327 z m 0.575,0.889 c 0.14,0.291 0.112,0.667 -0.157,0.872 -0.269,0.204 -0.73,0.043 -0.527,-0.326 0.205,-0.369 0.544,-0.836 0.684,-0.546 z m 0.075,1.364 c 0.186,-0.333 0.492,-0.754 0.617,-0.492 0.127,0.262 0.102,0.602 -0.141,0.787 -0.243,0.185 -0.661,0.038 -0.476,-0.295 z m 0.299,-5.207 c 0.105,-0.19 0.28,-0.43 0.352,-0.28 0.072,0.15 0.059,0.343 -0.08,0.448 -0.14,0.105 -0.377,0.022 -0.272,-0.168 z m 0.481,1.269 c 0.072,0.149 0.059,0.343 -0.08,0.448 -0.139,0.105 -0.377,0.022 -0.271,-0.168 0.106,-0.19 0.28,-0.431 0.351,-0.28 z m -0.271,2.502 c 0.104,-0.19 0.28,-0.429 0.353,-0.28 0.073,0.149 0.058,0.343 -0.082,0.448 -0.139,0.105 -0.375,0.022 -0.271,-0.168 z m 0.211,2.401 c 0.104,-0.19 0.28,-0.43 0.353,-0.281 0.073,0.149 0.058,0.343 -0.082,0.448 -0.137,0.106 -0.375,0.023 -0.271,-0.167 z M 19.623,9.362 C 19.695,9.511 19.681,9.705 19.541,9.81 19.404,9.915 19.166,9.832 19.27,9.642 19.376,9.454 19.551,9.213 19.623,9.362 Z M 19.492,7.399 c 0.072,0.149 0.059,0.343 -0.08,0.448 C 19.273,7.952 19.035,7.87 19.14,7.681 19.246,7.49 19.42,7.25 19.492,7.399 Z M 19.283,5.968 c 0.072,0.149 0.059,0.343 -0.08,0.448 -0.14,0.105 -0.377,0.022 -0.271,-0.168 0.105,-0.188 0.279,-0.429 0.351,-0.28 z M 18.792,5.209 c 0.185,0.136 0.291,0.383 0.189,0.601 -0.102,0.218 -0.445,0.27 -0.439,-0.031 0.007,-0.3 0.067,-0.706 0.25,-0.57 z m -0.235,0.98 c 0.14,0.29 0.112,0.667 -0.157,0.871 -0.269,0.204 -0.73,0.043 -0.527,-0.326 0.205,-0.368 0.544,-0.836 0.684,-0.545 z m -0.52,-1.523 c 0.154,-0.049 0.067,0.221 -0.019,0.413 -0.087,0.192 -0.282,0.089 -0.278,-0.07 0.002,-0.16 0.142,-0.295 0.297,-0.343 z M 17.078,5.907 C 17.17,5.678 17.443,5.569 17.687,5.589 17.933,5.609 17.662,5.947 17.434,6.173 17.205,6.397 16.986,6.132 17.078,5.907 Z M 15.892,5.84 C 15.984,5.612 16.257,5.502 16.502,5.522 16.748,5.543 16.477,5.88 16.248,6.106 16.02,6.333 15.799,6.066 15.892,5.84 Z m -0.376,2.777 c 0.153,-0.239 1.336,-1.313 1.671,-1.125 0.334,0.187 -0.377,0.805 -0.76,1.193 -0.382,0.385 -1.065,0.17 -0.911,-0.068 z m -0.017,1.032 c -0.076,0.354 -0.474,0.7 -0.839,0.646 -0.365,-0.054 -0.548,-0.376 -0.624,-0.67 -0.076,-0.294 0.419,-0.631 0.753,-0.622 0.334,0.01 0.785,0.292 0.71,0.646 z M 14.29,5.692 C 14.184,5.471 14.287,5.195 14.468,5.028 14.648,4.861 14.715,5.289 14.727,5.61 14.739,5.932 14.395,5.916 14.29,5.692 Z M 14.599,4.545 C 14.611,4.866 14.266,4.85 14.162,4.627 14.056,4.406 14.158,4.13 14.34,3.963 14.52,3.796 14.587,4.225 14.599,4.545 Z M 14.226,3.749 c 0.012,0.191 -0.202,0.176 -0.27,0.043 -0.068,-0.133 -0.008,-0.296 0.101,-0.393 0.11,-0.098 0.157,0.159 0.169,0.35 z m -0.457,-1.04 c 0.109,-0.097 0.156,0.158 0.168,0.349 0.012,0.191 -0.202,0.176 -0.27,0.043 C 13.6,2.968 13.659,2.807 13.769,2.709 Z m 0.019,2.468 C 13.8,5.499 13.455,5.482 13.35,5.26 13.245,5.039 13.347,4.762 13.529,4.595 c 0.18,-0.167 0.247,0.261 0.259,0.582 z M 13.552,2.544 C 13.564,2.734 13.35,2.72 13.282,2.587 13.214,2.455 13.274,2.292 13.384,2.195 13.493,2.099 13.54,2.354 13.552,2.544 Z M 13.184,1.562 c 0.109,-0.097 0.157,0.159 0.168,0.35 0.012,0.19 -0.202,0.176 -0.27,0.043 C 13.015,1.821 13.074,1.66 13.184,1.562 Z m 0,1.42 C 13.365,2.815 13.431,3.243 13.443,3.564 13.455,3.885 13.11,3.869 13.005,3.647 12.901,3.425 13.003,3.149 13.184,2.982 Z M 12.499,0.959 c 0.109,-0.097 0.156,0.158 0.168,0.349 0.012,0.191 -0.202,0.176 -0.27,0.043 C 12.329,1.219 12.388,1.057 12.499,0.959 Z M 12.12,2.577 C 12.173,2.337 12.423,2.182 12.669,2.161 12.914,2.14 12.704,2.518 12.517,2.78 12.328,3.04 12.066,2.815 12.12,2.577 Z m 0.564,3.615 c 0.265,0.011 0.622,0.358 0.562,0.791 -0.06,0.434 -0.375,0.856 -0.665,0.791 -0.29,-0.066 -0.435,-0.46 -0.494,-0.82 -0.059,-0.36 0.333,-0.772 0.597,-0.762 z m -0.552,4.196 c 0.329,-0.726 0.835,-2.008 1.093,-1.725 0.258,0.282 -0.629,2.445 -0.85,2.792 -0.219,0.346 -0.572,-0.343 -0.243,-1.067 z m 0.525,2.745 c -0.269,0.205 -0.731,0.043 -0.527,-0.326 0.205,-0.369 0.387,-0.782 0.527,-0.492 0.14,0.291 0.269,0.615 0,0.818 z m 1.129,0.472 c 2.323,-0.028 -2.008,6.425 -2.61,5.88 0.044,-0.566 0.287,-5.851 2.61,-5.88 z M 11.477,2.274 C 11.667,2.118 11.707,2.549 11.7,2.871 11.692,3.192 11.35,3.155 11.259,2.926 11.167,2.7 11.286,2.431 11.477,2.274 Z M 11.256,6.433 C 11.52,6.444 11.878,6.791 11.818,7.224 11.759,7.658 11.444,8.081 11.154,8.015 10.864,7.949 10.719,7.555 10.66,7.194 10.6,6.833 10.992,6.421 11.256,6.433 Z m 0.276,4.093 c -0.046,0.386 -0.517,0.564 -0.534,0.362 -0.018,-0.202 0.181,-1.328 0.447,-1.369 0.266,-0.041 0.134,0.621 0.087,1.007 z M 10.436,9.44 c 0.258,-0.091 0.212,0.732 0.215,1.209 0.002,0.477 -0.441,0.767 -0.484,0.523 -0.043,-0.241 0.011,-1.64 0.269,-1.732 z m -0.4,1.959 c 0.002,0.337 -0.441,0.542 -0.484,0.37 -0.043,-0.172 0.011,-1.162 0.269,-1.226 0.258,-0.064 0.212,0.519 0.215,0.856 z M 9.965,8.893 C 9.84,8.86 9.777,8.667 9.751,8.488 9.726,8.31 9.895,8.108 10.009,8.113 c 0.114,0.005 0.268,0.176 0.242,0.39 -0.025,0.213 -0.161,0.421 -0.286,0.39 z m 0.48,10.534 c -0.301,0.021 -0.291,-5.936 -0.291,-6.205 0,-0.269 1.399,-1.732 1.533,-1.033 0.134,0.699 -0.857,3.706 -0.9,4.312 -0.043,0.608 -0.041,2.905 -0.342,2.926 z m 0.502,2.611 c -0.373,0.115 0.029,-0.659 0,-1.835 0.861,-0.229 1.328,-1.542 1.606,-1.09 0.278,0.45 -1.233,2.81 -1.606,2.925 z m 0.401,-0.058 c 1.405,-1.692 1.95,-3.671 2.409,-4.23 0.459,-0.559 4.087,-2.438 5.033,-3.212 0.947,-0.774 1.464,0.789 0.955,1.348 -0.505,0.558 -7.45,6.669 -8.397,6.094 z m 0.76,0.717 c -0.071,-0.402 2.983,-1.449 4.218,-2.252 1.074,1.334 -2.984,2.754 -2.984,2.754 0,0 -1.162,-0.099 -1.234,-0.502 z m 0.577,1.592 c 0.011,-0.086 3.124,0.373 4.557,0.789 1.435,0.416 3.558,1.894 3.873,2.539 0.315,0.645 -0.528,1.276 -0.981,1.535 -0.454,0.257 -7.366,-4.433 -7.449,-4.863 z m 0.471,0.909 c 0.074,-0.124 2.008,1.426 3.779,2.576 1.301,0.844 2.512,1.312 2.832,1.549 0.669,0.589 -1.734,0.086 -2.596,-0.646 -0.861,-0.731 -4.145,-3.264 -4.015,-3.479 z m 6.801,5.568 c -0.053,0.056 -0.418,0.073 -0.465,-0.051 -0.045,-0.125 0.326,-0.249 0.457,-0.262 0.131,-0.013 0.063,0.255 0.008,0.313 z M 19.943,29.74 c -0.046,-0.124 0.325,-0.248 0.455,-0.261 0.131,-0.015 0.063,0.255 0.01,0.312 -0.054,0.056 -0.42,0.073 -0.465,-0.051 z m 0.732,1.507 c -0.055,0.056 -0.42,0.074 -0.465,-0.05 -0.045,-0.125 0.326,-0.248 0.455,-0.262 0.131,-0.014 0.063,0.255 0.01,0.312 z m 0.043,-1.507 c -0.046,-0.124 0.326,-0.248 0.456,-0.261 0.13,-0.015 0.063,0.255 0.009,0.312 -0.053,0.056 -0.421,0.073 -0.465,-0.051 z m 0.581,1.33 c -0.054,0.055 -0.42,0.073 -0.466,-0.05 -0.045,-0.125 0.326,-0.248 0.457,-0.262 0.13,-0.014 0.062,0.256 0.009,0.312 z m 0.152,-0.66 c -0.055,0.056 -0.42,0.074 -0.465,-0.05 -0.047,-0.125 0.325,-0.249 0.455,-0.262 0.131,-0.013 0.063,0.256 0.01,0.312 z m 0.443,-0.515 c -0.053,0.055 -0.42,0.072 -0.465,-0.051 -0.045,-0.125 0.326,-0.247 0.457,-0.261 0.129,-0.015 0.063,0.254 0.008,0.312 z m 0.588,-0.599 c -0.053,0.057 -0.42,0.074 -0.465,-0.05 -0.045,-0.125 0.326,-0.248 0.457,-0.262 0.129,-0.012 0.063,0.256 0.008,0.312 z m 0.141,-1.18 c -0.055,0.055 -0.42,0.074 -0.465,-0.05 -0.047,-0.124 0.326,-0.248 0.455,-0.261 0.131,-0.014 0.063,0.256 0.01,0.311 z m 0.533,0.532 c -0.053,0.056 -0.42,0.074 -0.465,-0.05 -0.045,-0.125 0.326,-0.248 0.457,-0.263 0.131,-0.012 0.062,0.257 0.008,0.313 z m 0.176,-1.406 c -0.053,0.055 -0.42,0.073 -0.465,-0.05 -0.045,-0.125 0.326,-0.248 0.457,-0.261 0.131,-0.015 0.062,0.255 0.008,0.311 z m 0.623,0.356 c -0.053,0.055 -0.42,0.072 -0.465,-0.051 -0.045,-0.125 0.326,-0.248 0.457,-0.261 0.129,-0.015 0.062,0.254 0.008,0.312 z m 0.355,-0.915 c -0.054,0.056 -0.42,0.073 -0.465,-0.051 -0.046,-0.125 0.325,-0.248 0.456,-0.262 0.13,-0.013 0.064,0.256 0.009,0.313 z m 0.586,-0.875 c -0.054,0.056 -0.42,0.073 -0.465,-0.051 -0.046,-0.125 0.325,-0.248 0.456,-0.262 0.13,-0.013 0.064,0.256 0.009,0.313 z m 0.428,-1.394 c -0.053,0.055 -0.42,0.073 -0.465,-0.05 -0.045,-0.125 0.326,-0.248 0.457,-0.261 0.129,-0.015 0.062,0.254 0.008,0.311 z"
       id="path5"
       inkscape:connector-curvature="0" /></g><g
     id="g7"
     transform="translate(0,-15.999001)" /><g
     id="g9"
     transform="translate(0,-15.999001)" /><g
     id="g11"
     transform="translate(0,-15.999001)" /><g
     id="g13"
     transform="translate(0,-15.999001)" /><g
     id="g15"
     transform="translate(0,-15.999001)" /><g
     id="g17"
     transform="translate(0,-15.999001)" /><g
     id="g19"
     transform="translate(0,-15.999001)" /><g
     id="g21"
     transform="translate(0,-15.999001)" /><g
     id="g23"
     transform="translate(0,-15.999001)" /><g
     id="g25"
     transform="translate(0,-15.999001)" /><g
     id="g27"
     transform="translate(0,-15.999001)" /><g
     id="g29"
     transform="translate(0,-15.999001)" /><g
     id="g31"
     transform="translate(0,-15.999001)" /><g
     id="g33"
     transform="translate(0,-15.999001)" /><g
     id="g35"
     transform="translate(0,-15.999001)" /></svg>