<?xml version="1.0" encoding="UTF-8" standalone="no"?>
<svg
   xmlns:dc="http://purl.org/dc/elements/1.1/"
   xmlns:cc="http://creativecommons.org/ns#"
   xmlns:rdf="http://www.w3.org/1999/02/22-rdf-syntax-ns#"
   xmlns:svg="http://www.w3.org/2000/svg"
   xmlns="http://www.w3.org/2000/svg"
   xmlns:xlink="http://www.w3.org/1999/xlink"
   xmlns:sodipodi="http://sodipodi.sourceforge.net/DTD/sodipodi-0.dtd"
   xmlns:inkscape="http://www.inkscape.org/namespaces/inkscape"
   viewBox="0 0 16 16"
   id="svg2"
   version="1.1"
   inkscape:version="0.91 r13725"
   sodipodi:docname="cherries.svg"
   width="16"
   height="16">
  <metadata
     id="metadata146">
    <rdf:RDF>
      <cc:Work
         rdf:about="">
        <dc:format>image/svg+xml</dc:format>
        <dc:type
           rdf:resource="http://purl.org/dc/dcmitype/StillImage" />
        <dc:title></dc:title>
      </cc:Work>
    </rdf:RDF>
  </metadata>
  <sodipodi:namedview
     pagecolor="#ffffff"
     bordercolor="#666666"
     borderopacity="1"
     objecttolerance="10"
     gridtolerance="10"
     guidetolerance="10"
     inkscape:pageopacity="0"
     inkscape:pageshadow="2"
     inkscape:window-width="1366"
     inkscape:window-height="702"
     id="namedview144"
     showgrid="false"
     inkscape:zoom="35.088284"
     inkscape:cx="6.4993107"
     inkscape:cy="8.6760653"
     inkscape:window-x="0"
     inkscape:window-y="29"
     inkscape:window-maximized="1"
     inkscape:current-layer="svg2" />
  <defs
     id="defs4">
    <filter
       id="filter6757">
      <feGaussianBlur
         stdDeviation="1.51019"
         id="feGaussianBlur7" />
    </filter>
    <filter
       id="filter6020">
      <feGaussianBlur
         stdDeviation="3.28914"
         id="feGaussianBlur10" />
    </filter>
    <filter
       id="filter5835">
      <feGaussianBlur
         stdDeviation="1.7846"
         id="feGaussianBlur13" />
    </filter>
    <filter
       id="filter7450">
      <feGaussianBlur
         stdDeviation=".65095"
         id="feGaussianBlur16" />
    </filter>
    <filter
       id="filter7454">
      <feGaussianBlur
         stdDeviation=".42332"
         id="feGaussianBlur19" />
    </filter>
    <filter
       id="filter8192">
      <feGaussianBlur
         stdDeviation="2.31262"
         id="feGaussianBlur22" />
    </filter>
    <filter
       id="filter9241">
      <feGaussianBlur
         stdDeviation="1.41373"
         id="feGaussianBlur25" />
    </filter>
    <filter
       height="2.00156"
       id="filter6909"
       width="1.41961"
       x="-0.20981"
       y="-0.50077999">
      <feGaussianBlur
         stdDeviation="3.18799"
         id="feGaussianBlur28" />
    </filter>
    <filter
       height="1.23797"
       id="filter6933"
       width="1.14344"
       x="-0.071719997"
       y="-0.11898">
      <feGaussianBlur
         stdDeviation=".74906"
         id="feGaussianBlur31" />
    </filter>
    <filter
       height="1.45025"
       id="filter5785"
       width="1.39397"
       x="-0.19698"
       y="-0.22513001">
      <feGaussianBlur
         stdDeviation="1.11431"
         id="feGaussianBlur34" />
    </filter>
    <filter
       height="1.23448"
       id="filter6021"
       width="1.14473"
       x="-0.07237"
       y="-0.11724">
      <feGaussianBlur
         stdDeviation="2.58619"
         id="feGaussianBlur37" />
    </filter>
    <filter
       height="1.3990999"
       id="filter6938"
       width="1.2551399"
       x="-0.12757"
       y="-0.19955">
      <feGaussianBlur
         stdDeviation="3.22252"
         id="feGaussianBlur40" />
    </filter>
    <filter
       height="1.23945"
       id="filter7333"
       width="1.22776"
       x="-0.11388"
       y="-0.11973">
      <feGaussianBlur
         stdDeviation="1.34425"
         id="feGaussianBlur43" />
    </filter>
    <filter
       height="1.56666"
       id="filter7576"
       width="1.33394"
       x="-0.16697"
       y="-0.28332999">
      <feGaussianBlur
         stdDeviation="1.77834"
         id="feGaussianBlur46" />
    </filter>
    <filter
       height="1.5444601"
       id="filter7934"
       width="1.61114"
       x="-0.30557001"
       y="-0.27223">
      <feGaussianBlur
         stdDeviation="26.49476"
         id="feGaussianBlur49" />
    </filter>
    <filter
       height="1.4267401"
       id="filter7982"
       width="1.479"
       x="-0.2395"
       y="-0.21337">
      <feGaussianBlur
         stdDeviation="20.76616"
         id="feGaussianBlur52" />
    </filter>
    <linearGradient
       id="linearGradient5839">
      <stop
         offset="0"
         stop-color="#eee"
         id="stop55" />
      <stop
         offset="1"
         stop-color="#eee"
         stop-opacity="0"
         id="stop57" />
    </linearGradient>
    <linearGradient
       id="linearGradient6653">
      <stop
         offset="0"
         stop-color="#fff"
         stop-opacity="0"
         id="stop60" />
      <stop
         offset=".77863"
         stop-color="#fff"
         stop-opacity=".49804"
         id="stop62" />
      <stop
         offset="1"
         stop-color="#fff"
         id="stop64" />
    </linearGradient>
    <linearGradient
       id="linearGradient5738">
      <stop
         offset="0"
         stop-color="#fe0505"
         id="stop67" />
      <stop
         offset="1"
         stop-color="#8b0000"
         id="stop69" />
    </linearGradient>
    <linearGradient
       gradientUnits="userSpaceOnUse"
       id="linearGradient9430"
       x1="-426.19086"
       x2="-477.65872"
       y1="206.34373"
       y2="283.80188">
      <stop
         offset="0"
         id="stop72" />
      <stop
         offset="1"
         stop-opacity="0"
         id="stop74" />
    </linearGradient>
    <linearGradient
       gradientUnits="userSpaceOnUse"
       id="linearGradient9442"
       x1="439.81122"
       x2="501.59375"
       y1="545.83234"
       y2="513.33234">
      <stop
         offset="0"
         stop-color="#200"
         id="stop77" />
      <stop
         offset="1"
         stop-color="#570000"
         stop-opacity="0"
         id="stop79" />
    </linearGradient>
    <linearGradient
       gradientUnits="userSpaceOnUse"
       id="linearGradient9432"
       x1="165.33424"
       x2="140.42467"
       xlink:href="#linearGradient5839"
       y1="428.25552"
       y2="425.42709" />
    <linearGradient
       gradientUnits="userSpaceOnUse"
       id="linearGradient9434"
       x1="269.98605"
       x2="247.39278"
       xlink:href="#linearGradient5839"
       y1="391.48596"
       y2="413.40628" />
    <linearGradient
       gradientUnits="userSpaceOnUse"
       id="linearGradient9444"
       x1="605.97052"
       x2="528.00073"
       xlink:href="#linearGradient5839"
       y1="513.27087"
       y2="486.40085" />
    <radialGradient
       cx="-113.90744"
       cy="520.0083"
       gradientTransform="matrix(0.9107,0.36281,-0.24003,0.60251,132.09876,251.0821)"
       gradientUnits="userSpaceOnUse"
       id="radialGradient9436"
       r="96.482132"
       xlink:href="#linearGradient5738" />
    <radialGradient
       cx="-109.73992"
       cy="531.50037"
       gradientUnits="userSpaceOnUse"
       id="radialGradient9438"
       r="96.481323"
       xlink:href="#linearGradient6653" />
    <radialGradient
       cx="529.47388"
       cy="496.96701"
       fx="537.54675"
       fy="461.20663"
       gradientTransform="matrix(0.86412,-0.59392,0.46267,0.67316,-167.72149,488.16762)"
       gradientUnits="userSpaceOnUse"
       id="radialGradient9440"
       r="86.41848"
       xlink:href="#linearGradient5738" />
    <radialGradient
       cx="519.74103"
       cy="520.2384"
       gradientUnits="userSpaceOnUse"
       id="radialGradient9446"
       r="86.430458"
       xlink:href="#linearGradient6653" />
  </defs>
  <g
     transform="matrix(0.03404769,0,0,0.03373527,21.287606,-5.3316074)"
     id="g88">
    <path
       d="m -483.29478,248.8877 c 109.07164,-73.88166 78.88785,-40.56693 28.28836,16.82518 -33.844,22.93328 -38.75152,3.17869 -28.28836,-16.82518 z"
       transform="matrix(0.75926,0,0,0.77032,-98.52792,47.39308)"
       id="path90"
       inkscape:connector-curvature="0"
       style="opacity:0.27626002;fill:url(#linearGradient9430);fill-rule:evenodd;filter:url(#filter8192)" />
    <path
       d="m -208,450.36218 c 0,28.576 -28.82432,43.23486 -83,88 -54.17568,44.76514 -111.06856,5.9816 -83,-88 28.06856,-93.9816 37.184,-88 83,-88 45.816,0 83,55.424 83,88 z"
       id="path92"
       inkscape:connector-curvature="0"
       style="opacity:0.58754997;fill-rule:evenodd;filter:url(#filter7934)" />
    <path
       d="m -410,466.36218 c 0,28.576 -28.82432,43.23486 -83,88 -54.17568,44.76514 -111.06856,5.9816 -83,-88 28.06856,-93.9816 37.184,-88 83,-88 45.816,0 83,55.424 83,88 z"
       id="path94"
       inkscape:connector-curvature="0"
       style="opacity:0.53307004;fill-rule:evenodd;filter:url(#filter7982)" />
    <g
       transform="translate(-602,-138)"
       id="g96">
      <path
         d="m 161.21875,321.21875 c 2.14628,7.87024 -10.89753,16.81416 -0.34375,20.5 -13.32516,48.99038 -12.23446,100.06334 -12.0625,150.65625 l 6.375,-0.0312 c -0.17226,-50.68095 -1.1682,-101.16374 11.84375,-149 4.04526,0.92776 7.94271,1.63412 9.03125,1.90625 9.72646,2.43162 -4.84355,6.16401 11.3125,2.125 l 0.15625,-0.0312 C 226.79111,379.57927 265.917,414.84003 305.0625,466 l 5.0625,-3.90625 c -38.36413,-50.13877 -76.76908,-85.20168 -115.03125,-116.8125 3.32015,-1.22328 4.36335,-2.73224 2.90625,-6.375 -2.28003,-5.70009 -7.8721,-8.88209 -14.84375,-10.625 -8.27967,-2.06993 -12.92412,-5.56027 -21.9375,-7.0625 z"
         id="path98"
         inkscape:connector-curvature="0"
         style="fill:#616f3c;fill-rule:evenodd" />
      <path
         d="m 165.18566,338.11336 c -14.43244,49.35329 -13.5631,101.79427 -13.3125,152.96875 5.28331,-0.90793 0.94209,-11.28154 2.31925,-16.03115 -0.17216,-45.81783 0.38726,-92.49574 13.462,-136.71885 -0.61491,0.19304 -2.4505,-1.47582 -2.46875,-0.21875 z"
         id="path100"
         inkscape:connector-curvature="0"
         style="opacity:0.70038997;fill:url(#linearGradient9432);fill-rule:evenodd;filter:url(#filter7454)" />
      <path
         d="m 165.78125,329.21875 c -0.0445,3.33762 -3.32579,8.55232 1.59375,10.53125 3.52767,1.15962 7.2225,1.17208 9.875,4.15625 3.25281,3.03929 9.26842,1.46695 8.90625,-3.5 0.82141,-4.70372 -2.0519,-9.5194 -7.16502,-9.52334 -6.0962,-0.99634 -11.08357,-4.83253 -16.30373,-7.88291 l 3.09375,6.21875 z"
         id="path102"
         inkscape:connector-curvature="0"
         style="fill:#373f22;fill-rule:evenodd;filter:url(#filter7333)" />
      <path
         d="m 184.375,331.125 c -3.02501,0 0.92324,6.09355 -1.21875,9 -3.18198,4.31759 -4.80626,8.03124 5.46875,6.53125 0.51374,-0.075 1.07883,-0.21485 1.65625,-0.40625 42.98559,34.97931 83.26828,73.47635 116.9375,117.65625 4.04466,-2.81529 -4.08138,-7.19277 -5.34375,-10.625 -31.96864,-40.36623 -69.33473,-75.6112 -109.15625,-108.15625 1.9098,-1.15946 3.5,-2.88654 3.5,-5 0,-3.61049 -8.81876,-9.00001 -11.84375,-9 z"
         id="path104"
         inkscape:connector-curvature="0"
         style="fill:url(#linearGradient9434);fill-rule:evenodd;filter:url(#filter7450)" />
      <path
         d="m 163.21687,323.42412 c -0.44239,0.5961 0.52427,1.57116 -0.80267,1.9033 -1.595,2.42329 -2.95786,5.25832 -3.19256,8.15673 0.31545,2.67247 4.43796,3.47207 5.63494,1.0284 0.8307,-2.49496 -0.79126,-5.09951 -0.37693,-7.73018 -0.0321,-1.18001 -0.99594,-2.9044 0.77863,-1.63789 4.20245,1.83543 8.35599,3.79972 12.48168,5.78517 1.51997,0.91815 4.04969,-0.60658 2.03553,-2.1011 -3.10555,-2.87839 -7.51873,-3.35654 -11.41869,-4.53907 -1.6887,-0.41325 -3.40329,-0.74418 -5.13993,-0.86536 z"
         id="path106"
         inkscape:connector-curvature="0"
         style="opacity:0.87549002;fill:#633918;fill-rule:evenodd;filter:url(#filter7576)" />
    </g>
    <g
       transform="translate(-357.34571,-110.69952)"
       id="g108">
      <path
         d="m -13.27696,526.50999 c 1.01016,32.139 -40.1553,105.31471 -108.08632,95.96449 -44.21563,-6.08597 -83.84266,-34.53106 -84.85282,-103.03556 -0.68237,-46.27612 48.99312,-114.80804 111.11679,-58.58885 10.35206,9.36816 71.72083,-3.85474 81.82235,65.65992 z"
         id="path110"
         inkscape:connector-curvature="0"
         style="fill:url(#radialGradient9436)" />
      <path
         d="m -141.24554,439.7009 c -38.80129,-0.23315 -65.46987,45.73471 -64.96875,79.71875 1.01016,68.5045 40.65937,96.97655 84.875,103.0625 67.93102,9.35022 109.07267,-63.82975 108.0625,-95.96875 -10.10152,-69.51466 -71.46044,-56.28809 -81.8125,-65.65625 -16.5016,-14.93322 -32.12174,-21.07192 -46.15625,-21.15625 z m 15.03125,10.21875 c 0.17871,0.0941 -0.18588,0.98006 -1.28125,2.9375 10.80881,0.47185 21.25242,20.03897 34.1875,33.5625 1.49883,-8.95921 -13.50157,-30.33139 -3.28125,-18.125 11.98502,-7.13918 21.26855,7.04683 27.53125,10.0625 5.55262,2.51603 10.84155,4.25127 15.9375,11.03125 -3.61927,10.3003 17.38813,21.21087 7.34375,31.6875 5.00535,15.2437 3.68489,-10.38083 3.6875,-12.15625 l 1.40625,8.78125 c 0.90074,6.77401 4.5699,7.89058 -0.65625,30.71875 -11.03659,7.44304 -14.10331,19.04252 -20.5,27.0625 -21.13566,1.22136 -25.03725,8.96271 -22.9375,12.0625 -13.28324,-4.85836 -25.71078,27.56181 -34.3125,11.6875 -9.81419,1.22437 -12.32404,-8.25552 -19.34375,-11.59375 -11.13128,-1.43363 -11.82907,-20.53443 -21.375,-19.1875 -10.5864,6.4729 -7.22062,-16.69403 -12.6875,-23.84375 9.40288,-13.51348 -12.3025,-26.68661 -8.96875,-28.59375 -12.33538,-18.20899 2.0204,-34.46842 11.25,-30.90625 4.92582,-4.31954 11.94355,-1.76492 20.84375,-8.09375 5.23002,-4.77359 22.19122,-27.60184 23.15625,-27.09375 z m 94.8125,46.9375 c 7.49143,-2e-5 14.3125,13.62786 14.3125,27.625 2.09497,39.99442 -28.37193,65.36619 -30.84375,64.28125 -3.0607,-1.34346 31.53167,-38.65625 18.03125,-38.65625 -7.49142,3e-5 -7.25,-12.62785 -7.25,-26.625 0,-13.99715 -1.74142,-26.625 5.75,-26.625 z"
         id="path112"
         inkscape:connector-curvature="0"
         style="opacity:0.43969003;fill:url(#radialGradient9438)" />
      <path
         d="m -116.05804,465.04465 c -6.43737,-0.16451 -8.24676,8.65937 -3.6875,12.34375 9.87184,8.61615 23.25554,12.80574 32.40625,22.3125 8.88535,7.16593 22.26162,12.8696 33.21875,7.0625 6.51553,-4.58504 2.15086,-13.99849 -2.21875,-18.53125 -10.21181,-9.21841 -24.70686,-10.76419 -36.72581,-16.9767 -7.32472,-2.79983 -14.96905,-6.37337 -22.99294,-6.2108 z"
         id="path114"
         inkscape:connector-curvature="0"
         style="opacity:0.72373998;fill:#ffffff;filter:url(#filter6021)" />
      <path
         d="m -115.84375,471.0625 c -1.36844,2.15921 2.96365,4.37953 4.53777,5.2451 10.95593,6.37523 21.82285,12.9975 31.30598,21.3174 6.50408,4.05085 16.25851,8.38006 23.0625,3.25 0.16341,-8.45589 -9.48791,-12.77281 -16.24098,-15.52764 -12.37293,-3.74748 -23.82781,-9.9161 -36.29027,-13.53486 -2.09353,-0.44673 -4.2351,-0.79158 -6.375,-0.75 z"
         id="path116"
         inkscape:connector-curvature="0"
         style="opacity:0.78598998;fill:#ffffff" />
      <path
         d="m -118.38393,445.04911 c -0.35708,1.62192 -0.10904,3.7899 1.0625,6.71875 3.77609,9.44021 19.11124,4.90998 23.21875,13.125 0.42115,0.84229 1.28284,1.308 2.40625,1.5625 1.57127,-0.24743 3.09992,-0.16397 4.5625,0.15625 l 0.03125,0 c 3.66587,-0.24335 8.05323,-0.95219 11.625,-0.6875 -9.17456,-1.50497 -16.60226,-2.32705 -19.625,-5.0625 -7.99523,-7.23533 -15.77996,-12.39457 -23.28125,-15.8125 z m 45.4375,21.3125 c 2.44887,0.70693 4.125,2.28898 4.125,5.59375 0,4.348 2.55483,7.08889 5.875,9.21875 0.93432,0.47887 1.86095,0.99895 2.78125,1.59375 0.03324,0.0172 0.06046,0.0453 0.09375,0.0625 0.03894,0.0254 0.08608,0.0368 0.125,0.0625 4.50994,2.3106 9.42172,4.09871 11.3125,7.25 4.38596,7.30992 14.94598,5.38284 21.34375,0.0937 -12.74714,-16.55465 -31.0562,-21.32682 -45.65625,-23.875 z"
         id="path118"
         inkscape:connector-curvature="0"
         style="opacity:0.91439999;fill:#ffffff;filter:url(#filter6757)" />
      <path
         d="m 124.24877,478.59555 a 6.06092,7.07107 0 1 1 -12.12183,0 6.06092,7.07107 0 1 1 12.12183,0 z"
         transform="matrix(1.22986,0.56234,0,0.41415,-269.27369,183.63648)"
         id="path120"
         inkscape:connector-curvature="0"
         style="fill:#eeeeee;filter:url(#filter6933)" />
      <path
         d="m -41.21429,522.61218 c -4.27989,9.97373 -22.9247,3.00876 -30.35714,-4.64285 7.28687,-4.70306 31.39548,-4.86963 30.35714,4.64285 z"
         id="path122"
         inkscape:connector-curvature="0"
         style="opacity:0.68871999;fill:#ffffff;filter:url(#filter6909)" />
    </g>
    <g
       transform="translate(-783.65319,-129.07484)"
       id="g124">
      <path
         d="m 604.79962,509.93593 c 9.8156,54.42071 -35.56784,88.03516 -70.35713,97.93428 -34.80099,9.90246 -95.20183,-30.51465 -100.05561,-75.30687 -8.61208,-79.47493 36.84788,-61.82802 70.35713,-89.44901 43.60086,-35.9393 100.05561,15.34155 100.05561,66.8216 z"
         id="path126"
         inkscape:connector-curvature="0"
         style="fill:url(#radialGradient9440)" />
      <path
         d="m 467.0625,466.125 c -13.3998,4.89356 -26.03303,15.46239 -27.91088,30.38098 -3.29239,17.50043 -2.71864,36.43551 4.12963,53.05652 12.33471,26.63955 37.80125,46.09254 65.6563,54.06033 13.70707,3.75835 28.23984,0.94961 40.55497,-5.7175 8.97969,-4.21547 18.74562,-10.34777 25.38248,-16.74908 -22.58621,6.67329 -46.024,-3.13357 -64.71875,-15.5 -23.52852,-15.97091 -42.84495,-41.51326 -43.65135,-71.02959 -0.41579,-9.61705 -0.18514,-19.36015 1.4951,-28.84541 l -0.9375,0.34375 z"
         id="path128"
         inkscape:connector-curvature="0"
         style="opacity:0.79376999;fill:url(#linearGradient9442);filter:url(#filter6020)" />
      <path
         d="m 581.04398,520.62341 c 7.91441,-12.18066 -12.23509,-82.73096 -54.18234,-67.87159 -32.00672,11.33804 -7.36751,42.48238 5.32127,49.1197 20.39973,10.67081 44.46008,25.52523 48.86107,18.75189 z"
         id="path130"
         inkscape:connector-curvature="0"
         style="opacity:0.56420001;fill:url(#linearGradient9444);fill-rule:evenodd;filter:url(#filter5835)" />
      <path
         d="m 541.78125,453.375 c -6.53107,-0.34564 -16.07791,-0.93548 -18.5,6.8125 -1.87646,5.20931 1.21623,12.26529 7.4375,12 6.0739,-1.13532 13.62051,-4.59336 18.59375,0.96875 6.39808,3.74575 10.97295,12.18309 18.875,12.34375 7.0492,-2.40594 6.02094,-12.9198 1.34375,-17.21875 -6.66374,-8.41517 -16.39094,-15.99773 -27.75,-14.90625 z"
         id="path132"
         inkscape:connector-curvature="0"
         style="fill:#eeeeee;filter:url(#filter6938)" />
      <path
         d="m 536.625,431.09375 c -10.7388,-0.0387 -21.65605,3.60798 -31.875,12.03125 -33.50925,27.62099 -78.98707,9.96256 -70.375,89.4375 4.85378,44.79222 65.2615,85.21493 100.0625,75.3125 34.78929,-9.89912 80.1906,-43.51677 70.375,-97.9375 0,-39.41441 -33.10742,-78.71746 -68.1875,-78.84375 z m -2.0625,15.8125 c 3.60294,0.70525 7.09192,1.83231 10.625,2.8125 8.58692,1.46344 18.00978,2.63728 21.78125,11.90625 7.27525,4.72211 7.28377,13.22162 10.75,20.21875 8.83606,3.37525 7.94371,11.88122 8.28125,18.59375 5.95969,5.50166 0.12222,13.79532 0.34375,21 3.49502,3.70396 6.23481,8.77623 1.4375,13.3125 -3.01917,4.7054 -1.93229,12.32947 -8.84375,14.125 -0.96635,6.21817 -5.56535,17.35231 -10.53125,10.625 -7.12403,-3.3297 -9.55936,4.50886 -12.375,8.53125 -7.45309,2.26426 -17.87007,6.2208 -25.65625,2.59375 -6.43248,-4.00948 -13.9526,2.93472 -20.6875,-1.03125 -6.27087,-4.98978 -14.67764,-7.90006 -22.34375,-10.6875 -3.73976,-8.16598 -9.62668,-12.90066 -14.59375,-19.6875 -2.14933,-2.05297 -6.46155,-14.35495 -5.4375,-5.34375 0.40219,6.16527 1.9706,12.82995 -3.53125,17.09375 2.53518,2.99819 -0.57986,7.06123 2.84375,10.03125 8.98477,4.98285 -0.14521,5.85804 -5.84375,3.5625 -6.7282,-1.33042 -12.08484,-10.69005 -9.8125,-17.34375 -2.38215,-5.69533 -8.72277,-12.76744 -10.375,-20.15625 -4.37972,-7.13496 -2.87602,-11.67163 -1.25,-17.75 -0.84051,-5.52339 7.93255,-3.33281 10.75,-9.375 9.33505,0.85596 5.85237,-10.24591 10.40625,-14.34375 7.18825,-3.02269 2.63427,-11.56871 9.53125,-14.9375 7.88249,-1.93301 13.70344,-6.30531 19.5625,-11.8125 9.00002,-1.36788 18.29955,-2.98345 26.90625,-6.71875 5.09462,-5.18099 12.89584,-0.7133 18.0625,-5.21875 z"
         id="path134"
         inkscape:connector-curvature="0"
         style="opacity:0.43969003;fill:url(#radialGradient9446)" />
      <path
         d="m 569,474.11218 c 1,16.866 -7.01161,1.35369 -22.25,-7.25 -6.9648,-3.93237 -19.42272,6.05238 -19.75,-2.25 -0.30984,-7.8599 3.64012,-7.30642 16.75,-7.25 12.83385,0.0552 19.60403,10.01319 25.25,16.75 z"
         id="path136"
         inkscape:connector-curvature="0"
         style="opacity:0.82878998;fill:#ffffff" />
      <path
         d="m 317.49093,477.48438 a 5.656855,4.9497544 0 1 1 -11.31371,0 5.656855,4.9497544 0 1 1 11.31371,0 z"
         transform="translate(179.60512,-7.77817)"
         id="path138"
         inkscape:connector-curvature="0"
         style="opacity:0.45136001;fill:#ffffff;filter:url(#filter5785)" />
      <path
         d="m 491.08566,470.94363 a 1.944545,1.5909941 0 1 1 -3.88909,0 1.944545,1.5909941 0 1 1 3.88909,0 z"
         transform="translate(1.3679,1.38334)"
         id="path140"
         inkscape:connector-curvature="0"
         style="opacity:0.56420001;fill:#ffffff" />
    </g>
    <path
       d="m -259.96721,306.69005 c 17.85972,4.31066 23.81763,0.46198 41.40116,12.96825 16.78463,11.93806 20.77534,26.04361 28.46355,37.70321 0.25962,1.87148 2.51994,6.43417 3.03331,2.11844 1.46063,-4.54379 0.94471,-5.9439 -2.36589,-9.70635 2.93577,0.79169 -27.35615,-58.85628 -70.53213,-43.08355 z"
       id="path142"
       inkscape:connector-curvature="0"
       style="fill:#ffffff;fill-rule:evenodd;filter:url(#filter9241)" />
  </g>
</svg>
