<?xml version="1.0" encoding="UTF-8" standalone="no"?>
<!-- Created with Inkscape (http://www.inkscape.org/) -->

<svg
   xmlns:dc="http://purl.org/dc/elements/1.1/"
   xmlns:cc="http://creativecommons.org/ns#"
   xmlns:rdf="http://www.w3.org/1999/02/22-rdf-syntax-ns#"
   xmlns:svg="http://www.w3.org/2000/svg"
   xmlns="http://www.w3.org/2000/svg"
   xmlns:xlink="http://www.w3.org/1999/xlink"
   xmlns:sodipodi="http://sodipodi.sourceforge.net/DTD/sodipodi-0.dtd"
   xmlns:inkscape="http://www.inkscape.org/namespaces/inkscape"
   width="16"
   height="16"
   viewBox="0 0 16 16"
   id="svg3424"
   version="1.1"
   inkscape:version="0.91 r13725"
   sodipodi:docname="cogwheel.svg">
  <defs
     id="defs3426">
    <filter
       id="filter3390">
      <feGaussianBlur
         stdDeviation="10.09393"
         id="feGaussianBlur10" />
    </filter>
    <radialGradient
       cx="380"
       cy="389.50504"
       gradientTransform="matrix(-0.10557,-0.9309,0.99363,-0.11268,45.9635,812.42287)"
       gradientUnits="userSpaceOnUse"
       id="radialGradient2340"
       r="148.85715"
       xlink:href="#linearGradient2254" />
    <linearGradient
       id="linearGradient2254">
      <stop
         offset="0"
         stop-color="#bedcdc"
         id="stop13" />
      <stop
         offset=".5"
         stop-color="#8e9e9e"
         stop-opacity=".7415"
         id="stop15" />
      <stop
         offset="1"
         stop-color="#404f5c"
         stop-opacity=".83922"
         id="stop17" />
    </linearGradient>
    <filter
       id="filter3340">
      <feGaussianBlur
         stdDeviation="3.95909"
         id="feGaussianBlur7" />
    </filter>
    <filter
       id="filter3394">
      <feGaussianBlur
         stdDeviation="10.09393"
         id="feGaussianBlur3396" />
    </filter>
    <radialGradient
       cx="380"
       cy="389.50504"
       gradientTransform="matrix(0.08685949,-0.58077,0.6221,0.09357629,261.99206,772.77917)"
       gradientUnits="userSpaceOnUse"
       id="radialGradient3406"
       r="148.85715"
       xlink:href="#linearGradient2254" />
    <filter
       id="filter3407">
      <feGaussianBlur
         stdDeviation="3.95909"
         id="feGaussianBlur3409" />
    </filter>
  </defs>
  <sodipodi:namedview
     id="base"
     pagecolor="#ffffff"
     bordercolor="#666666"
     borderopacity="1.0"
     inkscape:pageopacity="0.0"
     inkscape:pageshadow="2"
     inkscape:zoom="18.666193"
     inkscape:cx="12.857139"
     inkscape:cy="10.000035"
     inkscape:document-units="px"
     inkscape:current-layer="layer1"
     showgrid="false"
     units="px"
     inkscape:window-width="1364"
     inkscape:window-height="684"
     inkscape:window-x="0"
     inkscape:window-y="27"
     inkscape:window-maximized="1" />
  <metadata
     id="metadata3429">
    <rdf:RDF>
      <cc:Work
         rdf:about="">
        <dc:format>image/svg+xml</dc:format>
        <dc:type
           rdf:resource="http://purl.org/dc/dcmitype/StillImage" />
        <dc:title></dc:title>
      </cc:Work>
    </rdf:RDF>
  </metadata>
  <g
     inkscape:label="Layer 1"
     inkscape:groupmode="layer"
     id="layer1"
     transform="translate(0,-1036.3622)">
    <g
       transform="matrix(0.02809534,0,0,0.0257525,-4.498923,1032.2996)"
       id="g21">
      <path
         style="opacity:0.88485;filter:url(#filter3390)"
         inkscape:connector-curvature="0"
         d="m 417.4375,175.3125 c -2.40761,18.12082 -17.91084,32.125 -36.6875,32.125 -17.82254,1e-5 -32.72374,-12.59753 -36.25,-29.375 -13.05912,2.8118 -25.65303,6.85014 -37.6875,11.96875 6.59543,16.77035 0.1373,36.31297 -15.9375,45.59375 -14.92546,8.61721 -33.38787,5.68118 -44.9375,-6.0625 -8.09997,7.53123 -15.63753,15.6906 -22.46875,24.40625 14.38109,11.16882 18.67245,31.53809 9.3125,47.75 -8.9272,15.46236 -27.34017,22.07308 -43.65625,16.6875 -3.91032,12.02029 -6.77907,24.51463 -8.46875,37.375 18.74222,1.82534 33.40625,17.62407 33.40625,36.84375 1e-5,18.10476 -13.01226,33.16068 -30.1875,36.375 1.27795,5.75903 2.75941,11.42917 4.5,17 3.35961,-0.88443 6.79511,-1.29527 10.1875,-1.21875 12.5076,0.28213 24.57292,6.91208 31.28125,18.53125 9.1309,15.8152 5.26366,35.5792 -8.28125,46.90625 7.55764,9.9478 15.97857,19.20846 25.15625,27.65625 6.97835,-8.45322 17.22796,-13.19945 27.78125,-13.4375 6.5516,-0.14778 13.19502,1.45486 19.28125,4.96875 16.87547,9.74303 23.17121,30.78021 14.875,48.0625 11.47456,4.75069 23.45238,8.51948 35.84375,11.1875 3.52626,-16.77746 18.42747,-29.375 36.25,-29.375 18.77665,-3e-5 34.27988,14.00417 36.6875,32.125 11.22039,-1.52949 22.16481,-3.92513 32.75,-7.15625 -5.53756,-16.37811 1.05171,-34.93305 16.59375,-43.90625 5.53294,-3.19444 11.5606,-4.78346 17.53125,-4.9375 12.00396,-0.3097 23.78515,5.25309 31.09375,15.5 10.67427,-8.07824 20.55433,-17.16218 29.5,-27.09375 -12.83087,-11.43588 -16.33532,-30.69065 -7.40625,-46.15625 6.70834,-11.61918 18.77365,-18.24913 31.28125,-18.53125 4.98942,-0.11254 10.05708,0.79237 14.875,2.78125 4.3232,-10.70375 7.78842,-21.85142 10.3125,-33.34375 -16.09754,-4.0234 -28.03125,-18.5974 -28.03125,-35.9375 3e-5,-18.44179 13.50638,-33.74143 31.15625,-36.5625 -2.44861,-18.8367 -7.39681,-36.88211 -14.5,-53.8125 -17.27746,8.27773 -38.293,1.99215 -48.03125,-14.875 -9.10417,-15.76889 -5.26652,-35.4694 8.1875,-46.8125 -8.07675,-8.69949 -16.87718,-16.73656 -26.3125,-23.96875 -11.35627,13.37287 -30.98903,17.1753 -46.71875,8.09375 -14.78347,-8.53524 -21.4615,-25.74519 -17.3125,-41.5 -11.27509,-3.57995 -22.96024,-6.23825 -34.96875,-7.875 z m -28.5625,133.75 c 1.28143,0 2.54694,0.0295 3.8125,0.0937 5.0622,0.25708 10.0042,1.0271 14.75,2.25 1.18649,0.3055 2.36843,0.63807 3.53125,1 2.32555,0.72436 4.591,1.55919 6.8125,2.5 1.1108,0.47009 2.20031,0.9754 3.28125,1.5 0.54047,0.2623 1.09201,0.53738 1.625,0.8125 0.0745,0.0382 0.1444,0.0866 0.21875,0.125 0.725,0.37479 1.4454,0.75853 2.15625,1.15625 0.78266,0.43999 1.54669,0.87827 2.3125,1.34375 2.04204,1.24203 4.03069,2.57278 5.9375,4 0.7151,0.5349 1.42909,1.09666 2.125,1.65625 0.42748,0.34454 0.86163,0.67751 1.28125,1.03125 0.56656,0.47632 1.10429,0.97606 1.65625,1.46875 1.03448,0.92341 2.05194,1.86444 3.03125,2.84375 0.63022,0.63058 1.23675,1.28479 1.84375,1.9375 l 0.0312,0.0312 c 0.28068,0.30218 0.56813,0.59944 0.84375,0.90625 0.70735,0.78739 1.38911,1.58908 2.0625,2.40625 l 0.5625,0.6875 c 0.56135,0.69675 1.11987,1.40792 1.65625,2.125 0.66839,0.89519 1.30906,1.79303 1.9375,2.71875 0.8779,1.29319 1.73386,2.61892 2.53125,3.96875 0.45439,0.76858 0.88533,1.55773 1.3125,2.34375 1.14403,2.1051 2.18482,4.24714 3.125,6.46875 0.41211,0.97313 0.81633,1.9435 1.1875,2.9375 0.0379,0.10148 0.0563,0.21081 0.0937,0.3125 0.32958,0.89463 0.6418,1.80824 0.9375,2.71875 0.0406,0.12504 0.085,0.24967 0.125,0.375 0.11505,0.36082 0.20285,0.73055 0.3125,1.09375 0.2693,0.89198 0.54495,1.78171 0.78125,2.6875 0.065,0.24927 0.125,0.49972 0.1875,0.75 0.16007,0.6401 0.29417,1.29095 0.4375,1.9375 0.17687,0.79784 0.34904,1.59902 0.5,2.40625 0.008,0.0421 0.0235,0.0828 0.0312,0.125 0.0134,0.0723 0.0181,0.14636 0.0312,0.21875 0.16988,0.93277 0.3341,1.86797 0.46875,2.8125 0.009,0.063 0.0224,0.12448 0.0312,0.1875 0.0289,0.20674 0.0353,0.41772 0.0625,0.625 0.11459,0.87239 0.2285,1.74339 0.3125,2.625 0.10428,1.09564 0.19375,2.20385 0.25,3.3125 0.0632,1.25541 0.0937,2.54148 0.0937,3.8125 0,2.56286 -0.12124,5.06624 -0.375,7.5625 -0.001,0.0103 10e-4,0.021 0,0.0312 -0.12634,1.23766 -0.28232,2.46853 -0.46875,3.6875 -0.002,0.0102 0.002,0.0211 0,0.0312 -0.18692,1.2188 -0.41078,2.42641 -0.65625,3.625 -0.002,0.01 0.002,0.0212 0,0.0312 -0.12298,0.59923 -0.26393,1.18752 -0.40625,1.78125 -0.13757,0.59506 -0.28571,1.19175 -0.4375,1.78125 -0.003,0.01 0.003,0.0215 0,0.0312 -0.30347,1.17658 -0.64104,2.34671 -1,3.5 -0.003,0.01 0.003,0.0217 0,0.0312 -0.72181,2.31581 -1.56363,4.5999 -2.5,6.8125 -0.94018,2.22161 -1.98097,4.36365 -3.125,6.46875 -0.004,0.008 0.004,0.0232 0,0.0312 -1.14045,2.09669 -2.38839,4.12509 -3.71875,6.09375 -0.005,0.007 0.005,0.024 0,0.0312 -0.66325,0.98075 -1.3544,1.92835 -2.0625,2.875 -0.005,0.007 0.005,0.0244 0,0.0312 -0.70862,0.9467 -1.46679,1.87021 -2.21875,2.78125 -0.005,0.006 0.005,0.025 0,0.0312 -3.02474,3.66229 -6.39924,7.0389 -10.0625,10.0625 -3.66903,3.02832 -7.63379,5.71218 -11.84375,8 -2.1051,1.14403 -4.27839,2.18482 -6.5,3.125 -2.22161,0.94018 -4.48695,1.77623 -6.8125,2.5 -1.16282,0.36193 -2.34476,0.6945 -3.53125,1 -4.7458,1.22187 -9.6878,1.99315 -14.75,2.25 -1.26556,0.0642 -2.53107,0.0937 -3.8125,0.0937 -1.28143,0 -2.54694,-0.0295 -3.8125,-0.0937 -5.0622,-0.25708 -10.0042,-1.0271 -14.75,-2.25 -1.18649,-0.3055 -2.36843,-0.63807 -3.53125,-1 -2.32555,-0.72436 -4.591,-1.55919 -6.8125,-2.5 -2.2215,-0.94081 -4.3949,-1.98097 -6.5,-3.125 -1.05249,-0.57237 -2.07273,-1.19148 -3.09375,-1.8125 -1.02102,-0.62102 -2.04048,-1.27116 -3.03125,-1.9375 -0.99077,-0.66634 -1.95278,-1.3493 -2.90625,-2.0625 -1.90694,-1.42641 -3.74076,-2.93218 -5.5,-4.53125 -0.87406,-0.79448 -1.7272,-1.63396 -2.5625,-2.46875 -0.84592,-0.84541 -1.66416,-1.67732 -2.46875,-2.5625 -0.005,-0.006 0.005,-0.0254 0,-0.0312 -0.79946,-0.88004 -1.58667,-1.76976 -2.34375,-2.6875 -0.75708,-0.91774 -1.50555,-1.85903 -2.21875,-2.8125 -0.7132,-0.95347 -1.39486,-1.9178 -2.0625,-2.90625 -1.3354,-1.97612 -2.57472,-4.0199 -3.71875,-6.125 -1.14403,-2.1051 -2.18482,-4.24714 -3.125,-6.46875 -0.004,-0.009 0.004,-0.0224 0,-0.0312 -0.46628,-1.10224 -0.92991,-2.21517 -1.34375,-3.34375 -0.003,-0.009 0.003,-0.022 0,-0.0312 -0.41674,-1.13788 -0.79437,-2.27443 -1.15625,-3.4375 -0.35411,-1.13771 -0.66841,-2.27781 -0.96875,-3.4375 -0.0215,-0.0831 -0.0413,-0.16683 -0.0625,-0.25 -0.26945,-1.05564 -0.52632,-2.14589 -0.75,-3.21875 -0.0561,-0.26964 -0.1031,-0.5418 -0.15625,-0.8125 -0.1496,-0.76056 -0.31137,-1.51258 -0.4375,-2.28125 -0.0631,-0.38498 -0.13034,-0.7693 -0.1875,-1.15625 -0.005,-0.0304 0.004,-0.0633 0,-0.0937 -0.14909,-1.01671 -0.26774,-2.03262 -0.375,-3.0625 -0.0185,-0.17766 -0.0452,-0.35322 -0.0625,-0.53125 -0.10206,-1.05377 -0.16146,-2.12084 -0.21875,-3.1875 -0.005,-0.0844 -0.027,-0.16551 -0.0312,-0.25 -0.0642,-1.26561 -0.0937,-2.53107 -0.0937,-3.8125 0,-1.28143 0.0295,-2.54694 0.0937,-3.8125 0.0613,-1.25301 0.15495,-2.5072 0.28125,-3.75 10e-4,-0.0103 -0.001,-0.0209 0,-0.0312 0.12581,-1.23779 0.28284,-2.46839 0.46875,-3.6875 0.002,-0.0102 -0.002,-0.0211 0,-0.0312 0.1864,-1.21894 0.41129,-2.42627 0.65625,-3.625 0.002,-0.01 -0.002,-0.0213 0,-0.0312 0.24545,-1.1986 0.54127,-2.38564 0.84375,-3.5625 0.002,-0.01 -0.003,-0.0215 0,-0.0312 0.30296,-1.17673 0.64153,-2.34655 1,-3.5 0.003,-0.009 -0.003,-0.0218 0,-0.0312 0.36188,-1.16278 0.73951,-2.29996 1.15625,-3.4375 0.31226,-0.85229 0.65771,-1.69389 1,-2.53125 0.0389,-0.095 0.0857,-0.18642 0.125,-0.28125 0.16826,-0.40679 0.32476,-0.81563 0.5,-1.21875 0.27026,-0.62099 0.55708,-1.23175 0.84375,-1.84375 0.19638,-0.41972 0.38979,-0.83459 0.59375,-1.25 0.44925,-0.914 0.92038,-1.82471 1.40625,-2.71875 0.004,-0.008 -0.004,-0.0233 0,-0.0312 0.57195,-1.05249 1.16068,-2.07273 1.78125,-3.09375 0.62508,-1.02839 1.26469,-2.03637 1.9375,-3.03125 0.66286,-0.98093 1.35478,-1.92816 2.0625,-2.875 0.005,-0.007 -0.005,-0.0247 0,-0.0312 0.70825,-0.94688 1.46715,-1.87002 2.21875,-2.78125 0.005,-0.006 -0.005,-0.0252 0,-0.0312 0.75708,-0.91726 1.54429,-1.80795 2.34375,-2.6875 2.3986,-2.63887 4.96677,-5.10355 7.71875,-7.375 3.66903,-3.02832 7.63379,-5.71218 11.84375,-8 2.1051,-1.14403 4.27839,-2.18482 6.5,-3.125 2.22161,-0.94018 4.48695,-1.77623 6.8125,-2.5 1.16282,-0.36193 2.34476,-0.6945 3.53125,-1 4.7458,-1.22187 9.6878,-1.99315 14.75,-2.25 1.26556,-0.0642 2.53107,-0.0937 3.8125,-0.0937 z"
         transform="matrix(0.95883,0,0,1.00459,28.86538,22.52426)"
         id="path23" />
      <path
         style="fill:#c0c0c0"
         inkscape:connector-curvature="0"
         d="m 430.29465,199.59821 c -2.40761,18.12082 -17.91084,32.125 -36.6875,32.125 -17.82254,1e-5 -32.72374,-12.59753 -36.25,-29.375 -13.05912,2.8118 -25.65303,6.85014 -37.6875,11.96875 6.59543,16.77035 0.1373,36.31297 -15.9375,45.59375 -14.92546,8.61721 -33.38787,5.68118 -44.9375,-6.0625 -8.09997,7.53123 -15.63753,15.6906 -22.46875,24.40625 14.38109,11.16882 18.67245,31.53809 9.3125,47.75 -8.9272,15.46236 -27.34017,22.07308 -43.65625,16.6875 -3.91032,12.02029 -6.77907,24.51463 -8.46875,37.375 18.74222,1.82534 33.40625,17.62407 33.40625,36.84375 1e-5,18.10476 -13.01226,33.16068 -30.1875,36.375 1.27795,5.75903 2.75941,11.42917 4.5,17 3.35961,-0.88443 6.79511,-1.29527 10.1875,-1.21875 12.5076,0.28213 24.57292,6.91208 31.28125,18.53125 9.1309,15.8152 5.26366,35.5792 -8.28125,46.90625 7.55764,9.9478 15.97857,19.20846 25.15625,27.65625 6.97835,-8.45322 17.22796,-13.19945 27.78125,-13.4375 6.5516,-0.14778 13.19502,1.45486 19.28125,4.96875 16.87547,9.74303 23.17121,30.78021 14.875,48.0625 11.47456,4.75069 23.45238,8.51948 35.84375,11.1875 3.52626,-16.77746 18.42747,-29.375 36.25,-29.375 18.77665,-3e-5 34.27988,14.00417 36.6875,32.125 11.22039,-1.52949 22.16481,-3.92513 32.75,-7.15625 -5.53756,-16.37811 1.05171,-34.93305 16.59375,-43.90625 5.53294,-3.19444 11.5606,-4.78346 17.53125,-4.9375 12.00396,-0.3097 23.78515,5.25309 31.09375,15.5 10.67427,-8.07824 20.55433,-17.16218 29.5,-27.09375 -12.83087,-11.43588 -16.33532,-30.69065 -7.40625,-46.15625 6.70834,-11.61918 18.77365,-18.24913 31.28125,-18.53125 4.98942,-0.11254 10.05708,0.79237 14.875,2.78125 4.3232,-10.70375 7.78842,-21.85142 10.3125,-33.34375 -16.09754,-4.0234 -28.03125,-18.5974 -28.03125,-35.9375 3e-5,-18.44179 13.50638,-33.74143 31.15625,-36.5625 -2.44861,-18.8367 -7.39681,-36.88211 -14.5,-53.8125 -17.27746,8.27773 -38.293,1.99215 -48.03125,-14.875 -9.10417,-15.76889 -5.26652,-35.4694 8.1875,-46.8125 -8.07675,-8.69949 -16.87718,-16.73656 -26.3125,-23.96875 -11.35627,13.37287 -30.98903,17.1753 -46.71875,8.09375 -14.78347,-8.53524 -21.4615,-25.74519 -17.3125,-41.5 -11.27509,-3.57995 -22.96024,-6.23825 -34.96875,-7.875 z m -28.5625,133.75 c 1.28143,0 2.54694,0.0295 3.8125,0.0937 5.0622,0.25708 10.0042,1.0271 14.75,2.25 1.18649,0.3055 2.36843,0.63807 3.53125,1 2.32555,0.72436 4.591,1.55919 6.8125,2.5 1.1108,0.47009 2.20031,0.9754 3.28125,1.5 0.54047,0.2623 1.09201,0.53738 1.625,0.8125 0.0745,0.0382 0.1444,0.0866 0.21875,0.125 0.725,0.37479 1.4454,0.75853 2.15625,1.15625 0.78266,0.43999 1.54669,0.87827 2.3125,1.34375 2.04204,1.24203 4.03069,2.57278 5.9375,4 0.7151,0.5349 1.42909,1.09666 2.125,1.65625 0.42748,0.34454 0.86163,0.67751 1.28125,1.03125 0.56656,0.47632 1.10429,0.97606 1.65625,1.46875 1.03448,0.92341 2.05194,1.86444 3.03125,2.84375 0.63022,0.63058 1.23675,1.28479 1.84375,1.9375 l 0.0312,0.0312 c 0.28068,0.30218 0.56813,0.59944 0.84375,0.90625 0.70735,0.78739 1.38911,1.58908 2.0625,2.40625 l 0.5625,0.6875 c 0.56135,0.69675 1.11987,1.40792 1.65625,2.125 0.66839,0.89519 1.30906,1.79303 1.9375,2.71875 0.8779,1.29319 1.73386,2.61892 2.53125,3.96875 0.45439,0.76858 0.88533,1.55773 1.3125,2.34375 1.14403,2.1051 2.18482,4.24714 3.125,6.46875 0.41211,0.97313 0.81633,1.9435 1.1875,2.9375 0.0379,0.10148 0.0563,0.21081 0.0937,0.3125 0.32958,0.89463 0.6418,1.80824 0.9375,2.71875 0.0406,0.12504 0.085,0.24967 0.125,0.375 0.11505,0.36082 0.20285,0.73055 0.3125,1.09375 0.2693,0.89198 0.54495,1.78171 0.78125,2.6875 0.065,0.24927 0.125,0.49972 0.1875,0.75 0.16007,0.6401 0.29417,1.29095 0.4375,1.9375 0.17687,0.79784 0.34904,1.59902 0.5,2.40625 0.008,0.0421 0.0235,0.0828 0.0312,0.125 0.0134,0.0723 0.0181,0.14636 0.0312,0.21875 0.16988,0.93277 0.3341,1.86797 0.46875,2.8125 0.009,0.063 0.0224,0.12448 0.0312,0.1875 0.0289,0.20674 0.0353,0.41772 0.0625,0.625 0.11459,0.87239 0.2285,1.74339 0.3125,2.625 0.10428,1.09564 0.19375,2.20385 0.25,3.3125 0.0632,1.25541 0.0937,2.54148 0.0937,3.8125 0,2.56286 -0.12124,5.06624 -0.375,7.5625 -0.001,0.0103 10e-4,0.021 0,0.0312 -0.12634,1.23766 -0.28232,2.46853 -0.46875,3.6875 -0.002,0.0102 0.002,0.0211 0,0.0312 -0.18692,1.2188 -0.41078,2.42641 -0.65625,3.625 -0.002,0.01 0.002,0.0212 0,0.0312 -0.12298,0.59923 -0.26393,1.18752 -0.40625,1.78125 -0.13757,0.59506 -0.28571,1.19175 -0.4375,1.78125 -0.003,0.01 0.003,0.0215 0,0.0312 -0.30347,1.17658 -0.64104,2.34671 -1,3.5 -0.003,0.01 0.003,0.0217 0,0.0312 -0.72181,2.31581 -1.56363,4.5999 -2.5,6.8125 -0.94018,2.22161 -1.98097,4.36365 -3.125,6.46875 -0.004,0.008 0.004,0.0232 0,0.0312 -1.14045,2.09669 -2.38839,4.12509 -3.71875,6.09375 -0.005,0.007 0.005,0.024 0,0.0312 -0.66325,0.98075 -1.3544,1.92835 -2.0625,2.875 -0.005,0.007 0.005,0.0244 0,0.0312 -0.70862,0.9467 -1.46679,1.87021 -2.21875,2.78125 -0.005,0.006 0.005,0.025 0,0.0312 -3.02474,3.66229 -6.39924,7.0389 -10.0625,10.0625 -3.66903,3.02832 -7.63379,5.71218 -11.84375,8 -2.1051,1.14403 -4.27839,2.18482 -6.5,3.125 -2.22161,0.94018 -4.48695,1.77623 -6.8125,2.5 -1.16282,0.36193 -2.34476,0.6945 -3.53125,1 -4.7458,1.22187 -9.6878,1.99315 -14.75,2.25 -1.26556,0.0642 -2.53107,0.0937 -3.8125,0.0937 -1.28143,0 -2.54694,-0.0295 -3.8125,-0.0937 -5.0622,-0.25708 -10.0042,-1.0271 -14.75,-2.25 -1.18649,-0.3055 -2.36843,-0.63807 -3.53125,-1 -2.32555,-0.72436 -4.591,-1.55919 -6.8125,-2.5 -2.2215,-0.94081 -4.3949,-1.98097 -6.5,-3.125 -1.05249,-0.57237 -2.07273,-1.19148 -3.09375,-1.8125 -1.02102,-0.62102 -2.04048,-1.27116 -3.03125,-1.9375 -0.99077,-0.66634 -1.95278,-1.3493 -2.90625,-2.0625 -1.90694,-1.42641 -3.74076,-2.93218 -5.5,-4.53125 -0.87406,-0.79448 -1.7272,-1.63396 -2.5625,-2.46875 -0.84592,-0.84541 -1.66416,-1.67732 -2.46875,-2.5625 -0.005,-0.006 0.005,-0.0254 0,-0.0312 -0.79946,-0.88004 -1.58667,-1.76976 -2.34375,-2.6875 -0.75708,-0.91774 -1.50555,-1.85903 -2.21875,-2.8125 -0.7132,-0.95347 -1.39486,-1.9178 -2.0625,-2.90625 -1.3354,-1.97612 -2.57472,-4.0199 -3.71875,-6.125 -1.14403,-2.1051 -2.18482,-4.24714 -3.125,-6.46875 -0.004,-0.009 0.004,-0.0224 0,-0.0312 -0.46628,-1.10224 -0.92991,-2.21517 -1.34375,-3.34375 -0.003,-0.009 0.003,-0.022 0,-0.0312 -0.41674,-1.13788 -0.79437,-2.27443 -1.15625,-3.4375 -0.35411,-1.13771 -0.66841,-2.27781 -0.96875,-3.4375 -0.0215,-0.0831 -0.0413,-0.16683 -0.0625,-0.25 -0.26945,-1.05564 -0.52632,-2.14589 -0.75,-3.21875 -0.0561,-0.26964 -0.1031,-0.5418 -0.15625,-0.8125 -0.1496,-0.76056 -0.31137,-1.51258 -0.4375,-2.28125 -0.0631,-0.38498 -0.13034,-0.7693 -0.1875,-1.15625 -0.005,-0.0304 0.004,-0.0633 0,-0.0937 -0.14909,-1.01671 -0.26774,-2.03262 -0.375,-3.0625 -0.0185,-0.17766 -0.0452,-0.35322 -0.0625,-0.53125 -0.10206,-1.05377 -0.16146,-2.12084 -0.21875,-3.1875 -0.005,-0.0844 -0.027,-0.16551 -0.0312,-0.25 -0.0642,-1.26561 -0.0937,-2.53107 -0.0937,-3.8125 0,-1.28143 0.0295,-2.54694 0.0937,-3.8125 0.0613,-1.25301 0.15495,-2.5072 0.28125,-3.75 10e-4,-0.0103 -10e-4,-0.0209 0,-0.0312 0.12581,-1.23779 0.28284,-2.46839 0.46875,-3.6875 0.002,-0.0102 -0.002,-0.0211 0,-0.0312 0.1864,-1.21894 0.41129,-2.42627 0.65625,-3.625 0.002,-0.01 -0.002,-0.0213 0,-0.0312 0.24545,-1.1986 0.54127,-2.38564 0.84375,-3.5625 0.002,-0.01 -0.003,-0.0215 0,-0.0312 0.30296,-1.17673 0.64153,-2.34655 1,-3.5 0.003,-0.009 -0.003,-0.0218 0,-0.0312 0.36188,-1.16278 0.73951,-2.29996 1.15625,-3.4375 0.31226,-0.85229 0.65771,-1.69389 1,-2.53125 0.0389,-0.095 0.0857,-0.18642 0.125,-0.28125 0.16826,-0.40679 0.32476,-0.81563 0.5,-1.21875 0.27026,-0.62099 0.55708,-1.23175 0.84375,-1.84375 0.19638,-0.41972 0.38979,-0.83459 0.59375,-1.25 0.44925,-0.914 0.92038,-1.82471 1.40625,-2.71875 0.004,-0.008 -0.004,-0.0233 0,-0.0312 0.57195,-1.05249 1.16068,-2.07273 1.78125,-3.09375 0.62508,-1.02839 1.26469,-2.03637 1.9375,-3.03125 0.66286,-0.98093 1.35478,-1.92816 2.0625,-2.875 0.005,-0.007 -0.005,-0.0247 0,-0.0312 0.70825,-0.94688 1.46715,-1.87002 2.21875,-2.78125 0.005,-0.006 -0.005,-0.0252 0,-0.0312 0.75708,-0.91726 1.54429,-1.80795 2.34375,-2.6875 2.3986,-2.63887 4.96677,-5.10355 7.71875,-7.375 3.66903,-3.02832 7.63379,-5.71218 11.84375,-8 2.1051,-1.14403 4.27839,-2.18482 6.5,-3.125 2.22161,-0.94018 4.48695,-1.77623 6.8125,-2.5 1.16282,-0.36193 2.34476,-0.6945 3.53125,-1 4.7458,-1.22187 9.6878,-1.99315 14.75,-2.25 1.26556,-0.0642 2.53107,-0.0937 3.8125,-0.0937 z"
         id="path25" />
      <path
         style="opacity:0.79393999;fill:#a9a9a9"
         inkscape:connector-curvature="0"
         d="m 401.71653,236.50446 c -94.47087,1e-5 -171.125,76.68539 -171.125,171.15625 0,94.47086 76.65415,171.125 171.125,171.125 94.47085,0 171.15624,-76.65415 171.15624,-171.125 0,-94.47085 -76.68538,-171.15625 -171.15624,-171.15625 z m 0.0312,96.84375 c 1.28144,0 2.54695,0.0295 3.8125,0.0937 5.06221,0.25708 10.00421,1.0271 14.75,2.25 1.18649,0.3055 2.36843,0.63807 3.53126,1 2.32555,0.72436 4.591,1.55919 6.8125,2.5 3.3324,1.41027 6.5305,3.07559 9.59374,4.9375 2.04204,1.24203 4.03069,2.57278 5.9375,4 2.86042,2.13961 5.57268,4.47893 8.09376,7 5.04171,5.04465 9.34951,10.80754 12.78124,17.125 1.14403,2.1051 2.18483,4.24714 3.125,6.46875 3.29686,7.78505 5.30001,16.25576 5.75,25.125 0.0632,1.25541 0.0938,2.54148 0.0938,3.8125 0,2.56286 -0.12125,5.06624 -0.375,7.5625 -10e-4,0.0103 0.001,0.021 0,0.0312 -0.12635,1.23766 -0.28233,2.46853 -0.46876,3.6875 -0.002,0.0102 0.002,0.0211 0,0.0312 -0.18691,1.2188 -0.41077,2.42641 -0.65624,3.625 -0.002,0.01 0.002,0.0212 0,0.0312 -0.24597,1.19846 -0.54076,2.38579 -0.84376,3.5625 -0.002,0.01 0.003,0.0215 0,0.0312 -0.30347,1.17658 -0.64103,2.34671 -1,3.5 -0.003,0.01 0.003,0.0217 0,0.0312 -1.44657,4.64105 -3.34158,9.07958 -5.625,13.28125 -0.004,0.008 0.004,0.0232 0,0.0312 -1.14044,2.09669 -2.38839,4.12509 -3.71874,6.09375 -0.005,0.007 0.005,0.024 0,0.0312 -0.66326,0.98075 -1.3544,1.92835 -2.0625,2.875 -0.005,0.007 0.005,0.0244 0,0.0312 -0.70862,0.9467 -1.4668,1.87021 -2.21876,2.78125 -0.005,0.006 0.005,0.025 0,0.0312 -1.50986,1.82812 -3.10608,3.57483 -4.78124,5.25 -0.84542,0.84592 -1.70858,1.66417 -2.59376,2.46875 -0.87961,0.79953 -1.77017,1.5866 -2.6875,2.34375 -3.66903,3.02832 -7.63378,5.71218 -11.84374,8 -2.1051,1.14403 -4.2784,2.18482 -6.5,3.125 -2.2216,0.94018 -4.48695,1.77623 -6.8125,2.5 -1.16283,0.36193 -2.34477,0.6945 -3.53126,1 -4.74579,1.22187 -9.68779,1.99315 -14.75,2.25 -1.26555,0.0642 -2.53106,0.0937 -3.8125,0.0937 -1.28144,0 -2.54694,-0.0295 -3.8125,-0.0937 -5.0622,-0.25708 -10.0042,-1.0271 -14.75,-2.25 -1.18648,-0.3055 -2.36842,-0.63807 -3.53124,-1 -2.32556,-0.72436 -4.59101,-1.55919 -6.8125,-2.5 -3.33241,-1.41027 -6.53051,-3.07559 -9.59376,-4.9375 -2.04203,-1.24203 -4.03068,-2.57278 -5.9375,-4 -3.82017,-2.85752 -7.32895,-6.06845 -10.53124,-9.59375 -0.79947,-0.88004 -1.58668,-1.76976 -2.34376,-2.6875 -3.02859,-3.66931 -5.71194,-7.63355 -8,-11.84375 -1.14402,-2.1051 -2.18482,-4.24714 -3.125,-6.46875 -0.004,-0.009 0.004,-0.0224 0,-0.0312 -0.46627,-1.10224 -0.92991,-2.21517 -1.34374,-3.34375 -0.003,-0.009 0.003,-0.022 0,-0.0312 -0.41675,-1.13788 -0.79438,-2.27443 -1.15626,-3.4375 -1.81256,-5.82354 -2.93096,-11.94249 -3.25,-18.28125 -0.0642,-1.26561 -0.0937,-2.53107 -0.0937,-3.8125 0,-2.57346 0.11916,-5.08747 0.375,-7.59375 0.12581,-1.23779 0.28284,-2.46839 0.46874,-3.6875 0.002,-0.0102 -0.002,-0.0211 0,-0.0312 0.1864,-1.21894 0.4113,-2.42627 0.65626,-3.625 0.002,-0.01 -0.002,-0.0213 0,-0.0312 0.24545,-1.1986 0.54126,-2.38564 0.84374,-3.5625 0.002,-0.01 -0.002,-0.0215 0,-0.0312 0.30296,-1.17673 0.64153,-2.34655 1,-3.5 0.003,-0.009 -0.003,-0.0218 0,-0.0312 0.36188,-1.16278 0.73951,-2.29996 1.15626,-3.4375 1.25351,-3.42136 2.74727,-6.7101 4.46874,-9.875 0.57196,-1.05249 1.16069,-2.07273 1.78126,-3.09375 0.62508,-1.02839 1.26468,-2.03637 1.9375,-3.03125 0.66286,-0.98093 1.35478,-1.92816 2.0625,-2.875 0.005,-0.007 -0.005,-0.0247 0,-0.0312 0.70825,-0.94688 1.46715,-1.87002 2.21874,-2.78125 0.005,-0.006 -0.005,-0.0252 0,-0.0312 0.75708,-0.91726 1.54429,-1.80795 2.34376,-2.6875 0.79947,-0.87955 1.59714,-1.72214 2.4375,-2.5625 0.84541,-0.84592 1.70857,-1.66417 2.59374,-2.46875 0.87962,-0.79953 1.77018,-1.5866 2.6875,-2.34375 3.66904,-3.02832 7.63379,-5.71218 11.84376,-8 2.10509,-1.14403 4.27839,-2.18482 6.5,-3.125 2.22161,-0.94018 4.48694,-1.77623 6.8125,-2.5 1.16282,-0.36193 2.34476,-0.6945 3.53124,-1 4.7458,-1.22187 9.6878,-1.99315 14.75,-2.25 1.26556,-0.0642 2.53107,-0.0937 3.8125,-0.0937 z"
         id="path27" />
      <path
         style="opacity:0.79393999;fill:url(#radialGradient2340)"
         inkscape:connector-curvature="0"
         d="m 401.71653,258.78571 c -82.16916,-10e-6 -148.84376,66.70585 -148.84376,148.875 0,82.16915 66.67461,148.84375 148.84376,148.84375 82.16915,0 148.875,-66.67461 148.875,-148.84375 0,-82.16914 -66.70585,-148.875 -148.875,-148.875 z m 0.0312,74.5625 c 41.00572,-10e-6 74.28126,33.30679 74.28126,74.3125 0,41.00571 -33.27554,74.28125 -74.28126,74.28125 -41.00572,0 -74.28124,-33.30679 -74.28124,-74.3125 0,-41.00571 33.27553,-74.28125 74.28124,-74.28125 z"
         id="path29" />
      <path
         style="opacity:0.58788003;fill:#696969;filter:url(#filter3340)"
         inkscape:connector-curvature="0"
         d="m 388.875,274.48438 c -60.099,0 -108.87501,48.76554 -108.875,108.85588 10e-6,60.09034 48.77602,108.89412 108.875,108.89412 60.09898,0 108.87501,-48.76555 108.875,-108.85589 l 0,-0.0382 c 0,-60.09034 -48.77599,-108.85588 -108.875,-108.85588 z m 0,24.6531 c 46.57461,1e-5 84.3743,37.73998 84.3743,84.24101 0,46.50103 -37.7997,84.20278 -84.3743,84.20278 -46.5746,0 -84.3743,-37.73998 -84.3743,-84.24101 0,-46.50103 37.7997,-84.20278 84.3743,-84.20278 z"
         transform="matrix(0.83697,0,0,0.8358,76.25582,87.23518)"
         id="path31" />
      <path
         style="fill:#c0c0c0"
         inkscape:connector-curvature="0"
         d="m 401.73215,318.62946 c -49.059,0 -88.87501,39.87045 -88.875,89 1e-5,49.12955 39.81602,89.03125 88.875,89.03125 49.05898,0 88.87501,-39.87045 88.875,-89 l 0,-0.0312 c 0,-49.12955 -39.81599,-89 -88.875,-89 z m 0,20.15625 c 38.019,1e-5 68.875,30.85601 68.875,68.875 0,38.01899 -30.85601,68.84375 -68.875,68.84375 -38.01899,0 -68.875,-30.85601 -68.875,-68.875 0,-38.01899 30.85601,-68.84375 68.875,-68.84375 z"
         id="path33" />
      <path
         style="opacity:0.88485;filter:url(#filter3390)"
         inkscape:connector-curvature="0"
         d="m 417.4375,175.3125 c -2.40761,18.12082 -17.91084,32.125 -36.6875,32.125 -17.82254,1e-5 -32.72374,-12.59753 -36.25,-29.375 -13.05912,2.8118 -25.65303,6.85014 -37.6875,11.96875 6.59543,16.77035 0.1373,36.31297 -15.9375,45.59375 -14.92546,8.61721 -33.38787,5.68118 -44.9375,-6.0625 -8.09997,7.53123 -15.63753,15.6906 -22.46875,24.40625 14.38109,11.16882 18.67245,31.53809 9.3125,47.75 -8.9272,15.46236 -27.34017,22.07308 -43.65625,16.6875 -3.91032,12.02029 -6.77907,24.51463 -8.46875,37.375 18.74222,1.82534 33.40625,17.62407 33.40625,36.84375 1e-5,18.10476 -13.01226,33.16068 -30.1875,36.375 1.27795,5.75903 2.75941,11.42917 4.5,17 3.35961,-0.88443 6.79511,-1.29527 10.1875,-1.21875 12.5076,0.28213 24.57292,6.91208 31.28125,18.53125 9.1309,15.8152 5.26366,35.5792 -8.28125,46.90625 7.55764,9.9478 15.97857,19.20846 25.15625,27.65625 6.97835,-8.45322 17.22796,-13.19945 27.78125,-13.4375 6.5516,-0.14778 13.19502,1.45486 19.28125,4.96875 16.87547,9.74303 23.17121,30.78021 14.875,48.0625 11.47456,4.75069 23.45238,8.51948 35.84375,11.1875 3.52626,-16.77746 18.42747,-29.375 36.25,-29.375 18.77665,-3e-5 34.27988,14.00417 36.6875,32.125 11.22039,-1.52949 22.16481,-3.92513 32.75,-7.15625 -5.53756,-16.37811 1.05171,-34.93305 16.59375,-43.90625 5.53294,-3.19444 11.5606,-4.78346 17.53125,-4.9375 12.00396,-0.3097 23.78515,5.25309 31.09375,15.5 10.67427,-8.07824 20.55433,-17.16218 29.5,-27.09375 -12.83087,-11.43588 -16.33532,-30.69065 -7.40625,-46.15625 6.70834,-11.61918 18.77365,-18.24913 31.28125,-18.53125 4.98942,-0.11254 10.05708,0.79237 14.875,2.78125 4.3232,-10.70375 7.78842,-21.85142 10.3125,-33.34375 -16.09754,-4.0234 -28.03125,-18.5974 -28.03125,-35.9375 3e-5,-18.44179 13.50638,-33.74143 31.15625,-36.5625 -2.44861,-18.8367 -7.39681,-36.88211 -14.5,-53.8125 -17.27746,8.27773 -38.293,1.99215 -48.03125,-14.875 -9.10417,-15.76889 -5.26652,-35.4694 8.1875,-46.8125 -8.07675,-8.69949 -16.87718,-16.73656 -26.3125,-23.96875 -11.35627,13.37287 -30.98903,17.1753 -46.71875,8.09375 -14.78347,-8.53524 -21.4615,-25.74519 -17.3125,-41.5 -11.27509,-3.57995 -22.96024,-6.23825 -34.96875,-7.875 z m -28.5625,133.75 c 1.28143,0 2.54694,0.0295 3.8125,0.0937 5.0622,0.25708 10.0042,1.0271 14.75,2.25 1.18649,0.3055 2.36843,0.63807 3.53125,1 2.32555,0.72436 4.591,1.55919 6.8125,2.5 1.1108,0.47009 2.20031,0.9754 3.28125,1.5 0.54047,0.2623 1.09201,0.53738 1.625,0.8125 0.0745,0.0382 0.1444,0.0866 0.21875,0.125 0.725,0.37479 1.4454,0.75853 2.15625,1.15625 0.78266,0.43999 1.54669,0.87827 2.3125,1.34375 2.04204,1.24203 4.03069,2.57278 5.9375,4 0.7151,0.5349 1.42909,1.09666 2.125,1.65625 0.42748,0.34454 0.86163,0.67751 1.28125,1.03125 0.56656,0.47632 1.10429,0.97606 1.65625,1.46875 1.03448,0.92341 2.05194,1.86444 3.03125,2.84375 0.63022,0.63058 1.23675,1.28479 1.84375,1.9375 l 0.0312,0.0312 c 0.28068,0.30218 0.56813,0.59944 0.84375,0.90625 0.70735,0.78739 1.38911,1.58908 2.0625,2.40625 l 0.5625,0.6875 c 0.56135,0.69675 1.11987,1.40792 1.65625,2.125 0.66839,0.89519 1.30906,1.79303 1.9375,2.71875 0.8779,1.29319 1.73386,2.61892 2.53125,3.96875 0.45439,0.76858 0.88533,1.55773 1.3125,2.34375 1.14403,2.1051 2.18482,4.24714 3.125,6.46875 0.41211,0.97313 0.81633,1.9435 1.1875,2.9375 0.0379,0.10148 0.0563,0.21081 0.0937,0.3125 0.32958,0.89463 0.6418,1.80824 0.9375,2.71875 0.0406,0.12504 0.085,0.24967 0.125,0.375 0.11505,0.36082 0.20285,0.73055 0.3125,1.09375 0.2693,0.89198 0.54495,1.78171 0.78125,2.6875 0.065,0.24927 0.125,0.49972 0.1875,0.75 0.16007,0.6401 0.29417,1.29095 0.4375,1.9375 0.17687,0.79784 0.34904,1.59902 0.5,2.40625 0.008,0.0421 0.0235,0.0828 0.0312,0.125 0.0134,0.0723 0.0181,0.14636 0.0312,0.21875 0.16988,0.93277 0.3341,1.86797 0.46875,2.8125 0.009,0.063 0.0224,0.12448 0.0312,0.1875 0.0289,0.20674 0.0353,0.41772 0.0625,0.625 0.11459,0.87239 0.2285,1.74339 0.3125,2.625 0.10428,1.09564 0.19375,2.20385 0.25,3.3125 0.0632,1.25541 0.0937,2.54148 0.0937,3.8125 0,2.56286 -0.12124,5.06624 -0.375,7.5625 -0.001,0.0103 10e-4,0.021 0,0.0312 -0.12634,1.23766 -0.28232,2.46853 -0.46875,3.6875 -0.002,0.0102 0.002,0.0211 0,0.0312 -0.18692,1.2188 -0.41078,2.42641 -0.65625,3.625 -0.002,0.01 0.002,0.0212 0,0.0312 -0.12298,0.59923 -0.26393,1.18752 -0.40625,1.78125 -0.13757,0.59506 -0.28571,1.19175 -0.4375,1.78125 -0.003,0.01 0.003,0.0215 0,0.0312 -0.30347,1.17658 -0.64104,2.34671 -1,3.5 -0.003,0.01 0.003,0.0217 0,0.0312 -0.72181,2.31581 -1.56363,4.5999 -2.5,6.8125 -0.94018,2.22161 -1.98097,4.36365 -3.125,6.46875 -0.004,0.008 0.004,0.0232 0,0.0312 -1.14045,2.09669 -2.38839,4.12509 -3.71875,6.09375 -0.005,0.007 0.005,0.024 0,0.0312 -0.66325,0.98075 -1.3544,1.92835 -2.0625,2.875 -0.005,0.007 0.005,0.0244 0,0.0312 -0.70862,0.9467 -1.46679,1.87021 -2.21875,2.78125 -0.005,0.006 0.005,0.025 0,0.0312 -3.02474,3.66229 -6.39924,7.0389 -10.0625,10.0625 -3.66903,3.02832 -7.63379,5.71218 -11.84375,8 -2.1051,1.14403 -4.27839,2.18482 -6.5,3.125 -2.22161,0.94018 -4.48695,1.77623 -6.8125,2.5 -1.16282,0.36193 -2.34476,0.6945 -3.53125,1 -4.7458,1.22187 -9.6878,1.99315 -14.75,2.25 -1.26556,0.0642 -2.53107,0.0937 -3.8125,0.0937 -1.28143,0 -2.54694,-0.0295 -3.8125,-0.0937 -5.0622,-0.25708 -10.0042,-1.0271 -14.75,-2.25 -1.18649,-0.3055 -2.36843,-0.63807 -3.53125,-1 -2.32555,-0.72436 -4.591,-1.55919 -6.8125,-2.5 -2.2215,-0.94081 -4.3949,-1.98097 -6.5,-3.125 -1.05249,-0.57237 -2.07273,-1.19148 -3.09375,-1.8125 -1.02102,-0.62102 -2.04048,-1.27116 -3.03125,-1.9375 -0.99077,-0.66634 -1.95278,-1.3493 -2.90625,-2.0625 -1.90694,-1.42641 -3.74076,-2.93218 -5.5,-4.53125 -0.87406,-0.79448 -1.7272,-1.63396 -2.5625,-2.46875 -0.84592,-0.84541 -1.66416,-1.67732 -2.46875,-2.5625 -0.005,-0.006 0.005,-0.0254 0,-0.0312 -0.79946,-0.88004 -1.58667,-1.76976 -2.34375,-2.6875 -0.75708,-0.91774 -1.50555,-1.85903 -2.21875,-2.8125 -0.7132,-0.95347 -1.39486,-1.9178 -2.0625,-2.90625 -1.3354,-1.97612 -2.57472,-4.0199 -3.71875,-6.125 -1.14403,-2.1051 -2.18482,-4.24714 -3.125,-6.46875 -0.004,-0.009 0.004,-0.0224 0,-0.0312 -0.46628,-1.10224 -0.92991,-2.21517 -1.34375,-3.34375 -0.003,-0.009 0.003,-0.022 0,-0.0312 -0.41674,-1.13788 -0.79437,-2.27443 -1.15625,-3.4375 -0.35411,-1.13771 -0.66841,-2.27781 -0.96875,-3.4375 -0.0215,-0.0831 -0.0413,-0.16683 -0.0625,-0.25 -0.26945,-1.05564 -0.52632,-2.14589 -0.75,-3.21875 -0.0561,-0.26964 -0.1031,-0.5418 -0.15625,-0.8125 -0.1496,-0.76056 -0.31137,-1.51258 -0.4375,-2.28125 -0.0631,-0.38498 -0.13034,-0.7693 -0.1875,-1.15625 -0.005,-0.0304 0.004,-0.0633 0,-0.0937 -0.14909,-1.01671 -0.26774,-2.03262 -0.375,-3.0625 -0.0185,-0.17766 -0.0452,-0.35322 -0.0625,-0.53125 -0.10206,-1.05377 -0.16146,-2.12084 -0.21875,-3.1875 -0.005,-0.0844 -0.027,-0.16551 -0.0312,-0.25 -0.0642,-1.26561 -0.0937,-2.53107 -0.0937,-3.8125 0,-1.28143 0.0295,-2.54694 0.0937,-3.8125 0.0613,-1.25301 0.15495,-2.5072 0.28125,-3.75 10e-4,-0.0103 -0.001,-0.0209 0,-0.0312 0.12581,-1.23779 0.28284,-2.46839 0.46875,-3.6875 0.002,-0.0102 -0.002,-0.0211 0,-0.0312 0.1864,-1.21894 0.41129,-2.42627 0.65625,-3.625 0.002,-0.01 -0.002,-0.0213 0,-0.0312 0.24545,-1.1986 0.54127,-2.38564 0.84375,-3.5625 0.002,-0.01 -0.003,-0.0215 0,-0.0312 0.30296,-1.17673 0.64153,-2.34655 1,-3.5 0.003,-0.009 -0.003,-0.0218 0,-0.0312 0.36188,-1.16278 0.73951,-2.29996 1.15625,-3.4375 0.31226,-0.85229 0.65771,-1.69389 1,-2.53125 0.0389,-0.095 0.0857,-0.18642 0.125,-0.28125 0.16826,-0.40679 0.32476,-0.81563 0.5,-1.21875 0.27026,-0.62099 0.55708,-1.23175 0.84375,-1.84375 0.19638,-0.41972 0.38979,-0.83459 0.59375,-1.25 0.44925,-0.914 0.92038,-1.82471 1.40625,-2.71875 0.004,-0.008 -0.004,-0.0233 0,-0.0312 0.57195,-1.05249 1.16068,-2.07273 1.78125,-3.09375 0.62508,-1.02839 1.26469,-2.03637 1.9375,-3.03125 0.66286,-0.98093 1.35478,-1.92816 2.0625,-2.875 0.005,-0.007 -0.005,-0.0247 0,-0.0312 0.70825,-0.94688 1.46715,-1.87002 2.21875,-2.78125 0.005,-0.006 -0.005,-0.0252 0,-0.0312 0.75708,-0.91726 1.54429,-1.80795 2.34375,-2.6875 2.3986,-2.63887 4.96677,-5.10355 7.71875,-7.375 3.66903,-3.02832 7.63379,-5.71218 11.84375,-8 2.1051,-1.14403 4.27839,-2.18482 6.5,-3.125 2.22161,-0.94018 4.48695,-1.77623 6.8125,-2.5 1.16282,-0.36193 2.34476,-0.6945 3.53125,-1 4.7458,-1.22187 9.6878,-1.99315 14.75,-2.25 1.26556,-0.0642 2.53107,-0.0937 3.8125,-0.0937 z"
         transform="matrix(0.58268,0.15613,-0.16297,0.6082,379.73948,291.77807)"
         id="path35" />
      <path
         style="fill:#c0c0c0"
         inkscape:connector-curvature="0"
         d="m 594.96114,464.34674 c -4.40267,10.57859 -16.09567,16.53254 -27.50617,13.4751 -10.83067,-2.90207 -17.84248,-12.9552 -17.26373,-23.68672 -8.39209,-0.42413 -16.70045,-0.0299 -24.84409,1.10935 1.28752,11.22698 -5.80728,22.0068 -17.08139,25.00805 -10.46802,2.78665 -21.21127,-1.99713 -26.32485,-10.98757 -6.14404,3.24058 -12.04819,6.95304 -17.61336,11.1173 6.92751,9.10347 6.23104,22.13412 -2.08687,30.42496 -7.93333,7.90754 -20.1952,8.91155 -29.23676,2.99427 -4.32622,6.64055 -8.09638,13.73769 -11.20941,21.24843 11.09345,4.15691 17.44183,16.10948 14.324,27.74537 -2.93696,10.96091 -13.28683,17.95719 -24.24557,17.10652 -0.15763,3.6947 -0.17717,7.36872 -0.0231,11.02481 2.18509,0.0116 4.33948,0.32228 6.38861,0.92099 7.55504,2.20744 13.81156,8.18593 16.00331,16.31268 2.98326,11.06157 -2.57298,22.3973 -12.64163,27.04933 2.979,7.25318 6.59409,14.23093 10.80091,20.83976 5.61201,-3.98142 12.61059,-5.18589 19.06238,-3.61161 4.00536,0.97734 7.78255,3.02936 10.9111,6.14776 8.67462,8.64643 9.08785,22.40781 1.24274,31.5199 6.20237,4.74457 12.86987,8.97661 19.96723,12.60958 4.86455,-9.58315 15.96352,-14.78352 26.7942,-11.88145 11.41049,3.05741 18.55996,14.0602 17.08348,25.42287 7.06669,0.90106 14.10619,1.23279 21.06292,1.00022 -0.70829,-10.81725 6.30597,-20.97776 17.20644,-23.87955 3.88055,-1.03303 7.8013,-1.01355 11.45463,-0.1346 7.34499,1.76713 13.60196,7.05327 16.38111,14.44698 7.79716,-3.15257 15.27483,-7.04335 22.32217,-11.59944 -5.94212,-9.01273 -4.94824,-21.2405 2.98676,-29.14968 5.96149,-5.94212 14.36904,-7.99138 22.01562,-6.12555 3.05031,0.7443 5.98311,2.11732 8.5883,4.10594 4.36355,-5.77628 8.27773,-11.961 11.6759,-18.50763 -9.12973,-5.05702 -14.01759,-15.82353 -11.20466,-26.3215 2.99165,-11.16494 13.68132,-18.22832 24.86469,-17.06229 1.5677,-11.80275 1.48804,-23.53344 -0.0821,-34.93999 -11.84225,2.19816 -23.59364,-5.02923 -26.77533,-16.82655 -2.97452,-11.02919 2.55342,-22.33129 12.56946,-27.00785 -3.49697,-6.58195 -7.54117,-12.8807 -12.10176,-18.79556 -9.07051,6.24699 -21.61809,5.35221 -29.70374,-2.70719 -7.59926,-7.57459 -8.86566,-19.08115 -3.78857,-27.94377 -6.27108,-4.0033 -12.94087,-7.51539 -19.97286,-10.46167 z m -39.05431,76.32347 c 0.77872,0.20866 1.54297,0.4326 2.30163,0.67755 3.03457,0.97993 5.91289,2.25083 8.5985,3.76395 0.67147,0.37816 1.33578,0.77196 1.98371,1.18042 1.29572,0.81721 2.53699,1.69152 3.73437,2.62283 0.59877,0.46547 1.17889,0.9488 1.75067,1.44241 0.28589,0.24681 0.57643,0.50316 0.8557,0.75651 0.0391,0.0352 0.0737,0.0759 0.11266,0.11129 0.37978,0.34496 0.75532,0.69459 1.12277,1.05112 0.40425,0.39381 0.79745,0.78356 1.18731,1.19007 1.03947,1.08445 2.03208,2.21393 2.95932,3.38848 0.34779,0.44027 0.69055,0.89664 1.02266,1.34874 0.2039,0.27819 0.41371,0.55047 0.61133,0.83295 0.26702,0.38063 0.51274,0.77074 0.76823,1.1589 0.47886,0.72749 0.9445,1.46289 1.38077,2.21523 0.28068,0.48439 0.54314,0.97922 0.80613,1.47322 l 0.0139,0.024 c 0.12155,0.22865 0.24801,0.45541 0.36573,0.68604 0.30212,0.59188 0.58638,1.18825 0.86303,1.79262 l 0.23031,0.50782 c 0.2281,0.51323 0.45214,1.03472 0.66177,1.5562 0.26096,0.65079 0.50464,1.29868 0.73637,1.96146 0.32372,0.92586 0.62882,1.86786 0.89441,2.81491 0.15146,0.5393 0.28532,1.08723 0.4174,1.63266 0.35374,1.46075 0.63873,2.92704 0.84969,4.42513 0.0926,0.65625 0.1808,1.30954 0.24511,1.97177 0.007,0.0676 0,0.1368 0.006,0.20446 0.0552,0.59528 0.0967,1.19924 0.12868,1.79863 0.004,0.0823 0.0111,0.165 0.0151,0.24738 0.0114,0.23718 0.005,0.47532 0.0125,0.71306 0.019,0.58387 0.0421,1.16741 0.0388,1.75426 -9.1e-4,0.16151 -0.005,0.32289 -0.008,0.4846 -0.007,0.41359 -0.0307,0.82946 -0.0484,1.24423 -0.0219,0.51183 -0.0473,1.02491 -0.0865,1.5382 -0.002,0.0268 8.2e-4,0.0539 -10e-4,0.0808 -0.004,0.046 -0.0128,0.0916 -0.0165,0.13753 -0.0481,0.59237 -0.1,1.1853 -0.17139,1.77906 -0.005,0.0396 -0.007,0.079 -0.0114,0.1186 -0.0159,0.12987 -0.0463,0.25863 -0.0634,0.38856 -0.0719,0.54682 -0.14395,1.09269 -0.23592,1.64011 -0.11436,0.68029 -0.23977,1.36579 -0.38543,2.04614 -0.16525,0.77034 -0.35531,1.55392 -0.5615,2.32341 -0.41574,1.5516 -0.89552,3.04744 -1.45467,4.5174 l -0.005,0.0189 c -0.27755,0.72873 -0.57201,1.44852 -0.88305,2.15615 l -0.005,0.0189 c -0.31131,0.70745 -0.64324,1.40211 -0.98685,2.08778 l -0.005,0.0189 c -0.17194,0.34276 -0.35302,0.67596 -0.53583,1.01225 -0.18281,0.33629 -0.36695,0.67498 -0.55482,1.00716 l -0.005,0.0189 c -0.37528,0.66291 -0.77025,1.31636 -1.17547,1.95613 l -0.005,0.0189 c -0.81431,1.2845 -1.69641,2.53025 -2.62436,3.71732 -0.92795,1.18707 -1.9117,2.31926 -2.94842,3.40743 -0.004,0.004 -0.001,0.0147 -0.005,0.0189 -1.03316,1.08367 -2.12058,2.10848 -3.2484,3.08371 -0.004,0.004 -9.2e-4,0.0154 -0.005,0.0189 -0.56215,0.48577 -1.13587,0.94692 -1.71975,1.40474 -0.004,0.003 -8.6e-4,0.0156 -0.005,0.0189 -0.5842,0.45775 -1.19475,0.89341 -1.7995,1.32253 -0.004,0.003 -9e-4,0.016 -0.005,0.0189 -2.43222,1.72468 -5.03064,3.21945 -7.74728,4.45349 -2.7209,1.23597 -5.56565,2.21523 -8.49516,2.91479 -1.46484,0.34985 -2.95438,0.62608 -4.45696,0.83353 -1.50258,0.20745 -3.01483,0.34474 -4.54547,0.40425 -0.76535,0.0298 -1.53757,0.0387 -2.30815,0.0304 -3.08221,-0.033 -6.21056,-0.37079 -9.3285,-1.03957 -0.7795,-0.1672 -1.55333,-0.35538 -2.33205,-0.56404 -0.77872,-0.20866 -1.54297,-0.4326 -2.30163,-0.67755 -3.03457,-0.97993 -5.91289,-2.25083 -8.59851,-3.76395 -0.67146,-0.37816 -1.33577,-0.77196 -1.98371,-1.18042 -1.29572,-0.81721 -2.53698,-1.69152 -3.73436,-2.62282 -1.19738,-0.9313 -2.34941,-1.91495 -3.44308,-2.95034 -0.54675,-0.51789 -1.06632,-1.05884 -1.58604,-1.60107 -0.51972,-0.54223 -1.03378,-1.10184 -1.52777,-1.66657 -0.49213,-0.56513 -0.96781,-1.13487 -1.43154,-1.72191 -0.92745,-1.17408 -1.79758,-2.3843 -2.60726,-3.63886 -0.40228,-0.62331 -0.78454,-1.27047 -1.15674,-1.91188 -0.37692,-0.64956 -0.73921,-1.28645 -1.08456,-1.95336 -0.002,-0.004 0.007,-0.0145 0.005,-0.0189 -0.34308,-0.66297 -0.67713,-1.32981 -0.98832,-2.00869 -0.31119,-0.67888 -0.61335,-1.37064 -0.89208,-2.06402 -0.27873,-0.69338 -0.53655,-1.38819 -0.78192,-2.09533 -0.49095,-1.41381 -0.91253,-2.85295 -1.26626,-4.3137 -0.35373,-1.46075 -0.63873,-2.92704 -0.84969,-4.42513 -8.4e-4,-0.006 0.006,-0.0129 0.005,-0.0189 -0.10455,-0.74323 -0.20576,-1.49251 -0.27417,-2.24316 -5.5e-4,-0.006 0.006,-0.0128 0.005,-0.0189 -0.0687,-0.75675 -0.11377,-1.50632 -0.14501,-2.26939 -0.0306,-0.74645 -0.0367,-1.48786 -0.0311,-2.23885 4e-4,-0.0538 0.002,-0.10773 0.003,-0.16154 0.008,-0.68297 0.0283,-1.38486 0.0664,-2.0708 0.01,-0.17238 0.0252,-0.34481 0.0369,-0.51735 0.0325,-0.48481 0.0562,-0.96644 0.1042,-1.45234 0.0241,-0.24335 0.0456,-0.48697 0.0736,-0.73054 0.002,-0.0191 0.013,-0.0376 0.0152,-0.0568 0.0743,-0.63981 0.16703,-1.27418 0.26891,-1.91515 0.0176,-0.11058 0.0298,-0.22121 0.0482,-0.33181 0.10892,-0.65458 0.24592,-1.31027 0.38414,-1.96537 0.0109,-0.0519 0.0104,-0.1046 0.0216,-0.15645 0.16628,-0.77668 0.35362,-1.54761 0.56149,-2.32341 0.20787,-0.7758 0.43112,-1.53715 0.67544,-2.29288 0.24049,-0.74862 0.50088,-1.49267 0.77924,-2.22451 l 0.005,-0.0189 c 0.27725,-0.72889 0.57231,-1.44835 0.88305,-2.15614 l 0.005,-0.0189 c 0.31101,-0.70762 0.64352,-1.40194 0.98685,-2.08778 l 0.005,-0.0189 c 0.34359,-0.68569 0.71592,-1.35617 1.09065,-2.0194 l 0.005,-0.0189 c 0.375,-0.66308 0.77051,-1.31618 1.17546,-1.95612 l 0.005,-0.0189 c 0.40853,-0.64505 0.82249,-1.27202 1.26027,-1.89285 0.32803,-0.46514 0.67448,-0.9184 1.01833,-1.36962 l 0.12158,-0.14992 c 0.16824,-0.21888 0.32966,-0.44092 0.50155,-0.65644 0.26497,-0.33195 0.53835,-0.65501 0.81184,-0.97885 l 0.56359,-0.66008 c 0.42128,-0.4802 0.85532,-0.95484 1.29561,-1.41699 0.004,-0.004 10e-4,-0.0148 0.005,-0.0189 0.51831,-0.54406 1.04158,-1.06586 1.58433,-1.58296 0.54668,-0.52081 1.09889,-1.02692 1.66915,-1.51967 0.56193,-0.48594 1.13607,-0.94675 1.71975,-1.40474 0.004,-0.003 0.001,-0.0158 0.005,-0.0189 0.584,-0.45792 1.19493,-0.89323 1.7995,-1.32253 0.004,-0.003 10e-4,-0.0161 0.005,-0.0189 0.60887,-0.43205 1.23174,-0.84311 1.86025,-1.24542 1.8857,-1.20705 3.84619,-2.28102 5.88703,-3.20808 2.7209,-1.23597 5.56565,-2.21523 8.49516,-2.91479 1.46484,-0.34985 2.95438,-0.62608 4.45696,-0.83352 1.50258,-0.20744 3.01483,-0.34475 4.54547,-0.40426 0.76535,-0.0298 1.53757,-0.0387 2.30815,-0.0304 3.0822,0.033 6.21056,0.37079 9.3285,1.03957 0.77949,0.1672 1.55333,0.35538 2.33205,0.56404 z"
         id="path37" />
      <path
         style="opacity:0.79393999;fill:#a9a9a9"
         inkscape:connector-curvature="0"
         d="m 571.60739,482.03694 c -57.40952,-15.38282 -116.43183,18.562 -131.75695,75.75614 -15.32512,57.19414 18.82237,116.08347 76.23186,131.4663 57.40949,15.38283 116.44575,-18.538 131.77087,-75.73213 15.32512,-57.19413 -18.83627,-116.10747 -76.24578,-131.49031 z m -15.69107,58.63581 c 0.77872,0.20866 1.54298,0.43261 2.30162,0.67755 3.03459,0.97993 5.9129,2.25083 8.59852,3.76396 0.67147,0.37815 1.33578,0.77196 1.98371,1.18041 1.29572,0.81721 2.537,1.69152 3.73437,2.62284 1.79631,1.39641 3.46964,2.92538 5.02911,4.55139 1.03945,1.08445 2.03207,2.21393 2.95931,3.38848 1.39117,1.76112 2.65992,3.61902 3.78299,5.55583 2.24548,3.87506 3.92845,8.06545 4.98908,12.44893 0.35372,1.46075 0.63873,2.92705 0.84968,4.42513 0.74059,5.25003 0.58378,10.7045 -0.58154,16.14735 -0.16525,0.77034 -0.35531,1.55392 -0.56149,2.32342 -0.41575,1.55159 -0.89554,3.04743 -1.45469,4.51739 l -0.005,0.0189 c -0.27756,0.72872 -0.57202,1.44852 -0.88306,2.15615 l -0.005,0.0189 c -0.3113,0.70744 -0.64324,1.4021 -0.98685,2.08777 l -0.005,0.0189 c -0.34389,0.68551 -0.71564,1.35634 -1.09066,2.0194 l -0.005,0.0189 c -0.37528,0.6629 -0.77023,1.31636 -1.17546,1.95613 l -0.005,0.0189 c -1.63195,2.57421 -3.50356,4.9528 -5.57278,7.12475 -0.004,0.004 -10e-4,0.0148 -0.005,0.0189 -1.03317,1.08367 -2.12059,2.10848 -3.24839,3.08372 -0.004,0.004 -9.3e-4,0.0153 -0.005,0.0189 -0.56216,0.48577 -1.13589,0.94692 -1.71976,1.40473 -0.004,0.003 -8.6e-4,0.0156 -0.005,0.0189 -0.5842,0.45776 -1.19475,0.89341 -1.7995,1.32253 -0.004,0.003 -9e-4,0.016 -0.005,0.0189 -1.2141,0.86092 -2.46747,1.65849 -3.75721,2.39989 -0.65098,0.37448 -1.30825,0.72931 -1.9767,1.07228 -0.66423,0.34082 -1.3331,0.67231 -2.01338,0.98133 -2.72091,1.23596 -5.56564,2.21522 -8.49515,2.91479 -1.46484,0.34984 -2.95438,0.62607 -4.45695,0.83353 -1.50257,0.20746 -3.01485,0.34473 -4.54549,0.40424 -0.76535,0.0298 -1.53756,0.0387 -2.30815,0.0304 -3.0822,-0.033 -6.21055,-0.3708 -9.3285,-1.03958 -0.77948,-0.16719 -1.55332,-0.35538 -2.33204,-0.56404 -0.77872,-0.20866 -1.54298,-0.4326 -2.30164,-0.67755 -3.03457,-0.97993 -5.91289,-2.25082 -8.59851,-3.76395 -0.67146,-0.37815 -1.33577,-0.77196 -1.98369,-1.18041 -1.29573,-0.81722 -2.53701,-1.69152 -3.73438,-2.62283 -1.79632,-1.39642 -3.46964,-2.92539 -5.02912,-4.55141 -1.03944,-1.08445 -2.03207,-2.21392 -2.9593,-3.38847 -1.85795,-2.35204 -3.46934,-4.86732 -4.84349,-7.52303 -0.34307,-0.66296 -0.67712,-1.3298 -0.98832,-2.00869 -1.24523,-2.71461 -2.2328,-5.55155 -2.94026,-8.47305 -0.35372,-1.46074 -0.63873,-2.92704 -0.84968,-4.42512 -8.4e-4,-0.006 0.006,-0.0129 0.005,-0.0189 -0.10455,-0.74323 -0.20577,-1.49251 -0.27416,-2.24316 -5.6e-4,-0.006 0.006,-0.0128 0.005,-0.0189 -0.0687,-0.75676 -0.11378,-1.50633 -0.14502,-2.26939 -0.15678,-3.82081 0.15619,-7.70743 0.99059,-11.59697 0.16629,-0.77667 0.35362,-1.54761 0.5615,-2.32341 0.41747,-1.55801 0.89771,-3.06062 1.45975,-4.53631 0.27725,-0.72889 0.5723,-1.44835 0.88303,-2.15614 l 0.005,-0.0189 c 0.31102,-0.70762 0.64355,-1.40193 0.98686,-2.08777 l 0.005,-0.0189 c 0.3436,-0.68568 0.71592,-1.35616 1.09065,-2.0194 l 0.005,-0.0189 c 0.375,-0.66307 0.77051,-1.31617 1.17547,-1.95612 l 0.005,-0.0189 c 0.40854,-0.64504 0.8225,-1.27201 1.26029,-1.89284 1.31676,-1.86723 2.75801,-3.61506 4.31756,-5.25083 0.51831,-0.54406 1.04158,-1.06587 1.58433,-1.58296 0.54668,-0.52082 1.09888,-1.02692 1.66914,-1.51968 0.56195,-0.48594 1.13609,-0.94674 1.71976,-1.40473 0.004,-0.003 10e-4,-0.0158 0.005,-0.0189 0.584,-0.45792 1.19493,-0.89324 1.79949,-1.32253 0.004,-0.003 10e-4,-0.0161 0.005,-0.0189 0.60887,-0.43205 1.23174,-0.84311 1.86026,-1.24541 0.62852,-0.4023 1.24994,-0.78255 1.89694,-1.15448 0.647,-0.37193 1.30826,-0.7293 1.97669,-1.07228 0.66425,-0.34082 1.33311,-0.67231 2.01339,-0.98133 2.72092,-1.23596 5.56565,-2.21523 8.49516,-2.91479 1.46484,-0.34984 2.95438,-0.62607 4.45696,-0.83352 1.50258,-0.20745 3.01484,-0.34475 4.54548,-0.40425 0.76535,-0.0298 1.53756,-0.0387 2.30813,-0.0304 3.08222,0.033 6.21056,0.37079 9.32851,1.03958 0.77949,0.16719 1.55333,0.35538 2.33205,0.56403 z"
         id="path39" />
      <path
         style="opacity:0.79393999;fill:url(#radialGradient3406)"
         inkscape:connector-curvature="0"
         d="m 567.99291,495.52637 c -49.93382,-13.37974 -101.27273,16.14831 -114.60226,65.8948 -13.32953,49.74649 16.37232,100.96907 66.30613,114.34879 49.93381,13.37972 101.28665,-16.12432 114.61618,-65.8708 13.32953,-49.74648 -16.38624,-100.99307 -66.32005,-114.37279 z m -12.07659,45.14638 c 24.91899,6.67703 39.73733,32.25979 33.08536,57.08529 -6.65197,24.8255 -32.27135,39.55273 -57.19033,32.8757 -24.91898,-6.67703 -39.73732,-32.25978 -33.08535,-57.08528 6.65197,-24.8255 32.27134,-39.55273 57.19032,-32.87571 z"
         id="path41" />
      <path
         style="opacity:0.58788003;fill:#696969;filter:url(#filter3340)"
         inkscape:connector-curvature="0"
         d="m 388.875,274.48438 c -60.099,0 -108.87501,48.76554 -108.875,108.85588 10e-6,60.09034 48.77602,108.89412 108.875,108.89412 60.09898,0 108.87501,-48.76555 108.875,-108.85589 l 0,-0.0382 c 0,-60.09034 -48.77599,-108.85588 -108.875,-108.85588 z m 0,24.6531 c 46.57461,1e-5 84.3743,37.73998 84.3743,84.24101 0,46.50103 -37.7997,84.20278 -84.3743,84.20278 -46.5746,0 -84.3743,-37.73998 -84.3743,-84.24101 0,-46.50103 37.7997,-84.20278 84.3743,-84.20278 z"
         transform="matrix(0.50862,0.13628,-0.13558,0.506,398.04098,338.67174)"
         id="path43" />
      <path
         style="fill:#c0c0c0"
         inkscape:connector-curvature="0"
         d="m 558.29451,531.75925 c -29.81292,-7.98834 -60.47674,9.66655 -68.44657,39.41034 -7.96983,29.74379 9.75331,60.38422 39.56623,68.37257 29.81292,7.98835 60.47674,-9.66654 68.44657,-39.41034 l 0.005,-0.0189 c 7.96982,-29.74379 -9.75837,-60.36528 -39.5713,-68.35364 z m -3.26976,12.20291 c 23.10397,6.1907 36.84953,29.89574 30.68207,52.91302 -6.16746,23.01728 -29.91893,36.65475 -53.02289,30.46407 -23.10396,-6.19068 -36.84954,-29.89573 -30.68207,-52.91302 6.16747,-23.01729 29.91893,-36.65476 53.02289,-30.46407 z"
         id="path45" />
    </g>
  </g>
</svg>
