<?xml version="1.0" encoding="UTF-8" standalone="no"?>
<!-- Created with Inkscape (http://www.inkscape.org/) -->

<svg
   xmlns:dc="http://purl.org/dc/elements/1.1/"
   xmlns:cc="http://creativecommons.org/ns#"
   xmlns:rdf="http://www.w3.org/1999/02/22-rdf-syntax-ns#"
   xmlns:svg="http://www.w3.org/2000/svg"
   xmlns="http://www.w3.org/2000/svg"
   xmlns:xlink="http://www.w3.org/1999/xlink"
   xmlns:sodipodi="http://sodipodi.sourceforge.net/DTD/sodipodi-0.dtd"
   xmlns:inkscape="http://www.inkscape.org/namespaces/inkscape"
   width="16"
   height="16"
   viewBox="0 0 16 16"
   id="svg3484"
   version="1.1"
   inkscape:version="0.91 r13725"
   sodipodi:docname="footprint.svg">
  <defs
     id="defs3486">
    <linearGradient
       gradientUnits="userSpaceOnUse"
       gradientTransform="matrix(0.79374069,0,0,1.2598573,671.25062,354.81222)"
       id="linearGradient79"
       x1="210.54352"
       x2="241.25816"
       xlink:href="#linearGradient80"
       y1="73.480499"
       y2="61.969898" />
    <linearGradient
       id="linearGradient80">
      <stop
         offset="0"
         stop-color="#730000"
         id="stop7" />
      <stop
         offset="1"
         stop-color="#9e4500"
         id="stop9" />
    </linearGradient>
    <linearGradient
       gradientUnits="userSpaceOnUse"
       y2="15.54371"
       y1="15.54371"
       gradientTransform="matrix(0.81130033,0,0,1.2325892,671.25062,354.81222)"
       id="linearGradient73"
       x1="289.7753"
       x2="369.25912"
       xlink:href="#linearGradient80" />
    <linearGradient
       gradientUnits="userSpaceOnUse"
       y2="124.86092"
       y1="124.86092"
       gradientTransform="matrix(0.93019699,0,0,1.0750411,671.25062,354.81222)"
       id="linearGradient495"
       x1="79.098869"
       x2="115.44296"
       xlink:href="#linearGradient80" />
    <linearGradient
       gradientUnits="userSpaceOnUse"
       gradientTransform="matrix(1.0847148,0,0,0.92190129,671.25062,354.81222)"
       id="linearGradient71"
       x1="166.88875"
       x2="185.513"
       xlink:href="#linearGradient80"
       y1="387.25781"
       y2="371.1084" />
    <linearGradient
       id="linearGradient62"
       x1="0.57005"
       x2="0.52657002"
       y1="0.10156"
       y2="1">
      <stop
         offset="0"
         stop-color="#fff"
         id="stop12" />
      <stop
         offset="1"
         stop-color="#fff"
         stop-opacity=".1451"
         id="stop14" />
    </linearGradient>
    <linearGradient
       id="linearGradient3428"
       x1="-7.3951639e-08"
       x2="1"
       xlink:href="#linearGradient80" />
    <linearGradient
       id="linearGradient3442"
       x1="0.38378"
       x2="0.57296997"
       xlink:href="#linearGradient80"
       y1="0.54685998"
       y2="0.38281" />
    <linearGradient
       gradientUnits="userSpaceOnUse"
       y2="74.833351"
       y1="74.833351"
       gradientTransform="matrix(0.89526926,0,0,1.1169824,671.25062,354.81222)"
       x2="171.80026"
       x1="120.44839"
       id="linearGradient3468"
       xlink:href="#linearGradient80"
       inkscape:collect="always" />
    <linearGradient
       gradientUnits="userSpaceOnUse"
       gradientTransform="matrix(1.094904,0,0,0.9133221,671.25062,354.81222)"
       y2="223.99582"
       x2="188.71111"
       y1="246.5574"
       x1="162.69205"
       id="linearGradient3470"
       xlink:href="#linearGradient80"
       inkscape:collect="always" />
    <linearGradient
       gradientUnits="userSpaceOnUse"
       gradientTransform="matrix(1.0221915,0,0,0.97829031,671.25062,354.81222)"
       y2="66.338654"
       x2="263.2301"
       y1="19.691221"
       x1="265.48758"
       id="linearGradient3472"
       xlink:href="#linearGradient62"
       inkscape:collect="always" />
    <linearGradient
       gradientUnits="userSpaceOnUse"
       gradientTransform="matrix(0.97429466,0,0,1.0263835,671.25062,354.81222)"
       y2="80.56646"
       x2="183.23836"
       y1="51.297565"
       x1="184.65483"
       id="linearGradient3474"
       xlink:href="#linearGradient62"
       inkscape:collect="always" />
    <linearGradient
       gradientUnits="userSpaceOnUse"
       gradientTransform="matrix(1.4883914,0,0,0.67186631,671.25062,354.81222)"
       y2="306.4024"
       x2="122.58931"
       y1="239.53819"
       x1="125.8252"
       id="linearGradient3476"
       xlink:href="#linearGradient62"
       inkscape:collect="always" />
    <linearGradient
       gradientUnits="userSpaceOnUse"
       gradientTransform="matrix(1.0588755,0,0,0.94439809,671.25062,354.81222)"
       y2="114.37755"
       x2="111.47908"
       y1="94.918991"
       x1="112.42078"
       id="linearGradient3478"
       xlink:href="#linearGradient62"
       inkscape:collect="always" />
    <linearGradient
       gradientUnits="userSpaceOnUse"
       gradientTransform="matrix(1.100187,0,0,0.90893638,671.25062,354.81222)"
       y2="165.98727"
       x2="73.700729"
       y1="152.21559"
       x1="74.36721"
       id="linearGradient3480"
       xlink:href="#linearGradient62"
       inkscape:collect="always" />
    <linearGradient
       gradientUnits="userSpaceOnUse"
       gradientTransform="matrix(1.4192734,0,0,0.70458589,671.25062,354.81222)"
       y2="493.5249"
       x2="126.57784"
       y1="451.86829"
       x1="128.59381"
       id="linearGradient3482"
       xlink:href="#linearGradient62"
       inkscape:collect="always" />
  </defs>
  <sodipodi:namedview
     id="base"
     pagecolor="#ffffff"
     bordercolor="#666666"
     borderopacity="1.0"
     inkscape:pageopacity="0.0"
     inkscape:pageshadow="2"
     inkscape:zoom="11.673195"
     inkscape:cx="10.000001"
     inkscape:cy="4.2856998"
     inkscape:document-units="px"
     inkscape:current-layer="layer1"
     showgrid="false"
     units="px"
     inkscape:window-width="1364"
     inkscape:window-height="684"
     inkscape:window-x="0"
     inkscape:window-y="27"
     inkscape:window-maximized="1" />
  <metadata
     id="metadata3489">
    <rdf:RDF>
      <cc:Work
         rdf:about="">
        <dc:format>image/svg+xml</dc:format>
        <dc:type
           rdf:resource="http://purl.org/dc/dcmitype/StillImage" />
        <dc:title></dc:title>
      </cc:Work>
    </rdf:RDF>
  </metadata>
  <g
     inkscape:label="Layer 1"
     inkscape:groupmode="layer"
     id="layer1"
     transform="translate(0,-1036.3622)">
    <g
       id="g3590"
       transform="matrix(0.04606276,-0.01786899,0.01514509,0.03821972,-39.476926,1039.1181)">
      <path
         id="path20"
         d="m 877.73953,427.77262 c 4.8877,19.28738 -0.403,38.2109 -11.8172,42.2666 -11.4142,4.0557 -24.62931,-8.2921 -29.51701,-27.57941 -4.8877,-19.28731 0.4029,-38.2107 11.81701,-42.26639 11.4141,-4.05569 24.6294,8.29185 29.5172,27.5792 z"
         style="fill:url(#linearGradient79);fill-rule:evenodd"
         inkscape:connector-curvature="0" />
      <path
         id="path22"
         d="m 969.53043,429.79736 c -4.9894,26.78526 -22.8876,45.43656 -39.9766,41.65856 -17.089,-3.778 -26.8976,-28.55462 -21.9081,-55.33983 4.9895,-26.78521 22.8874,-45.43664 39.9764,-41.6587 17.089,3.77794 26.8977,28.55456 21.9083,55.33997 z"
         style="fill:url(#linearGradient73);fill-rule:evenodd"
         inkscape:connector-curvature="0" />
      <path
         id="path24"
         d="m 822.61022,459.72072 c 5.6946,15.305 1.1154,31.0065 -10.228,35.0707 -11.3434,4.0642 -25.1554,-5.0486 -30.8499,-20.3537 -5.6947,-15.3049 -1.1155,-31.00648 10.2279,-35.07054 11.3434,-4.06406 25.1553,5.04863 30.85,20.35354 z"
         style="fill:url(#linearGradient3468);fill-rule:evenodd"
         inkscape:connector-curvature="0" />
      <path
         id="path26"
         d="m 942.08863,556.69262 c -1.4606,19.6823 -40.2525,44.2946 -79.9163,51.5726 -11.9036,4.5388 -34.91481,41.1487 -52.26071,24.2032 -10.0296,-10.3943 -19.0789,-52.6312 -18.2681,-68.3431 1.6218,-31.4237 39.7322,-54.9988 85.12201,-52.6563 45.3898,2.3425 66.9448,13.7999 65.3231,45.2236 z"
         style="fill:url(#linearGradient3470);fill-rule:evenodd"
         inkscape:connector-curvature="0" />
      <path
         id="path28"
         d="m 965.04113,400.0905 c -2.5436,13.65533 -16.3041,22.13891 -30.7347,18.9487 -14.4306,-3.19021 -24.0671,-16.84634 -21.5235,-30.50166 2.5436,-13.65532 16.3039,-22.13892 30.7348,-18.94866 14.4309,3.19026 24.067,16.84639 21.5234,30.50162 z"
         style="fill:url(#linearGradient3472);fill-rule:evenodd"
         inkscape:connector-curvature="0" />
      <path
         id="path30"
         d="m 864.28823,415.33051 c 2.211,8.7253 -2.8702,18.24108 -11.3491,21.25392 -8.4789,3.01284 -17.14531,-1.61804 -19.35641,-10.34339 -2.2111,-8.72535 2.87,-18.24094 11.34911,-21.25381 8.4791,-3.01287 17.1451,1.61803 19.3564,10.34328 z"
         style="fill:url(#linearGradient3474);fill-rule:evenodd"
         inkscape:connector-curvature="0" />
      <path
         id="path32"
         d="m 906.13703,529.18372 c -0.7409,14.3541 -39.2032,32.4882 -59.3765,31.4471 -20.17331,-1.0411 -52.10531,-0.2703 -51.36451,-14.6243 0.7408,-14.354 46.4451,-36.3403 66.61861,-35.2992 20.1735,1.0411 44.8631,4.1224 44.1224,18.4764 z"
         style="fill:url(#linearGradient3476);fill-rule:evenodd"
         inkscape:connector-curvature="0" />
      <path
         id="path34"
         d="m 799.59502,448.69399 c 1.9415,5.21766 -1.37,11.19763 -7.3962,13.35663 -6.0262,2.159 -12.4851,-0.3205 -14.4264,-5.5381 -1.9413,-5.2176 1.3699,-11.19772 7.3961,-13.35676 6.0262,-2.15904 12.4851,0.32064 14.4265,5.53823 z"
         style="fill:url(#linearGradient3478);fill-rule:evenodd"
         inkscape:connector-curvature="0" />
      <path
         id="path36"
         d="m 776.83522,503.56612 c 4.1876,10.4253 0.8202,21.1207 -7.52124,23.8891 -8.34144,2.7684 -18.49822,-3.439 -22.68575,-13.8644 -4.18753,-10.4254 -0.82029,-21.1207 7.5212,-23.889 8.34149,-2.7683 18.49819,3.439 22.68579,13.8643 z"
         style="fill:url(#linearGradient495);fill-rule:evenodd"
         inkscape:connector-curvature="0" />
      <path
         id="path38"
         d="m 759.91082,496.05502 c 1.42764,3.5541 -1.00745,7.6275 -5.43886,9.0981 -4.43141,1.4706 -9.181,-0.2183 -10.60856,-3.7724 -1.42756,-3.5541 1.00738,-7.6275 5.43879,-9.0982 4.43141,-1.4707 9.181,0.2184 10.60863,3.7725 z"
         style="fill:url(#linearGradient3480);fill-rule:evenodd"
         inkscape:connector-curvature="0" />
      <path
         id="path40"
         d="m 918.05483,722.22512 c -0.8484,15.5823 -14.1131,24.6746 -35.9001,30.1475 -34.3282,6.741 -71.78271,-47.2438 -70.84061,-73.9258 0.9421,-26.682 27.3015,-12.9376 53.66941,-10.9486 26.3679,1.989 54.0134,28.045 53.0713,54.7269 z"
         style="fill:url(#linearGradient71);fill-rule:evenodd"
         inkscape:connector-curvature="0" />
      <path
         id="path42"
         d="m 882.04603,682.53982 c -0.4304,12.1881 -34.0279,21.9588 -52.78081,19.668 -11.7192,-0.8839 -13.3881,-12.8902 -12.9577,-25.0783 0.4304,-12.1881 24.1674,-5.5351 35.88661,-4.6511 11.7192,0.884 30.2822,-2.1266 29.8519,10.0614 z"
         style="fill:url(#linearGradient3482);fill-rule:evenodd"
         inkscape:connector-curvature="0" />
    </g>
  </g>
</svg>
