<?xml version="1.0" encoding="UTF-8" standalone="no"?>
<!-- Created with Inkscape (http://www.inkscape.org/) -->

<svg
   xmlns:dc="http://purl.org/dc/elements/1.1/"
   xmlns:cc="http://creativecommons.org/ns#"
   xmlns:rdf="http://www.w3.org/1999/02/22-rdf-syntax-ns#"
   xmlns:svg="http://www.w3.org/2000/svg"
   xmlns="http://www.w3.org/2000/svg"
   xmlns:sodipodi="http://sodipodi.sourceforge.net/DTD/sodipodi-0.dtd"
   xmlns:inkscape="http://www.inkscape.org/namespaces/inkscape"
   width="16"
   height="16"
   viewBox="0 0 16 16"
   id="svg3354"
   version="1.1"
   inkscape:version="0.91 r13725"
   sodipodi:docname="tableware.svg">
  <defs
     id="defs3356" />
  <sodipodi:namedview
     id="base"
     pagecolor="#ffffff"
     bordercolor="#666666"
     borderopacity="1.0"
     inkscape:pageopacity="0.0"
     inkscape:pageshadow="2"
     inkscape:zoom="27.148324"
     inkscape:cx="3.3749529"
     inkscape:cy="7.2839345"
     inkscape:document-units="px"
     inkscape:current-layer="layer1"
     showgrid="false"
     units="px"
     inkscape:window-width="1364"
     inkscape:window-height="684"
     inkscape:window-x="0"
     inkscape:window-y="27"
     inkscape:window-maximized="1" />
  <metadata
     id="metadata3359">
    <rdf:RDF>
      <cc:Work
         rdf:about="">
        <dc:format>image/svg+xml</dc:format>
        <dc:type
           rdf:resource="http://purl.org/dc/dcmitype/StillImage" />
        <dc:title></dc:title>
      </cc:Work>
    </rdf:RDF>
  </metadata>
  <g
     inkscape:label="Layer 1"
     inkscape:groupmode="layer"
     id="layer1"
     transform="translate(0,-1036.3622)">
    <g
       transform="matrix(0.05188355,0,0,0.04284335,2.7742513,1037.7557)"
       id="layer1-5">
      <path
         style="fill:#7f7f7f"
         inkscape:connector-curvature="0"
         id="path3642"
         d="m 85.769,131.11 c 0,16.011 -15.288,127.36 -6.6277,167.79 3.6184,16.894 22.516,14.692 25.663,0 7.9922,-37.314 -6.3152,-71.656 -6.3152,-168.67 0,-13.282 10.2,-13.625 15.72,-30.761 4.9287,-15.3 -2.0292,-97.701 -4.2711,-97.701 -2.5582,0 -1.306,71.358 -6.1556,71.358 -4.8926,0 -2.4183,-70.39 -5.5126,-71.358 -3.0943,-0.96777 -0.82481,71.358 -6.5496,71.358 -5.7826,0 -2.0242,-71.358 -5.1186,-71.358 -3.0943,0 -2.2237,71.358 -6.9437,71.358 -5.1961,0 -2.4037,-71.358 -4.7245,-71.358 -3.9445,0 -8.5644,77.496 -6.1111,93.865 2.4533,16.369 16.947,19.471 16.947,35.481 z" />
      <path
         style="fill:#d4aaff"
         inkscape:connector-curvature="0"
         id="path3686"
         d="m 162.26,127.68 c 0,97.421 -15.58,137.03 -6.6277,171.43 4.2653,16.388 22.516,14.456 25.663,0 7.2529,-33.318 -6.3152,-75.972 -6.3152,-171.43 0,-11.11 27.645,-9.2007 27.645,-47.177 0,-47.53 -17.592,-79.003 -34.358,-79.003 -15.648,0 -32.635,34.502 -32.635,79.003 0,35.661 26.629,38.02 26.629,47.177 z" />
      <path
         style="fill:#007fff"
         inkscape:connector-curvature="0"
         id="path3688"
         d="m 9.4018,166.48 c 0,79.145 -15.58,106.86 -6.6277,134.8 4.2653,13.314 22.516,11.745 25.663,0 7.253,-27.068 -6.315,-46.942 -6.315,-133.73 0,-10.617 15.195,-25.422 15.195,-52.781 0,-48.642 -6.892,-114.77 -21.909,-114.77 -14.396,0 -11.1,85.243 -11.1,131.86 0,20.024 5.0932,25.236 5.0932,34.618 z" />
      <path
         style="opacity:0.3;fill:#ffffff;fill-opacity:0.7770004"
         inkscape:connector-curvature="0"
         id="path3811"
         d="M 73.973,65.5 A 0.4696901,0.91491476 0 1 1 73.04073,65.27529 0.4696901,0.91491476 0 1 1 73.973,65.5 Z" />
    </g>
  </g>
</svg>
