<?xml version="1.0" encoding="UTF-8" standalone="no"?>
<!-- Created with Inkscape (http://www.inkscape.org/) -->

<svg
   xmlns:dc="http://purl.org/dc/elements/1.1/"
   xmlns:cc="http://creativecommons.org/ns#"
   xmlns:rdf="http://www.w3.org/1999/02/22-rdf-syntax-ns#"
   xmlns:svg="http://www.w3.org/2000/svg"
   xmlns="http://www.w3.org/2000/svg"
   xmlns:xlink="http://www.w3.org/1999/xlink"
   xmlns:sodipodi="http://sodipodi.sourceforge.net/DTD/sodipodi-0.dtd"
   xmlns:inkscape="http://www.inkscape.org/namespaces/inkscape"
   id="svg2"
   sodipodi:docname="trace.svg"
   viewBox="0 0 15.999999 15.999999"
   sodipodi:version="0.32"
   version="1.1"
   inkscape:output_extension="org.inkscape.output.svg.inkscape"
   inkscape:version="0.91 r13725"
   width="16"
   height="16">
  <defs
     id="defs4">
    <linearGradient
       id="linearGradient3336">
      <stop
         id="stop3338"
         style="stop-color:#999999"
         offset="0" />
      <stop
         id="stop3340"
         style="stop-color:#ffffff"
         offset="1" />
    </linearGradient>
    <filter
       id="filter6282"
       inkscape:collect="always"
       style="color-interpolation-filters:sRGB">
      <feGaussianBlur
         id="feGaussianBlur6284"
         stdDeviation="0.37787093"
         inkscape:collect="always" />
    </filter>
    <filter
       id="filter6292"
       inkscape:collect="always"
       style="color-interpolation-filters:sRGB">
      <feGaussianBlur
         id="feGaussianBlur6294"
         stdDeviation="0.4130884"
         inkscape:collect="always" />
    </filter>
    <filter
       id="filter6304"
       inkscape:collect="always"
       style="color-interpolation-filters:sRGB">
      <feGaussianBlur
         id="feGaussianBlur6306"
         stdDeviation="0.40030878"
         inkscape:collect="always" />
    </filter>
    <filter
       id="filter6315"
       inkscape:collect="always"
       style="color-interpolation-filters:sRGB">
      <feGaussianBlur
         id="feGaussianBlur6317"
         stdDeviation="0.71065529"
         inkscape:collect="always" />
    </filter>
    <linearGradient
       id="linearGradient6333"
       y2="61.959999"
       xlink:href="#linearGradient3336"
       gradientUnits="userSpaceOnUse"
       x2="621.77002"
       y1="61.959999"
       x1="568.81"
       inkscape:collect="always" />
    <linearGradient
       id="linearGradient6335"
       y2="64.578003"
       xlink:href="#linearGradient3336"
       gradientUnits="userSpaceOnUse"
       x2="677.89001"
       y1="64.578003"
       x1="628.71002"
       inkscape:collect="always" />
    <linearGradient
       id="linearGradient6337"
       y2="112.07"
       xlink:href="#linearGradient3336"
       gradientUnits="userSpaceOnUse"
       x2="580.63"
       y1="112.07"
       x1="528.21002"
       inkscape:collect="always" />
    <linearGradient
       id="linearGradient6339"
       y2="132.74001"
       xlink:href="#linearGradient3336"
       gradientUnits="userSpaceOnUse"
       x2="671.15997"
       y1="132.74001"
       x1="581.92999"
       inkscape:collect="always" />
    <filter
       id="filter4300"
       height="1.2002"
       width="1.1959"
       y="-0.10011"
       x="-0.097948998"
       inkscape:collect="always"
       style="color-interpolation-filters:sRGB">
      <feGaussianBlur
         id="feGaussianBlur4302"
         stdDeviation="2.1205482"
         inkscape:collect="always" />
    </filter>
    <filter
       id="filter4304"
       height="1.223"
       width="1.1979001"
       y="-0.11152"
       x="-0.098970003"
       inkscape:collect="always"
       style="color-interpolation-filters:sRGB">
      <feGaussianBlur
         id="feGaussianBlur4306"
         stdDeviation="2.1205482"
         inkscape:collect="always" />
    </filter>
    <filter
       id="filter4308"
       inkscape:collect="always"
       style="color-interpolation-filters:sRGB">
      <feGaussianBlur
         id="feGaussianBlur4310"
         stdDeviation="2.1205482"
         inkscape:collect="always" />
    </filter>
    <filter
       id="filter4312"
       height="1.2106"
       width="1.2113"
       y="-0.10529"
       x="-0.10563"
       inkscape:collect="always"
       style="color-interpolation-filters:sRGB">
      <feGaussianBlur
         id="feGaussianBlur4314"
         stdDeviation="2.1205482"
         inkscape:collect="always" />
    </filter>
  </defs>
  <sodipodi:namedview
     id="base"
     fit-margin-left="0"
     inkscape:zoom="21.042553"
     borderopacity="1.0"
     inkscape:current-layer="g6319"
     inkscape:cx="-2.8109504"
     inkscape:window-y="27"
     inkscape:window-maximized="1"
     showgrid="false"
     fit-margin-right="0"
     inkscape:guide-bbox="true"
     showguides="true"
     bordercolor="#666666"
     inkscape:window-x="0"
     guidetolerance="10"
     objecttolerance="10"
     fit-margin-bottom="0"
     inkscape:window-width="1366"
     inkscape:pageopacity="0.0"
     inkscape:pageshadow="2"
     pagecolor="#ffffff"
     gridtolerance="10000"
     inkscape:cy="5.4902866"
     inkscape:document-units="px"
     inkscape:window-height="688"
     fit-margin-top="0" />
  <g
     id="layer1"
     inkscape:label="Layer 1"
     inkscape:groupmode="layer"
     transform="translate(-421.42,-569.14001)">
    <g
       id="g6319"
       transform="translate(-100.37,409.58)">
      <g
         id="g3370"
         transform="matrix(0.10108426,0,0,0.10885629,469.03271,156.1447)">
        <path
           d="m 594.24,36.428 c -5.007,-0.3338 -19.355,3.5843 -24.374,12.904 -4.7974,8.9095 -1.0753,20.431 0,26.883 0.74536,4.4722 14.696,18.639 39.428,5.7349 4.2753,-2.2306 -1.0753,-8.6024 2.8675,-11.828 3.0641,-2.507 8.9608,-8.6024 6.8102,-14.696 -4.1204,-11.674 -9.2837,-6.8291 -16.494,-12.442 -3.8619,-3.0061 -6.3623,-6.4301 -8.2375,-6.5551 z"
           style="fill:#000000;fill-rule:evenodd;filter:url(#filter4300)"
           sodipodi:nodetypes="ccccccsc"
           inkscape:connector-curvature="0"
           id="path6047" />
        <path
           d="m 632.23,45.031 c -10.753,8.9608 -0.55657,26.602 1.0753,30.467 6.8102,16.13 29.319,15.962 36.56,7.1687 5.0181,-6.0934 8.9062,-28.233 1.7922,-32.976 -4.3012,-2.8675 -25.234,-16.488 -39.428,-4.6596 z"
           style="fill:#000000;fill-rule:evenodd;filter:url(#filter4312)"
           sodipodi:nodetypes="ccccc"
           inkscape:connector-curvature="0"
           id="path6049" />
        <path
           d="m 564.49,92.344 c -8.6597,-6.4249 -30.825,-2.509 -35.127,5.3765 -3.7643,6.9012 -2.509,11.828 -1.0753,21.148 0.70853,4.6055 13.979,14.696 24.732,15.771 7.1687,0.71687 18.639,-1.4337 24.374,-15.771 3.0733,-7.6832 -1.7922,-18.28 -12.904,-26.524 z"
           style="fill:#000000;fill-rule:evenodd;filter:url(#filter4304)"
           sodipodi:nodetypes="cccccc"
           inkscape:connector-curvature="0"
           id="path6051" />
        <path
           d="m 585.92,106.6 c -6.3784,7.8228 -5.069,32.442 -5.3225,37.764 -0.21733,4.564 6.5897,13.179 12.419,17.995 6.3648,5.2579 12.166,-1.0138 19.769,2.788 6.8946,3.4473 19.262,5.3225 29.4,5.3225 7.2577,0 15.714,-8.1104 23.064,-18.755 6.014,-8.7099 4.5621,-37.764 -5.3225,-46.635 -3.4006,-3.0518 -14.193,-1.5207 -17.742,-2.5345 -7.6173,-2.1764 -14.7,-10.645 -30.668,-6.8432 -7.1575,1.6906 -16.981,0.25346 -25.599,10.898 z"
           style="fill:#000000;fill-rule:evenodd;filter:url(#filter4308)"
           sodipodi:nodetypes="cccccccccc"
           inkscape:connector-curvature="0"
           id="path6053" />
        <path
           d="m 596.08,36.56 c -5.007,-0.3338 -19.355,3.5843 -24.374,12.904 -4.7974,8.9095 -1.0753,20.431 0,26.883 0.74536,4.4722 14.696,18.639 39.428,5.7349 4.2753,-2.2306 -1.0753,-8.6024 2.8675,-11.828 3.0641,-2.507 8.9608,-8.6024 6.8102,-14.696 -4.1204,-11.674 -9.2837,-6.8291 -16.494,-12.442 -3.8619,-3.0061 -6.3623,-6.4301 -8.2375,-6.5551 z"
           style="fill:url(#linearGradient6333);fill-rule:evenodd"
           sodipodi:nodetypes="ccccccsc"
           inkscape:connector-curvature="0"
           id="path6025" />
        <path
           d="m 634.07,45.163 c -10.753,8.9608 -0.55657,26.602 1.0753,30.467 6.8102,16.13 29.319,15.962 36.56,7.1687 5.0181,-6.0934 8.9062,-28.233 1.7922,-32.976 -4.3012,-2.8675 -25.234,-16.488 -39.428,-4.6596 z"
           style="fill:url(#linearGradient6335);fill-rule:evenodd"
           sodipodi:nodetypes="ccccc"
           inkscape:connector-curvature="0"
           id="path6027" />
        <path
           d="m 566.33,92.476 c -8.6597,-6.4249 -30.825,-2.509 -35.127,5.3765 -3.7643,6.9012 -2.509,11.828 -1.0753,21.148 0.70853,4.6055 13.979,14.696 24.732,15.771 7.1687,0.71687 18.639,-1.4337 24.374,-15.771 3.0733,-7.6832 -1.7922,-18.28 -12.904,-26.524 z"
           style="fill:url(#linearGradient6337);fill-rule:evenodd"
           sodipodi:nodetypes="cccccc"
           inkscape:connector-curvature="0"
           id="path6029" />
        <path
           d="m 587.75,106.74 c -6.3784,7.8228 -5.069,32.442 -5.3225,37.764 -0.21733,4.564 6.5897,13.179 12.419,17.995 6.3648,5.2579 12.166,-1.0138 19.769,2.788 6.8946,3.4473 19.262,5.3225 29.4,5.3225 7.2577,0 15.714,-8.1104 23.064,-18.755 6.014,-8.7099 4.5621,-37.764 -5.3225,-46.635 -3.4006,-3.0518 -14.193,-1.5207 -17.742,-2.5345 -7.6173,-2.1764 -14.7,-10.645 -30.668,-6.8432 -7.1575,1.6906 -16.981,0.25346 -25.599,10.898 z"
           style="fill:url(#linearGradient6339);fill-rule:evenodd"
           sodipodi:nodetypes="cccccccccc"
           inkscape:connector-curvature="0"
           id="path6031" />
        <path
           d="m 594.75,42.062 c -0.0942,0.0058 -0.18807,0.01622 -0.28125,0.03125 -1.5179,0.22645 -4.6139,0.7433 -7.9375,2.1875 -4.2933,1.8655 -7.9752,4.4628 -9.8125,7.875 -1.8377,3.4129 -1.8015,7.4299 -1.4062,11.531 0.39525,4.1014 1.2653,8.3732 1.9062,12.219 l 0.22,-0.031 c -0.015,-0.02733 -0.0526,-0.10694 -0.0625,-0.125 -0.0582,-0.10589 -0.0389,-0.10975 -0.0313,-0.09375 0.006,0.01232 0.11196,0.19005 0.125,0.21875 l 5.19,-0.875 c -0.0177,0.07406 -0.0313,0.18775 -0.0313,0.1875 1.9e-4,-6.27e-4 -0.43777,0.84412 -0.4375,0.84375 1.4e-4,-1.85e-4 -0.5314,0.56262 -0.53125,0.5625 1.5e-4,-1.22e-4 -0.84392,0.46881 -0.84375,0.46875 1.7e-4,-5.9e-5 -1.0002,0.15625 -1,0.15625 1.9e-4,4e-6 -0.78146,-0.12507 -0.78125,-0.125 4.2e-4,1.31e-4 -0.8755,-0.43788 -0.875,-0.4375 4.6e-4,3.43e-4 -0.23958,-0.2102 -0.34375,-0.3125 0.21705,0.42061 0.33584,0.82054 1,1.4688 1.3238,1.292 3.3151,2.6853 6,3.6875 4.8742,1.8193 12.123,2.1649 21.812,-2.1562 1.1652,-0.51545 1.8521,-1.7365 1.6875,-3 -0.13,-0.943 -0.23,-1.872 -0.07,-3.344 0.18161,-1.6819 1.4281,-4.6713 3.2812,-6.1875 1.3085,-1.0706 3.058,-2.7509 4.2812,-4.75 0.52541,-0.85869 0.86345,-1.497 1.0625,-2.2188 0.19905,-0.72178 0.11755,-1.8596 -0.0313,-2.2812 -0.89254,-2.5289 -1.5997,-3.6348 -2.2812,-4.375 0.0134,0.01456 0.0846,0.10498 -0.0313,-0.03125 -0.11585,-0.13622 -0.7573,-0.68828 -1.125,-0.84375 -0.7354,-0.31094 -0.4236,-0.13705 -0.65625,-0.21875 -1.3485,-0.47358 -2.4313,-0.5626 -4.3125,-1.2188 -1.8812,-0.65615 -4.186,-1.7231 -6.4688,-3.5 -2.2138,-1.7232 -3.859,-3.3787 -5.0938,-4.5312 -0.57163,-0.54016 -1.3396,-0.82251 -2.125,-0.78125 z"
           inkscape:connector-curvature="0"
           style="fill:#ececec;fill-rule:evenodd;filter:url(#filter6292)"
           id="path6290" />
        <path
           d="m 646.62,44.969 c -3.1843,0.27022 -6.4835,1.4133 -9.25,3.7188 -1.5997,1.3331 -2.8534,3.8691 -3.1562,5.5625 -0.41541,2.323 -0.23535,4.7552 0.40625,7.5 1.2419,5.3131 3.6723,9.5118 5,12.656 2.7137,6.4271 8.7543,9.7506 14.781,10.469 3.3344,0.3973 6.389,-0.13786 8.8438,-0.90625 1.2274,-0.38419 2.3084,-0.84996 3.25,-1.3438 0.94159,-0.49379 1.6603,-0.77721 2.7188,-2.0625 l -6.9375,-5.6875 c -2.1e-4,2.5e-4 1.9376,-1.375 1.9375,-1.375 -1.1e-4,4.1e-5 5.9688,3.6252 5.9688,3.625 -2e-5,-1.67e-4 -0.0313,1.4066 -0.0313,1.4062 7e-5,-3.74e-4 -0.0414,0.29757 -0.0625,0.375 -0.0523,0.19217 -0.0475,0.18031 -0.0625,0.21875 0.0796,-0.19654 0.19414,-0.49207 0.34375,-0.875 0.29923,-0.76586 0.72281,-1.8697 1.1562,-3.1562 0.86687,-2.5731 1.8362,-5.8873 2.1875,-9.3125 0.32758,-3.1936 0.3213,-6.0717 -0.15625,-8.5 -0.22848,-1.1618 -0.90894,-2.5958 -0.71875,-2.1875 -0.36334,-0.76926 -0.93771,-1.4195 -1.6562,-1.875 -2.0215,-1.2918 -5.7247,-3.429 -10.125,-5.25 -4.4003,-1.821 -9.3612,-3.4308 -14.438,-3 z"
           inkscape:connector-curvature="0"
           style="fill:#ececec;fill-rule:evenodd;filter:url(#filter6304)"
           id="path6301" />
        <path
           d="m 553.38,95.031 c -3.9163,0.11842 -7.9973,0.90557 -11.25,2.1562 -1.7486,0.67235 -3.0565,1.5283 -3.8438,2.0938 -0.39364,0.28274 -0.72186,0.53539 -0.625,0.46875 0.0242,-0.01666 0.0349,-0.0344 0.28125,-0.15625 0.12317,-0.06093 0.31016,-0.16076 0.71875,-0.25 0.20429,-0.04462 0.47587,-0.09003 0.875,-0.0625 0.19957,0.01376 0.43106,0.04756 0.6875,0.125 0.25644,0.07744 0.81333,0.37554 0.8125,0.375 -8.3e-4,-5.42e-4 0.71937,0.65702 0.71875,0.65625 -6.2e-4,-7.7e-4 0.33515,0.50236 0.4375,0.75 0.2047,0.49528 0.24922,0.8986 0.25,1.1875 0.002,0.57779 -0.1,0.80002 -0.15625,0.96875 -0.11255,0.33747 -0.16644,0.39889 -0.1875,0.4375 l -5.5,-3 c -1.4138,2.592 -1.8565,4.7632 -1.8438,7.0938 0.0135,2.4601 0.58308,5.5685 1.1875,9.4688 0.0414,0.25814 0.11488,0.51009 0.21875,0.75 0.004,0.009 0.44884,1.0886 1.1875,1.875 1.2053,1.2832 2.9819,2.7506 5.0938,4.1875 4.2987,2.9249 9.4272,5.2365 13.625,5.6562 2.7999,0.27999 6.3734,0.0182 9.7812,-1.6875 3.2058,-1.6046 6.6509,-4.721 9.0625,-10.75 0.85935,-2.1484 0.75909,-5.1088 -0.96875,-8.7188 -1.7694,-3.6967 -5.1352,-7.7979 -10.125,-11.5 -0.78029,-0.57892 -1.176,-0.64769 -1.8125,-0.875 -0.63649,-0.22731 -1.3827,-0.46118 -2.25,-0.65625 -1.7347,-0.39014 -3.938,-0.66744 -6.375,-0.59375 z"
           inkscape:connector-curvature="0"
           style="fill:#ececec;fill-rule:evenodd;filter:url(#filter6282)"
           id="path6275" />
        <path
           d="m 620.03,100.75 c -1.3798,0.10172 -2.9733,0.32697 -4.75,0.75 -4.6312,1.0939 -8.0785,1.0787 -11.75,1.9062 -3.521,0.79368 -7.0535,2.707 -10.438,6.6875 -0.0105,0.0103 -0.0209,0.0208 -0.0313,0.0313 -0.14925,0.13235 -0.2853,0.27887 -0.40625,0.4375 -0.61537,0.75472 -0.46484,0.71799 -0.53125,0.875 -0.0664,0.15701 -0.13079,0.31093 -0.1875,0.46875 -0.11343,0.31565 -0.23354,0.69501 -0.375,1.1562 -0.28292,0.92248 -0.61616,2.1301 -0.96875,3.5938 -0.70518,2.9273 -1.4346,6.7671 -1.6875,10.656 -0.4849,7.4552 -0.23193,14.152 -0.40625,17.812 l 6.125,0.3125 c -0.0141,0.10567 -0.009,0.16928 -0.21875,0.5625 -0.13925,0.26096 -0.37307,0.68928 -0.96875,1.0938 -0.59568,0.40447 -1.6375,0.60407 -2.375,0.4375 -1.475,-0.33315 -1.6327,-0.94651 -1.7812,-1.1562 -0.14855,-0.20974 -0.17759,-0.29218 -0.1875,-0.3125 -0.0198,-0.0406 0.0459,0.11767 0.125,0.3125 0.31633,0.77933 0.9748,2.4997 2.2188,4.2188 2.1275,2.9401 5.0405,6.0104 7.5625,8.0938 0.0913,0.0754 -0.017,-0.021 0.3125,0.28125 0.16475,0.15111 0.5611,0.50153 1.1875,0.71875 0.6264,0.21722 1.2246,0.19693 1.5312,0.15625 0.61323,-0.0814 0.62109,-0.13154 0.875,-0.1875 0.25391,-0.056 0.62847,-0.12934 1.2812,-0.21875 3.0703,-0.42055 8.2536,-1.2951 13.531,1.3438 2.8238,1.4119 6.9688,2.4551 11.844,3.3125 4.875,0.85741 10.326,1.4375 15.125,1.4375 0.90419,0 1.124,-0.15408 1.625,-0.3125 0.50105,-0.15842 1.0727,-0.37557 1.7188,-0.6875 1.2922,-0.62385 2.8773,-1.6046 4.625,-3.0938 3.4221,-2.9159 7.1261,-7.2452 10.625,-12.312 0.45137,-0.6537 0.37193,-0.69352 0.4375,-0.875 0.0656,-0.18148 0.13104,-0.37125 0.1875,-0.5625 0.11291,-0.38249 0.24369,-0.81688 0.375,-1.375 0.26262,-1.1162 0.54633,-2.6298 0.8125,-4.375 0.53234,-3.4905 0.93408,-7.9871 0.53125,-12.5 -0.36134,-4.048 -1.2666,-7.893 -2.3438,-11.094 -1.0771,-3.2008 -2.2017,-5.6477 -3.4688,-7.375 -0.53256,-0.74451 -1.3684,-1.2139 -2.2812,-1.2812 -0.20483,-0.0511 -0.5373,-0.12591 -0.9375,-0.21875 -0.80039,-0.18569 -1.9061,-0.42401 -3.1875,-0.46875 -3.6877,-0.12877 -5.6972,0.5731 -10.219,-0.71875 -4.8346,-1.3813 -7.8097,-3.2232 -11.094,-4.875 -3.2841,-1.6518 -7.0381,-3.0266 -12.062,-2.6562 z"
           inkscape:connector-curvature="0"
           style="fill:#ececec;fill-rule:evenodd;filter:url(#filter6315)"
           id="path6312" />
      </g>
    </g>
  </g>
  <metadata
     id="metadata42">
    <rdf:RDF>
      <cc:Work>
        <dc:format>image/svg+xml</dc:format>
        <dc:type
           rdf:resource="http://purl.org/dc/dcmitype/StillImage" />
        <cc:license
           rdf:resource="http://creativecommons.org/publicdomain/zero/1.0/" />
        <dc:publisher>
          <cc:Agent
             rdf:about="http://openclipart.org/">
            <dc:title>Openclipart</dc:title>
          </cc:Agent>
        </dc:publisher>
        <dc:title>Footprint #2</dc:title>
        <dc:date>2011-07-19T14:11:42</dc:date>
        <dc:description>several grayscale foot trace from different animals</dc:description>
        <dc:source>https://openclipart.org/detail/150427/trace-2-by-tatica</dc:source>
        <dc:creator>
          <cc:Agent>
            <dc:title>tatica</dc:title>
          </cc:Agent>
        </dc:creator>
        <dc:subject>
          <rdf:Bag>
            <rdf:li>animal</rdf:li>
            <rdf:li>foot</rdf:li>
            <rdf:li>huella</rdf:li>
            <rdf:li>pie</rdf:li>
            <rdf:li>trace</rdf:li>
          </rdf:Bag>
        </dc:subject>
      </cc:Work>
      <cc:License
         rdf:about="http://creativecommons.org/publicdomain/zero/1.0/">
        <cc:permits
           rdf:resource="http://creativecommons.org/ns#Reproduction" />
        <cc:permits
           rdf:resource="http://creativecommons.org/ns#Distribution" />
        <cc:permits
           rdf:resource="http://creativecommons.org/ns#DerivativeWorks" />
      </cc:License>
    </rdf:RDF>
  </metadata>
</svg>
