<?xml version="1.0" encoding="UTF-8" standalone="no"?>
<!-- Created with Inkscape (http://www.inkscape.org/) -->

<svg
   xmlns:dc="http://purl.org/dc/elements/1.1/"
   xmlns:cc="http://creativecommons.org/ns#"
   xmlns:rdf="http://www.w3.org/1999/02/22-rdf-syntax-ns#"
   xmlns:svg="http://www.w3.org/2000/svg"
   xmlns="http://www.w3.org/2000/svg"
   xmlns:sodipodi="http://sodipodi.sourceforge.net/DTD/sodipodi-0.dtd"
   xmlns:inkscape="http://www.inkscape.org/namespaces/inkscape"
   width="16"
   height="16"
   viewBox="0 0 16 16"
   id="svg3474"
   version="1.1"
   inkscape:version="0.91 r13725"
   sodipodi:docname="tree.svg">
  <defs
     id="defs3476" />
  <sodipodi:namedview
     id="base"
     pagecolor="#000000"
     bordercolor="#666666"
     borderopacity="1.0"
     inkscape:pageopacity="0"
     inkscape:pageshadow="2"
     inkscape:zoom="20.106093"
     inkscape:cx="3.606187"
     inkscape:cy="8.7194282"
     inkscape:document-units="px"
     inkscape:current-layer="g4"
     showgrid="false"
     units="px"
     inkscape:window-width="1364"
     inkscape:window-height="684"
     inkscape:window-x="0"
     inkscape:window-y="27"
     inkscape:window-maximized="1" />
  <metadata
     id="metadata3479">
    <rdf:RDF>
      <cc:Work
         rdf:about="">
        <dc:format>image/svg+xml</dc:format>
        <dc:type
           rdf:resource="http://purl.org/dc/dcmitype/StillImage" />
        <dc:title></dc:title>
      </cc:Work>
    </rdf:RDF>
  </metadata>
  <g
     inkscape:label="Layer 1"
     inkscape:groupmode="layer"
     id="layer1"
     transform="translate(0,-1036.3622)">
    <g
       transform="matrix(0.01575371,0,0,0.01610869,0.03487385,1036.4052)"
       style="fill-rule:evenodd"
       id="g4">
      <g
         id="g3702">
        <path
           d="m 532,82 3,1 q 3,1 5,1 l 1,0 2,1 q 2,1 3,2 l 1,1 1,0 5,3 q 5,3 5,4 l 1,0 1,2 q 2,1 2,2 l 6,6 q 6,6 6,7 l 0,1 1,0 0,1 1,0 0,1 q 0,1 1,1 l 5,12 q 4,11 5,13 1,2 1,5 l 0,2 1,0 0,1 0,3 q 1,2 1,11 l 0,9 q 0,0 -1,1 -1,1 -19,1 l -19,0 0,-1 -1,0 0,-20 q 0,-20 -3,-23 -2,-4 -9,-5 l -7,-2 0,-20 q 1,-20 1,-21 z"
           id="svg_1"
           inkscape:connector-curvature="0"
           style="fill:#fafbfa;stroke:#fafbfa" />
        <path
           d="m 371,582 1,0 -1,0 q -1,0 -1,7 l 0,7 1,0 0,1 -1,0 0,15 q 0,15 -3,18 -2,2 -37,3 -36,1 -39,-2 -3,-2 -4,-37 -1,-34 2,-37 2,-3 38,-4 36,-1 39,2 2,2 3,14 1,12 2,13 z"
           id="svg_2"
           inkscape:connector-curvature="0"
           style="fill:#1096c7;stroke:#1096c7" />
        <path
           d="m 945,340 0,25 0,3 q -1,2 -1,3 0,1 -3,3 -3,3 -7,4 l -5,1 -1,0 -2,0 1,-31 q 1,-30 2,-31 1,-1 8,-2 7,0 8,25 z"
           id="svg_3"
           inkscape:connector-curvature="0"
           style="fill:#1196c6;stroke:#1196c6" />
        <path
           d="m 542,82 0,-1 10,5 q 11,6 11,6 1,0 1,0 l 0,1 q 0,1 -3,0 -3,-1 -3,1 l 1,1 -1,0 q 0,-1 -5,-4 l -5,-3 -1,0 -1,-1 q -1,-1 -3,-2 l -2,-1 q 1,0 1,-2 z"
           id="svg_4"
           inkscape:connector-curvature="0"
           style="fill:#2e2e2e;stroke:#2e2e2e" />
        <path
           d="m 244,480 1,-1 0,2 6,0 6,-1 4,3 q 5,3 5,5 2,2 2,10 0,8 1,8 l 0,2 -1,0 0,11 1,1 q 0,0 -1,30 0,30 -2,32 -2,3 -4,5 -3,1 -50,1 -47,0 -51,-3 -3,-4 -3,-50 0,-46 2,-49 3,-4 43,-4 40,-2 41,-2 z"
           id="svg_5"
           inkscape:connector-curvature="0"
           style="fill:#0e365b;stroke:#0e365b" />
        <path
           d="m 298,507 -29,0 0,-1 q -1,0 -1,-8 0,-8 -2,-10 0,-2 -5,-5 l -4,-3 1,-20 q 0,-20 3,-23 2,-3 34,-2 32,1 34,4 1,3 1,33 0,30 -2,32 -2,2 -30,3 z"
           id="svg_6"
           inkscape:connector-curvature="0"
           style="fill:#fcfdfd;stroke:#fcfdfd" />
        <path
           d="m 510,79 2,0 0,1 1,0 5,1 q 6,1 6,21 l 0,20 -1,0 0,1 1,0 0,1 -64,0 0,-4 1,-1 1,-1 4,-6 q 4,-7 4,-8 0,0 1,0 l 0,-1 q 1,0 1,-1 l 3,-3 q 3,-3 5,-5 1,-2 8,-6 6,-4 12,-6 7,-2 10,-3 z"
           id="svg_7"
           inkscape:connector-curvature="0"
           style="fill:#f3f5f4;stroke:#f3f5f4" />
        <path
           d="m 442,193 1,0 1,13 q 0,14 4,17 3,3 4,4 1,1 16,1 l 15,0 0,32 q -1,33 -1,35 -2,2 -5,4 -3,3 -28,3 l -25,1 0,25 0,26 -1,0 0,-26 0,-25 -19,0 q -20,-1 -24,-2 -3,-1 -6,-5 -2,-4 -12,-4 l -10,0 10,-1 9,0 1,-45 q 0,-44 4,-48 4,-4 35,-4 31,0 31,-1 z"
           id="svg_8"
           inkscape:connector-curvature="0"
           style="fill:#b9e096;stroke:#b9e096" />
        <path
           d="m 878,453 -3,0 0,13 q 0,13 1,13 1,1 1,1 l -2,0 0,2 -1,1 0,9 q 0,10 -2,12 -2,2 -36,3 -33,1 -35,-1 -3,-2 -3,-14 -2,-11 -2,-12 l -1,0 q 0,0 1,-1 1,0 1,-13 0,-13 -2,-13 l -2,0 2,-1 q 2,0 3,-8 0,-8 3,-10 2,-2 35,-1 34,1 36,3 2,2 2,9 1,7 2,7 2,0 2,1 z"
           id="svg_9"
           inkscape:connector-curvature="0"
           style="fill:#bae096;stroke:#bae096" />
        <path
           d="m 598,173 0,-7 q 0,-7 -1,-12 l -1,-4 0,-3 q 0,-3 -2,-8 -2,-5 -7,-15 l -5,-11 0,-1 q 0,0 -1,-1 -1,-1 -9,-9 l -8,-9 0,-1 q 0,0 -1,0 l -1,0 q 0,-1 -1,-1 0,-1 -9,-5 l -10,-5 q -1,-1 -5,-1 l -4,-1 -1,-1 q 0,-1 0,-18 0,-17 4,-24 4,-6 8,-10 4,-4 64,-4 59,0 63,3 5,3 9,11 4,7 4,62 0,54 -4,60 -2,6 -7,10 -4,4 -9,5 -5,1 -35,2 -30,0 -30,-1 -1,-1 -1,-1 z"
           id="svg_10"
           inkscape:connector-curvature="0"
           style="fill:#fdfdfd;stroke:#fdfdfd" />
        <path
           d="m 564,234 0,-1 1,1 q 1,0 1,0 l 0,1 1,1 1,1 0,1 2,0 0,2 q 0,0 -1,1 -1,1 -15,15 l -14,13 -1,1 -1,1 0,1 -2,0 0,-5 -1,0 0,1 -2,0 0,-2 1,-1 0,1 1,-1 q 1,-1 -1,-2 l -1,-1 14,-12 q 13,-13 14,-14 1,0 1,0 l 0,-1 q 0,0 1,-1 1,0 1,0 z"
           id="svg_11"
           inkscape:connector-curvature="0"
           style="fill:#151515;stroke:#151515" />
        <path
           d="m 371,582 1,0 14,6 q 15,6 46,20 32,16 40,18 9,2 19,2 l 11,0 0,1 1,1 1,1 0,1 -1,0 0,1 -1,0 0,1 -3,0 -2,1 q -2,1 -5,1 -2,0 -12,1 -9,1 -20,-2 -11,-3 -48,-19 l -36,-18 -3,0 -1,-1 -1,0 0,-1 -1,0 0,-7 q 0,-7 1,-7 z"
           id="svg_12"
           inkscape:connector-curvature="0"
           style="fill:#0e0e0f;stroke:#0e0e0f" />
        <path
           d="m 536,359 1,2 1,5 q 2,6 6,10 4,5 7,6 3,2 19,2 l 15,0 1,0 1,0 0,16 0,15 -41,0 -41,-1 -1,0 0,-28 q 0,-28 16,-28 15,0 16,1 z"
           id="svg_13"
           inkscape:connector-curvature="0"
           style="fill:#fcfdfc;stroke:#fcfdfc" />
        <path
           d="m 692,359 q 41,-1 44,1 2,0 4,3 2,2 3,35 1,34 -1,38 -1,3 -2,4 -2,0 -46,1 -43,1 -46,-2 -2,-2 -3,-38 -1,-36 3,-39 3,-2 44,-3 z"
           id="svg_14"
           inkscape:connector-curvature="0"
           style="fill:#1096c7;stroke:#1096c7" />
        <path
           d="m 766,282 0,3 -2,0 q -1,1 -28,0 l -27,0 0,-27 q 0,-28 29,-28 28,0 28,24 0,25 0,28 z"
           id="svg_15"
           inkscape:connector-curvature="0"
           style="fill:#fcfdfb;stroke:#fcfdfb" />
        <path
           d="m 734,209 q 33,-1 39,2 6,3 9,7 2,5 3,38 1,32 -1,38 -2,5 -7,8 -4,4 -39,4 -36,0 -40,-3 -3,-3 -6,-7 -2,-5 -3,-36 -1,-32 2,-38 3,-6 7,-9 4,-3 36,-4 z m 32,73 0,3 -2,0 q -1,1 -28,0 l -27,0 0,-27 q 0,-28 29,-28 28,0 28,24 0,25 0,28 z"
           id="svg_16"
           inkscape:connector-curvature="0"
           style="fill:#bce098;stroke:#bce098" />
        <path
           d="m 604,450 7,0 0,1 1,0 0,1 1,1 1,1 0,8 q 0,7 -1,10 -1,2 -2,2 -1,-1 -1,-2 l -1,-2 0,-2 q -1,-3 -4,-7 l -3,-4 0,-6 1,0 0,-1 1,0 z"
           id="svg_17"
           inkscape:connector-curvature="0"
           style="fill:#1e1e1e;stroke:#1e1e1e" />
        <path
           d="m 491,308 1,0 0,2 1,0 0,1 1,0 0,1 1,0 0,1 q -1,1 -1,2 -1,1 -15,19 l -14,19 q -1,0 -1,-1 0,-1 -2,-1 l -1,-1 0,1 -1,0 0,1 -2,0 0,2 -1,0 -1,1 -1,0 0,-1 1,-1 0,-1 1,-1 1,-1 0,-2 11,-16 q 11,-16 14,-19 3,-3 3,-3 l 0,-1 q 0,0 1,-1 l 2,0 q 2,0 2,0 z"
           id="svg_18"
           inkscape:connector-curvature="0"
           style="fill:#181818;stroke:#181818" />
        <path
           d="m 532,79 1,0 4,1 q 4,0 5,1 l 0,1 q 0,2 -1,2 l -1,0 q -2,0 -5,-1 l -3,-1 0,-2 q -1,-1 0,-1 z"
           id="svg_19"
           inkscape:connector-curvature="0"
           style="fill:#333431;stroke:#333431" />
        <path
           d="m 615,316 1,18 q 0,17 1,18 1,1 1,16 l 0,14 1,0 1,1 0,1 q 0,0 -2,19 -2,19 -4,22 -3,3 -10,5 -7,4 -58,4 -52,0 -60,-4 -9,-4 -10,-6 -2,-2 -2,-36 0,-34 0,-36 2,-2 4,-5 3,-3 10,-5 8,-4 28,-4 l 20,-1 0,-5 0,-4 1,4 0,5 10,0 10,0 19,1 q 19,0 26,3 6,3 7,3 l 1,0 1,1 1,1 1,0 1,0 0,-15 q 0,-15 1,-15 z m -79,43 1,2 0,-2 0,-2 10,1 q 9,0 10,2 1,2 15,3 l 15,0 0,10 0,10 -1,0 q -1,1 -1,1 l 1,0 1,0 0,16 0,15 -41,0 -41,-1 -1,0 0,-28 q 0,-28 16,-28 15,0 16,1 z"
           id="svg_20"
           inkscape:connector-curvature="0"
           style="fill:#bbe099;stroke:#bbe099" />
        <path
           d="m 609,472 0,-2 1,2 q 0,1 1,2 l 0,1 q -1,1 -2,3 -1,2 -8,6 l -7,5 0,-3 0,-2 -1,0 -1,-1 -2,0 0,-1 7,-2 q 7,-2 9,-5 2,-2 3,-3 z m -13,12 q 0,-1 1,-1 1,0 1,1 0,1 -1,1 -1,0 -1,-1 z"
           id="svg_21"
           inkscape:connector-curvature="0"
           style="fill:#2e2e2e;stroke:#2e2e2e" />
        <path
           d="m 790,481 5,-1 1,0 q 0,1 2,12 0,12 3,14 2,2 35,1 34,-1 36,-3 2,-2 2,-12 l 0,-9 1,-1 0,-2 9,0 0,1 1,1 1,1 0,1 1,2 q 1,1 1,46 0,44 -2,47 -2,3 -50,3 -49,0 -51,-2 -1,-2 -2,-47 -1,-45 1,-48 2,-3 6,-4 z"
           id="svg_22"
           inkscape:connector-curvature="0"
           style="fill:#fcfdfd;stroke:#fcfdfd" />
        <path
           d="m 520,616 0,3 1,1 1,1 0,-1 q 0,-1 1,0 1,0 2,0 l 0,1 -1,0 q 0,1 0,1 0,0 -11,6 l -10,5 0,-2 -1,-2 0,-1 -1,0 2,-1 2,-1 7,-4 q 7,-4 7,-5 1,-1 1,-1 z"
           id="svg_23"
           inkscape:connector-curvature="0"
           style="fill:#262626;stroke:#262626" />
        <path
           d="m 669,520 q 33,0 34,2 1,1 1,32 0,31 -2,34 -2,2 -33,3 -31,1 -34,-2 -3,-3 -3,-32 0,-29 2,-33 2,-4 35,-4 z"
           id="svg_24"
           inkscape:connector-curvature="0"
           style="fill:#fdfdfc;stroke:#fdfdfc" />
        <path
           d="m 596,185 0,-1 q 0,-2 -4,-2 -3,0 -4,1 l 0,1 -1,-1 0,-1 -37,0 0,-9 1,0 0,1 19,0 q 18,0 19,-1 1,-1 1,-1 l 0,1 q 0,1 4,1 4,0 4,-1 0,0 1,1 0,1 30,1 30,-1 35,-2 5,-1 9,-5 5,-4 7,-10 4,-6 4,-60 0,-55 -4,-62 -4,-8 -9,-11 -4,-3 -63,-3 -60,0 -64,4 -4,4 -8,10 -4,7 -4,24 0,17 0,18 l 1,1 -1,0 q -1,0 0,1 l 0,2 q 0,1 -1,21 l 0,20 -1,0 0,1 -6,0 0,-1 -1,0 0,-1 1,0 0,-20 q 0,-20 -6,-21 l -5,-1 -1,0 0,-1 1,0 1,-1 4,0 q 5,-1 6,-19 2,-18 6,-26 4,-7 8,-11 5,-4 10,-6 6,-2 62,-2 57,0 63,4 6,4 10,9 5,6 7,13 2,6 1,60 -1,53 -5,61 -4,8 -8,12 -4,5 -10,7 -5,2 -38,2 -32,0 -33,2 -1,1 -1,1 z"
           id="svg_25"
           inkscape:connector-curvature="0"
           style="fill:#bde09b;stroke:#bde09b" />
        <path
           d="m 786,454 7,-1 2,0 q 2,0 2,13 0,13 -1,13 -1,1 -1,1 l -5,1 q -4,1 -6,4 -2,3 -1,48 1,45 2,47 2,2 51,2 48,0 50,-3 2,-3 2,-47 0,-45 -1,-46 l -1,-2 0,-1 -1,-1 -1,-1 0,-1 -7,0 q 0,0 -1,-1 -1,0 -1,-13 l 0,-13 9,0 q 5,1 9,3 4,2 9,6 4,5 8,12 2,7 3,56 1,48 -2,56 -3,7 -6,11 -3,5 -8,8 -5,3 -59,4 -55,1 -60,-1 -4,-2 -9,-7 -5,-5 -9,-12 -2,-7 -3,-55 -1,-47 1,-53 2,-6 6,-13 4,-6 10,-10 5,-4 12,-4 z"
           id="svg_26"
           inkscape:connector-curvature="0"
           style="fill:#3aa8d3;stroke:#3aa8d3" />
        <path
           d="m 518,487 2,0 -1,2 q 0,1 2,2 1,1 2,1 l 0,1 -1,0 q -2,1 -4,1 -2,0 -8,4 l -6,2 0,1 -1,0 0,1 -1,0 q 0,0 -2,0 l -2,0 0,-1 q 0,-1 8,-7 8,-6 9,-6 1,0 3,-1 z"
           id="svg_27"
           inkscape:connector-curvature="0"
           style="fill:#292929;stroke:#292929" />
        <path
           d="m 249,36 q 34,0 38,2 3,3 7,10 4,7 4,60 0,52 -4,58 -2,7 -5,10 -3,2 -38,3 -35,1 -39,-3 -3,-4 -6,-11 -4,-7 -4,-55 0,-47 2,-56 2,-8 7,-13 4,-5 38,-5 z m -27,72 0,-42 28,0 q 28,1 28,42 l 0,41 0,1 -28,0 q -27,0 -27,-1 -1,0 -1,-41 z"
           id="svg_28"
           inkscape:connector-curvature="0"
           style="fill:#1196c7;stroke:#1196c7" />
        <path
           d="m 246,248 -2,-4 1,0 q 1,0 2,2 1,2 2,1 1,0 2,-1 1,-2 1,-2 l 1,0 1,4 q 0,5 0,59 0,54 -4,61 -4,7 -8,12 -5,4 -10,6 -5,2 -40,3 l -35,0 -1,-1 0,-6 36,0 q 33,0 38,-2 4,-2 8,-6 4,-4 6,-11 4,-7 4,-59 0,-51 -2,-56 z"
           id="svg_30"
           inkscape:connector-curvature="0"
           style="fill:#3fa9d3;stroke:#3fa9d3" />
        <path
           d="m 352,4 4,-4 46,0 47,0 q 0,0 4,4 3,3 3,50 0,48 -3,51 -3,3 -51,3 -48,0 -51,-4 -3,-3 -3,-50 0,-46 4,-50 z"
           id="svg_31"
           inkscape:connector-curvature="0"
           style="fill:#0e95c7;stroke:#0e95c7" />
        <path
           d="m 584,483 8,0 1,1 3,0 q 2,0 0,1 -2,1 -2,3 l 0,1 q -1,1 -4,1 -4,2 -36,2 l -31,1 0,-1 q -1,0 -3,0 -2,-1 -2,-2 l 0,-1 1,0 0,-1 1,0 0,-1 -1,0 0,-1 3,0 6,-2 q 6,0 28,0 23,0 28,-1 z"
           id="svg_32"
           inkscape:connector-curvature="0"
           style="fill:#111111;stroke:#111111" />
        <path
           d="m 560,92 3,0 q 1,0 1,0 l 0,1 8,9 q 8,8 9,9 1,1 1,1 l 0,1 q 0,1 -2,1 -1,0 -2,1 l -1,1 q -1,0 -1,-1 l 0,-1 -1,0 0,-1 -1,0 0,-1 q 0,-1 -6,-7 l -6,-6 q 0,-1 -2,-2 l -1,-2 -1,-1 q 0,-2 2,-2 z"
           id="svg_33"
           inkscape:connector-curvature="0"
           style="fill:#1e1e1e;stroke:#1e1e1e" />
        <path
           d="m 862,130 q 35,0 38,2 2,3 3,46 1,42 -2,46 -3,4 -37,4 -33,0 -36,0 -3,-2 -5,-4 -1,-3 -1,-46 0,-42 2,-45 2,-3 38,-3 z"
           id="svg_34"
           inkscape:connector-curvature="0"
           style="fill:#bbe096;stroke:#bbe096" />
        <path
           d="m 298,520 -29,0 -1,-1 0,-11 1,0 0,-1 29,0 q 28,-1 30,-3 2,-2 2,-32 0,-30 -1,-33 -2,-3 -34,-4 -32,-1 -34,2 -3,3 -3,23 l -1,20 -6,1 -6,0 0,-2 1,-21 q 0,-22 4,-27 4,-5 6,-7 3,-2 39,-1 36,1 40,5 5,4 6,8 1,5 1,37 0,32 -4,37 -4,6 -7,8 -4,2 -33,2 z"
           id="svg_35"
           inkscape:connector-curvature="0"
           style="fill:#3ea9d2;stroke:#3ea9d2" />
        <path
           d="m 666,507 q 35,-1 39,1 3,2 7,7 4,5 4,38 0,33 -1,37 -1,4 -6,8 -4,4 -39,5 -36,1 -39,-1 -3,-2 -7,-8 -4,-6 -4,-38 0,-31 2,-37 2,-6 6,-9 4,-2 38,-3 z m 3,13 q 33,0 34,2 1,1 1,32 0,31 -2,34 -2,2 -33,3 -31,1 -34,-2 -3,-3 -3,-32 0,-29 2,-33 2,-4 35,-4 z"
           id="svg_36"
           inkscape:connector-curvature="0"
           style="fill:#bce099;stroke:#bce099" />
        <path
           d="m 945,292 0,-10 1,10 q 1,10 27,10 26,2 29,3 3,2 6,8 2,6 3,6 l 0,68 -2,0 0,1 -1,2 0,1 -1,0 0,1 q -1,0 -1,1 0,1 -4,3 -3,2 -40,2 -36,0 -40,-3 -4,-3 -6,-9 -2,-6 -4,-6 l -2,-1 2,0 1,-1 1,0 0,-32 q 2,-31 6,-36 4,-6 6,-6 3,-2 11,-2 l 8,0 0,-10 z m 0,48 0,25 1,0 0,-50 24,0 q 24,1 26,3 2,3 2,34 0,31 -2,33 -1,1 -31,2 -30,1 -33,0 l -2,-1 -1,0 0,-1 -1,0 0,-2 -1,-1 -1,-1 0,-1 3,0 0,-1 -3,0 1,-31 q 1,-30 2,-31 1,-1 8,-2 7,0 8,25 z"
           id="svg_37"
           inkscape:connector-curvature="0"
           style="fill:#b9df9a;stroke:#b9df9a" />
        <path
           d="m 433,511 q 34,-1 36,1 3,2 3,34 0,33 -2,36 -3,2 -36,2 -33,0 -35,-2 -3,-2 -3,-34 0,-31 1,-34 2,-2 36,-3 z"
           id="svg_38"
           inkscape:connector-curvature="0"
           style="fill:#bbe096;stroke:#bbe096" />
        <g
           id="g44"
           style="fill:#1096c7;stroke:#1096c7">
          <path
             d="m 749,101 q 22,-1 23,0 2,1 2,23 0,21 0,22 -1,2 -23,2 -22,0 -23,0 -2,-1 -2,-23 0,-22 0,-23 2,-1 23,-1 z"
             id="svg_39"
             inkscape:connector-curvature="0" />
          <path
             d="m 945,280 0,2 0,10 0,10 -8,0 q -8,0 -11,2 -2,0 -6,6 -4,5 -6,36 l 0,32 -1,0 -1,1 -2,0 -34,-1 q -35,0 -38,-4 -4,-3 -4,-49 0,-46 2,-49 2,-2 5,-4 3,-2 49,-1 47,1 51,4 3,4 4,5 z"
             id="svg_40"
             inkscape:connector-curvature="0" />
        </g>
        <path
           d="m 163,228 49,-1 2,7 q 2,8 2,9 1,1 14,1 l 14,0 q 0,0 0,1 l 1,0 2,8 q 1,8 1,55 0,48 -4,55 -2,7 -6,11 -4,4 -8,6 -5,2 -38,2 l -32,0 q 0,0 -2,-1 -2,0 -3,-11 -1,-11 -2,-16 -1,-5 -5,-10 -4,-6 -9,-9 -5,-3 -25,-5 l -20,-1 0,-37 q 0,-37 1,-40 1,-2 5,-9 4,-7 9,-11 5,-4 54,-4 z"
           id="svg_41"
           inkscape:connector-curvature="0"
           style="fill:#fcfdfd;stroke:#fcfdfd" />
        <path
           d="m 461,351 0,-1 1,1 q 2,0 2,1 0,1 1,1 l -6,14 q -5,14 -6,14 l 0,-3 q -1,-3 -1,-2 -1,2 -2,2 -1,0 -2,0 l -2,-1 0,-1 q 0,-2 5,-12 l 4,-9 q 1,0 1,-1 l 1,0 q 1,0 1,-1 l 0,-1 1,0 1,0 0,-1 1,0 z"
           id="svg_42"
           inkscape:connector-curvature="0"
           style="fill:#181818;stroke:#181818" />
        <path
           d="m 502,292 2,1 q 2,1 3,1 l 3,0 q 1,0 2,0 0,0 1,-1 l 1,0 0,1 q 0,1 -10,10 l -9,8 -1,0 0,-1 -1,0 0,-1 -1,0 0,-2 -4,0 -1,1 -1,0 0,-2 1,0 1,-1 1,0 0,-1 1,0 0,-1 6,-6 q 5,-6 6,-6 z"
           id="svg_43"
           inkscape:connector-curvature="0"
           style="fill:#151515;stroke:#151515" />
        <path
           d="m 582,113 5,11 q 5,10 7,15 2,5 2,8 l 0,3 -1,0 -1,-1 q -2,0 -2,1 0,1 -1,0 0,-1 -1,-1 l -1,0 0,-1 -1,0 0,-2 q 0,-3 -1,-5 -1,-2 -5,-13 l -5,-12 1,-1 q 1,-1 2,-1 2,0 2,-1 z"
           id="svg_44"
           inkscape:connector-curvature="0"
           style="fill:#1e1e1e;stroke:#1e1e1e" />
        <path
           d="m 532,262 1,0 1,1 q 2,1 2,3 l 0,2 1,0 q 1,1 1,2 -1,0 -1,1 l -1,0 q 0,1 0,1 0,1 -11,11 l -11,10 q -1,1 -1,1 l -1,0 q 0,0 0,1 l -1,1 -1,0 0,-2 -2,0 -1,-1 -1,0 0,2 -1,0 -1,-1 -1,0 0,-1 -1,0 0,-2 1,0 0,-1 1,0 0,-1 1,0 0,-1 13,-12 q 14,-14 14,-14 z m 1,6 q 0,0 0,-1 1,0 1,1 0,0 -1,0 z"
           id="svg_45"
           inkscape:connector-curvature="0"
           style="fill:#0f0f0f;stroke:#0f0f0f" />
        <path
           d="m 488,23 q 20,-1 23,1 3,1 3,22 0,21 0,22 -1,2 -24,2 -23,0 -24,-4 -2,-4 -1,-22 1,-18 2,-19 1,-1 21,-2 z"
           id="svg_46"
           inkscape:connector-curvature="0"
           style="fill:#bbe096;stroke:#bbe096" />
        <path
           d="m 96,359 3,7 q 3,6 8,10 5,4 8,4 3,2 5,2 l 10,0 0,7 -9,0 q -6,-1 -13,-3 -6,-4 -10,-8 -4,-6 -7,-13 l -3,-7 0,-1 q 0,-1 4,-1 3,0 3,2 1,1 1,1 z"
           id="svg_47"
           inkscape:connector-curvature="0"
           style="fill:#44abd2;stroke:#44abd2" />
        <path
           d="m 589,152 0,-3 1,0 q 1,0 1,1 1,1 1,0 0,-1 2,-1 l 1,1 1,0 1,4 q 1,5 1,12 l 0,7 q 0,1 -4,1 -4,0 -4,-1 l 0,-1 0,-9 q 0,-9 -1,-11 z"
           id="svg_48"
           inkscape:connector-curvature="0"
           style="fill:#1a1b1a;stroke:#1a1b1a" />
        <path
           d="m 222,108 0,-42 28,0 q 28,1 28,42 l 0,41 0,1 -28,0 q -27,0 -27,-1 -1,0 -1,-41 z"
           id="svg_49"
           inkscape:connector-curvature="0"
           style="fill:#fafcfc;stroke:#fafcfc" />
        <path
           d="m 628,377 0,1 -1,0 0,1 -1,0 0,1 -1,0 -1,1 -1,1 -2,0 0,1 -1,0 -1,-1 -1,0 0,-14 q 0,-15 -1,-16 -1,-1 -1,-18 l -1,-18 0,-4 q -1,-3 -1,-4 0,-1 -28,-1 l -28,-1 0,1 -1,15 0,15 -20,0 0,-5 -1,-4 1,-13 q 1,-13 4,-19 3,-6 7,-8 4,-2 39,-2 35,0 40,5 5,5 6,11 1,6 1,36 0,30 -3,34 -3,5 -3,5 z"
           id="svg_50"
           inkscape:connector-curvature="0"
           style="fill:#3ca9d3;stroke:#3ca9d3" />
        <path
           d="m 932,387 -2,-1 -1,0 0,-1 -1,0 0,-2 -1,-1 -1,-1 0,-1 3,0 0,-1 5,-1 q 4,-1 7,-4 3,-2 3,-3 0,-1 1,-3 l 0,-3 1,0 0,-50 24,0 q 24,1 26,3 2,3 2,34 0,31 -2,33 -1,1 -31,2 -30,1 -33,0 z"
           id="svg_51"
           inkscape:connector-curvature="0"
           style="fill:#fcfdfc;stroke:#fcfdfc" />
        <path
           d="m 96,358 0,-2 15,1 q 15,1 17,4 2,3 2,11 l 0,9 -4,0 -4,1 -2,0 q -2,0 -5,-2 -3,0 -8,-4 -5,-4 -8,-10 l -3,-7 0,-1 z"
           id="svg_52"
           inkscape:connector-curvature="0"
           style="fill:#f9fcfa;stroke:#f9fcfa" />
        <path
           d="m 88,357 0,1 3,7 q 3,7 7,13 4,4 10,8 7,2 13,3 l 6,0 q 0,1 1,1 2,0 2,30 0,30 -2,34 -2,4 -50,4 -47,0 -49,-2 -3,-2 -3,-48 0,-45 1,-48 1,-3 31,-4 29,0 30,1 z"
           id="svg_53"
           inkscape:connector-curvature="0"
           style="fill:#fdfefd;stroke:#fdfefd" />
        <path
           d="m 558,307 0,-1 28,1 q 28,0 28,1 0,1 1,4 l 0,4 q -1,0 -1,15 l 0,15 -1,0 -1,0 -1,-1 -1,-1 -1,0 q -1,0 -7,-3 -7,-3 -26,-3 l -19,-1 0,-15 1,-15 z"
           id="svg_54"
           inkscape:connector-curvature="0"
           style="fill:#fafcfc;stroke:#fafcfc" />
        <path
           d="m 86,298 0,-32 1,0 0,32 1,31 0,1 1,0 0,-1 1,0 0,1 2,0 1,-1 1,0 20,1 q 20,2 25,5 5,3 9,9 4,5 5,10 1,5 2,16 1,11 3,11 2,1 2,1 l -4,0 0,6 1,1 1,0 -1,1 q -1,0 -2,35 -1,35 -5,42 -4,7 -10,12 -6,5 -62,5 -56,0 -62,-4 -5,-4 -9,-9 -3,-6 -4,-7 l -1,-2 0,-2 -1,-2 -1,-3 0,-100 2,0 0,-4 1,-1 1,-1 0,-1 q 0,-1 2,-4 2,-2 8,-7 5,-5 10,-6 6,-1 34,-2 l 28,0 0,-31 z m 2,59 0,1 0,-1 q 0,-1 4,-1 3,0 3,2 1,1 1,1 l 0,-3 15,1 q 15,1 17,4 2,3 2,11 l 0,9 -4,0 -4,1 8,0 0,7 -3,0 q 0,1 1,1 2,0 2,30 0,30 -2,34 -2,4 -50,4 -47,0 -49,-2 -3,-2 -3,-48 0,-45 1,-48 1,-3 31,-4 29,0 30,1 z"
           id="svg_55"
           inkscape:connector-curvature="0"
           style="fill:#405629;stroke:#405629" />
        <path
           d="m 596,184 0,3 q 0,2 -4,13 -4,11 -12,24 l -8,14 -1,0 0,1 -1,0 0,-1 -2,0 0,-1 -1,-1 -1,-1 0,-1 -2,0 0,1 -1,0 0,1 -2,0 0,-1 1,-1 0,-1 1,0 0,-1 5,-6 q 6,-6 10,-16 6,-10 7,-14 1,-4 2,-6 l 1,-3 0,-4 q 1,-1 4,-1 4,0 4,2 z"
           id="svg_56"
           inkscape:connector-curvature="0"
           style="fill:#191918;stroke:#191918" />
        <path
           d="m 472,102 q 0,1 -1,1 l 0,1 q -1,0 -1,0 0,1 -4,8 l -4,6 -1,1 -1,1 0,2 0,2 32,0 32,0 3,0 3,0 0,-1 1,0 7,2 q 7,1 9,5 3,3 3,23 l 0,20 0,5 0,4 0,18 q 0,18 -1,20 -1,1 -3,4 -3,2 -33,3 l -30,1 -15,0 q -15,0 -16,-1 -1,-1 -4,-4 -4,-3 -4,-17 l -1,-13 0,-29 q 1,-30 2,-33 1,-3 6,-5 4,-2 9,-11 l 6,-8 2,-3 q 2,-2 3,-2 1,0 1,0 z"
           id="svg_57"
           inkscape:connector-curvature="0"
           style="fill:#0e95c6;stroke:#0e95c6" />
        <path
           d="m 166,220 47,0 -1,2 q 0,1 0,2 0,2 0,2 l 0,1 -49,1 q -49,0 -54,4 -5,4 -9,11 -4,7 -5,9 -1,3 -1,40 l 0,37 -1,0 -1,1 -1,0 -1,0 0,-1 -1,0 0,1 -1,0 0,-1 -1,-31 0,-32 1,-8 q 0,-7 4,-14 2,-8 8,-14 6,-6 9,-7 3,-1 7,-2 3,-1 50,-1 z"
           id="svg_58"
           inkscape:connector-curvature="0"
           style="fill:#42aad2;stroke:#42aad2" />
        <path
           d="m 256,244 -3,0 -1,0 q 0,0 -1,2 -1,2 -3,0 l -3,-1 0,-1 q -1,0 -1,0 l -14,0 q -13,0 -14,-1 0,-1 -2,-9 l -2,-7 0,-1 q 0,0 0,-2 0,-1 0,-2 l 1,-2 0,-10 q 1,-9 2,-11 1,-3 23,-3 23,0 24,2 0,1 0,22 0,22 -1,23 -1,1 -5,1 z"
           id="svg_59"
           inkscape:connector-curvature="0"
           style="fill:#1297c7;stroke:#1297c7" />
        <path
           d="m 537,359 0,-2 10,1 q 9,0 10,2 1,2 15,3 l 15,0 0,10 0,10 -1,0 q -1,1 -1,1 l -15,0 q -16,0 -19,-2 -3,-1 -7,-6 -4,-4 -6,-10 l -1,-5 0,-2 z"
           id="svg_60"
           inkscape:connector-curvature="0"
           style="fill:#3ca9d2;stroke:#3ca9d2" />
        <path
           d="m 453,378 0,3 -2,9 q -1,9 -1,24 0,14 4,26 4,11 11,23 7,13 19,25 11,14 11,14 1,0 1,0 l 1,0 q 1,0 1,0 1,0 1,-1 l 1,0 q 2,1 2,1 l 0,1 -1,1 -1,1 0,2 1,0 0,1 1,0 7,7 q 7,6 8,7 0,1 4,4 3,4 14,14 11,11 21,25 12,14 19,27 7,14 11,25 4,11 6,25 2,14 0,28 -2,14 -10,32 -8,18 -17,33 -10,15 -29,41 -20,25 -30,43 -10,18 -16,35 -6,16 -8,26 -2,10 -2,34 0,25 4,45 4,20 5,23 l 1,2 0,4 -94,0 0,-8 q 0,-9 0,-19 0,-10 1,-25 1,-14 7,-34 4,-20 13,-40 9,-20 20,-40 11,-19 25,-37 14,-19 30,-42 16,-24 25,-42 9,-18 13,-33 4,-15 4,-34 l 0,-18 -3,0 0,1 -1,0 0,1 -1,0 -1,1 q -1,1 -2,1 l -1,1 -1,0 -1,-1 -1,0 0,1 -1,-1 -1,-1 0,-4 1,0 0,-1 1,0 0,-1 q 0,-1 4,-7 4,-5 1,-14 -3,-8 -12,-26 -9,-18 -32,-48 -23,-29 -30,-44 -7,-15 -11,-27 -2,-12 -2,-28 0,-16 2,-29 l 4,-13 1,1 q 1,1 2,0 0,-2 2,-2 1,-1 2,2 z"
           id="svg_61"
           inkscape:connector-curvature="0"
           style="fill:#030303;stroke:#030303" />
        <path
           d="m 348,293 4,-1 10,0 q 10,0 12,4 3,4 6,5 4,1 24,2 l 19,0 0,25 0,26 0,6 q -1,7 -3,10 -3,2 -37,3 -34,1 -38,-2 -3,-2 -4,-37 -1,-36 2,-38 2,-2 5,-3 z"
           id="svg_62"
           inkscape:connector-curvature="0"
           style="fill:#564a3e;stroke:#564a3e" />
      </g>
    </g>
  </g>
</svg>
