/* XPM */
const char * imgIcon_xpm[] = {
"16 16 4 1",		       
"       c None",
".      c #000000",
"#      c #5aff39",
",      c #1cffff",
"                ",
"       .        ",
"      . .       ",
"     .   .      ",
" .............. ",
" .............. ",
" ..,,,,,,,,,,.. ",
" ..,,,,,,,,,,.. ",
" ..,,,,,,,,,,.. ",
" ..,###,,,,##.. ",
" ..##########.. ",
" ..##########.. ",
" .............. ",
" .............. ",
"                ",
"                "};
