/* XPM */
const char * previewIcon_xpm[] = {
  "32 32 3 1",
  "        c None",
  ".       c #FFCC00",
  "-       c #FFFFFF",
  "                                ",
  "               ..               ",
  "              ....              ",
  "             ......             ",
  "            ........            ",
  "           ..........           ",
  "          .....--.....          ",
  "         .....----.....         ",
  "        .....--..--.....        ",
  "       .....--....--.....       ",
  "      .....--..--..--.....      ",
  "     .....--..----..--.....     ",
  "    .....--..--..--..--.....    ",
  "   .....--...--..--...--.....   ",
  "  .....--........--....--.....  ",
  " .....--........--......--..... ",
  " .....--.......--.......--..... ",
  "  .....--......--......--.....  ",
  "   .....--............--.....   ",
  "    .....--....--....--.....    ",
  "     .....--...--...--.....     ",
  "      .....--......--.....      ",
  "       .....--....--.....       ",
  "        .....--..--.....        ",
  "         .....----.....         ",
  "          .....--.....          ",
  "           ..........           ",
  "            ........            ",
  "             ......             ",
  "              ....              ",
  "               ..               ",
  "                                "};
