/* XPM */
const char * sysTrayIcon_xpm[] = {
"22 20 220 2",
"  	c None",
". 	c #E6FF50",
"+ 	c #DFFF4D",
"@ 	c #E0FF4C",
"# 	c #DDFF4C",
"$ 	c #D7FF4A",
"% 	c #C9F844",
"& 	c #F8FF55",
"* 	c #EDFF52",
"= 	c #E0FE4D",
"- 	c #D0F848",
"; 	c #CAF645",
"> 	c #C9F545",
", 	c #C6F644",
"' 	c #C0EE42",
") 	c #BAE73F",
"! 	c #ACD73B",
"~ 	c #9FC636",
"{ 	c #F5FF53",
"] 	c #E7FF4F",
"^ 	c #D1F848",
"/ 	c #C1F042",
"( 	c #B9E640",
"_ 	c #B7E43F",
": 	c #B6E33F",
"< 	c #B6E33E",
"[ 	c #B6E23F",
"} 	c #B6E23E",
"| 	c #ABD53A",
"1 	c #9BC235",
"2 	c #95BA33",
"3 	c #F1FF53",
"4 	c #E3FF4E",
"5 	c #CAF546",
"6 	c #B3DF3D",
"7 	c #B2DE3D",
"8 	c #B2DD3D",
"9 	c #B1DD3D",
"0 	c #AED93C",
"a 	c #A4CC39",
"b 	c #96BB34",
"c 	c #8DAF30",
"d 	c #EEFF51",
"e 	c #E0FF4E",
"f 	c #C7F345",
"g 	c #AFDB3C",
"h 	c #AFDA3C",
"i 	c #CBE77F",
"j 	c #EEF7D5",
"k 	c #C3E36D",
"l 	c #AEDA3C",
"m 	c #AFD93C",
"n 	c #9BC135",
"o 	c #82A32C",
"p 	c #7C9B2A",
"q 	c #E1FF4C",
"r 	c #C7F344",
"s 	c #B3DF3E",
"t 	c #ADD73B",
"u 	c #ADD63B",
"v 	c #D1E891",
"w 	c #FFFFFF",
"x 	c #C7E47A",
"y 	c #ACD63B",
"z 	c #ABD53B",
"A 	c #ABD63B",
"B 	c #A1C938",
"C 	c #83A42D",
"D 	c #6D8825",
"E 	c #CFF748",
"F 	c #B6E13F",
"G 	c #AAD33A",
"H 	c #A9D33A",
"I 	c #CFE691",
"J 	c #C5E179",
"K 	c #A9D33B",
"L 	c #A9D23A",
"M 	c #A5CE38",
"N 	c #8DAF31",
"O 	c #647C22",
"P 	c #CFFD48",
"Q 	c #BEED41",
"R 	c #A7D03A",
"S 	c #A7D039",
"T 	c #CEE590",
"U 	c #C3DF79",
"V 	c #A6D039",
"W 	c #A6CF39",
"X 	c #A4CC38",
"Y 	c #8EB031",
"Z 	c #59701F",
"` 	c #6D8826",
" .	c #C8F845",
"..	c #A7D13A",
"+.	c #A4CD39",
"@.	c #A5CE39",
"#.	c #A5CD39",
"$.	c #A5CD38",
"%.	c #A4CE39",
"&.	c #CCE390",
"*.	c #C2DD78",
"=.	c #A4CD38",
"-.	c #A2C937",
";.	c #8BAE30",
">.	c #54691D",
",.	c #637D22",
"'.	c #C3F243",
").	c #A2CA37",
"!.	c #A1CA37",
"~.	c #A2CA38",
"{.	c #CBE18F",
"].	c #C0DA77",
"^.	c #A1C937",
"/.	c #9FC637",
"(.	c #88AA2F",
"_.	c #52671C",
":.	c #617921",
"<.	c #BBE841",
"[.	c #AED83D",
"}.	c #9FC736",
"|.	c #9FC737",
"1.	c #C9DF8F",
"2.	c #BED977",
"3.	c #9EC637",
"4.	c #9AC035",
"5.	c #7F9E2B",
"6.	c #4A5D1A",
"7.	c #5B721F",
"8.	c #AAD43B",
"9.	c #9CC436",
"0.	c #9CC336",
"a.	c #9CC335",
"b.	c #9CC435",
"c.	c #C8DE8E",
"d.	c #BCD776",
"e.	c #9DC435",
"f.	c #9AC235",
"g.	c #90B432",
"h.	c #688324",
"i.	c #394814",
"j.	c #51651C",
"k.	c #9EC537",
"l.	c #99BF35",
"m.	c #9AC135",
"n.	c #C6DC8E",
"o.	c #BAD476",
"p.	c #99C135",
"q.	c #98BE35",
"r.	c #93B733",
"s.	c #7A992A",
"t.	c #303C10",
"u.	c #8FB332",
"v.	c #94BA34",
"w.	c #96BC34",
"x.	c #97BC34",
"y.	c #97BD34",
"z.	c #97BD35",
"A.	c #BAD47A",
"B.	c #E8F0D3",
"C.	c #B1CD67",
"D.	c #98BD34",
"E.	c #96BD34",
"F.	c #7B9B2B",
"G.	c #556A1D",
"H.	c #323E11",
"I.	c #354212",
"J.	c #82A32D",
"K.	c #81A12D",
"L.	c #8AAC30",
"M.	c #91B633",
"N.	c #94B834",
"O.	c #93B934",
"P.	c #94B934",
"Q.	c #94BA33",
"R.	c #94B933",
"S.	c #92B733",
"T.	c #8DB131",
"U.	c #79982B",
"V.	c #546A1D",
"W.	c #334011",
"X.	c #313D10",
"Y.	c #7A982A",
"Z.	c #7B9A2B",
"`.	c #89AB30",
" +	c #8EB232",
".+	c #8FB432",
"++	c #8DB031",
"@+	c #85A72E",
"#+	c #739028",
"$+	c #51661C",
"%+	c #323F11",
"&+	c #303C11",
"*+	c #405016",
"=+	c #728E27",
"-+	c #6C8725",
";+	c #6E8926",
">+	c #779529",
",+	c #7A992B",
"'+	c #7A982B",
")+	c #79972A",
"!+	c #728F28",
"~+	c #5E7621",
"{+	c #455517",
"]+	c #303B10",
"^+	c #3E4E16",
"/+	c #657D23",
"(+	c #5B7120",
"_+	c #4D601B",
":+	c #495C1A",
"<+	c #495B19",
"[+	c #485A19",
"}+	c #425217",
"|+	c #334111",
"1+	c #2C380F",
"2+	c #313C10",
"3+	c #5A711F",
"4+	c #53691D",
"5+	c #51671D",
"6+	c #4E621B",
"7+	c #465819",
"                                            ",
"                . + @ + # $ %               ",
"          & * = - ; ; > > , ' ) ! ~         ",
"        { ] ^ / ( _ : < [ : } } | 1 2       ",
"      3 4 5 ( 6 7 8 8 8 9 9 8 8 0 a b c     ",
"    d e f } g h h h i j k h l m 0 | n o p   ",
"    q r s t ! t u ! v w x y ! z A A B C D   ",
"    E F z G H H H G I w J K H H H L M N O   ",
"  P Q A R R S S S S T w U S V S R W X Y Z ` ",
"   ._ ..+.@.#.#.$.%.&.w *.#.=.+.+.=.-.;.>.,.",
"  '.s =.).!.~.).).!.{.w ].).!.).!.^./.(._.:.",
"  <.[.B }.|.|.}.|.|.1.w 2.}.|.}.|.3.4.5.6.7.",
"  8.@./.9.0.a.b.9.9.c.w d.9.e.9.9.f.g.h.i.j.",
"    k.9.4.l.l.m.4.4.n.w o.p.m.4.q.r.s.6.t.  ",
"    u.g.v.w.x.w.y.z.A.B.C.D.E.b g.F.G.H.I.  ",
"    J.K.L.M.N.O.O.P.P.2 Q.R.S.T.U.V.W.X.    ",
"      Y.Z.J.`. +u..+g.g.u.++@+#+$+%+&+*+    ",
"        =+-+;+>+,+,+'+'+)+!+~+{+]+&+^+      ",
"          /+(+V._+:+<+<+[+}+|+1+2+          ",
"                3+>.4+4+5+6+7+              "};
