/* XPM */
const char * sysTrayIcon_xpm[] = {
  "16 16 3 1",
  "        c None",
  ".       c #9BBB38",
  "-       c #FFFFFF",
  "                ",
  "       ..       ",
  "      ....      ",
  "     ......     ",
  "    ........    ",
  "   ....__....   ",
  "  .....__.....  ",
  " ......__...... ",
  " ......__...... ",
  "  .....__.....  ",
  "   ....__....   ",
  "    ........    ",
  "     ......     ",
  "      ....      ",
  "       ..       ",
  "                "};
