/* XPM */
const char * sysTrayIcon_xpm[] = {
  "22 22 3 1",
  "        c None",
  ".       c #9BBB38",
  "_       c #FFFFFF",
  "......................",
  ".                    .",
  ".                    .",
  ".         ..         .",
  ".        ....        .",
  ".       ......       .",
  ".      ........      .",
  ".     ....__....     .",
  ".    .....__.....    .",
  ".   ......__......   .",
  ".  .......__.......  .",
  ".  .......__.......  .",
  ".   ......__......   .",
  ".    .....__.....    .",
  ".     ....__....     .",
  ".      ........      .",
  ".       ......       .",
  ".        ....        .",
  ".         ..         .",
  ".                    .",
  ".                    .",
  "......................"};
