<?xml version="1.0" encoding="UTF-8" standalone="no"?>
<!-- Created with Inkscape (http://www.inkscape.org/) -->

<svg
   xmlns:dc="http://purl.org/dc/elements/1.1/"
   xmlns:cc="http://creativecommons.org/ns#"
   xmlns:rdf="http://www.w3.org/1999/02/22-rdf-syntax-ns#"
   xmlns:svg="http://www.w3.org/2000/svg"
   xmlns="http://www.w3.org/2000/svg"
   xmlns:sodipodi="http://sodipodi.sourceforge.net/DTD/sodipodi-0.dtd"
   xmlns:inkscape="http://www.inkscape.org/namespaces/inkscape"
   width="16px"
   height="16px"
   id="svg2385"
   sodipodi:version="0.32"
   inkscape:version="0.91 r13725"
   sodipodi:docname="edit_italic.svg"
   inkscape:output_extension="org.inkscape.output.svg.inkscape"
   version="1.1">
  <defs
     id="defs2387">
    <inkscape:perspective
       sodipodi:type="inkscape:persp3d"
       inkscape:vp_x="0 : 8 : 1"
       inkscape:vp_y="0 : 1000 : 0"
       inkscape:vp_z="16 : 8 : 1"
       inkscape:persp3d-origin="8 : 5.3333333 : 1"
       id="perspective2393" />
  </defs>
  <sodipodi:namedview
     id="base"
     pagecolor="#ffffff"
     bordercolor="#666666"
     borderopacity="1.0"
     inkscape:pageopacity="0.0"
     inkscape:pageshadow="2"
     inkscape:zoom="34.625"
     inkscape:cx="8.1877256"
     inkscape:cy="8"
     inkscape:current-layer="layer1"
     showgrid="true"
     inkscape:grid-bbox="true"
     inkscape:document-units="px"
     gridtolerance="7"
     guidetolerance="3"
     inkscape:window-width="1600"
     inkscape:window-height="848"
     inkscape:window-x="0"
     inkscape:window-y="0"
     inkscape:snap-bbox="true"
     inkscape:object-paths="true"
     inkscape:object-nodes="true"
     inkscape:window-maximized="1">
    <inkscape:grid
       type="xygrid"
       id="grid3169"
       visible="true"
       enabled="true" />
  </sodipodi:namedview>
  <metadata
     id="metadata2390">
    <rdf:RDF>
      <cc:Work
         rdf:about="">
        <dc:format>image/svg+xml</dc:format>
        <dc:type
           rdf:resource="http://purl.org/dc/dcmitype/StillImage" />
      </cc:Work>
    </rdf:RDF>
  </metadata>
  <g
     id="layer1"
     inkscape:label="Layer 1"
     inkscape:groupmode="layer">
    <rect
       style="opacity:0;fill:#ffffff;fill-opacity:1;fill-rule:evenodd;stroke:none;stroke-width:1;stroke-miterlimit:4;stroke-dasharray:none;stroke-opacity:1"
       id="rect3254"
       width="16"
       height="16"
       x="0"
       y="0"
       ry="0" />
    <path
       style="font-style:normal;font-weight:normal;font-size:28px;font-family:Century;fill:#000000;fill-opacity:1;stroke:none;stroke-width:1px;stroke-linecap:butt;stroke-linejoin:miter;stroke-opacity:1"
       d="m 9.1010308,12.63044 -0.1222805,0.286859 -6.2030447,0 0.1556325,-0.286859 c 0.6225267,-0.01037 1.0338395,-0.04651 1.2339385,-0.108532 0.3260839,-0.08786 0.5669436,-0.209334 0.7225769,-0.364394 0.2445623,-0.242923 0.4965377,-0.677087 0.7559259,-1.302489 L 8.2672893,4.513128 C 8.4896157,3.9859381 8.6007809,3.587955 8.6007854,3.3191776 8.6007809,3.1848034 8.5526087,3.0710939 8.4562703,2.9780491 8.3599215,2.8850239 8.211701,2.8152477 8.0116075,2.76872 7.8189166,2.717044 7.4372474,2.691201 6.8666016,2.691191 L 7,2.4043326 l 5.825091,0 L 12.7028,2.691191 C 12.228492,2.686031 11.876467,2.722213 11.646735,2.7997322 11.31323,2.903114 11.057549,3.0504195 10.879692,3.2416486 10.709229,3.4328966 10.486898,3.8567231 10.212697,4.513128 l -2.6124025,6.341894 c -0.2371576,0.584054 -0.3557334,0.956192 -0.35573,1.11642 -3.4e-6,0.129221 0.044462,0.240342 0.1333998,0.333376 0.096338,0.08785 0.2445602,0.157643 0.4446627,0.209327 0.2075039,0.04652 0.6336391,0.08529 1.2784048,0.116298"
       id="text2410"
       inkscape:connector-curvature="0" />
  </g>
</svg>
