<?xml version="1.0" encoding="UTF-8" standalone="no"?>
<!-- Created with Inkscape (http://www.inkscape.org/) -->

<svg
   xmlns:dc="http://purl.org/dc/elements/1.1/"
   xmlns:cc="http://creativecommons.org/ns#"
   xmlns:rdf="http://www.w3.org/1999/02/22-rdf-syntax-ns#"
   xmlns:svg="http://www.w3.org/2000/svg"
   xmlns="http://www.w3.org/2000/svg"
   xmlns:sodipodi="http://sodipodi.sourceforge.net/DTD/sodipodi-0.dtd"
   xmlns:inkscape="http://www.inkscape.org/namespaces/inkscape"
   width="16px"
   height="16px"
   id="svg2385"
   sodipodi:version="0.32"
   inkscape:version="0.91 r13725"
   sodipodi:docname="edit_monospace.svg"
   inkscape:output_extension="org.inkscape.output.svg.inkscape"
   version="1.1">
  <defs
     id="defs2387">
    <inkscape:perspective
       sodipodi:type="inkscape:persp3d"
       inkscape:vp_x="0 : 8 : 1"
       inkscape:vp_y="0 : 1000 : 0"
       inkscape:vp_z="16 : 8 : 1"
       inkscape:persp3d-origin="8 : 5.3333333 : 1"
       id="perspective2393" />
  </defs>
  <sodipodi:namedview
     id="base"
     pagecolor="#ffffff"
     bordercolor="#666666"
     borderopacity="1.0"
     inkscape:pageopacity="0.0"
     inkscape:pageshadow="2"
     inkscape:zoom="34.625"
     inkscape:cx="8"
     inkscape:cy="8"
     inkscape:current-layer="layer1"
     showgrid="true"
     inkscape:grid-bbox="true"
     inkscape:document-units="px"
     gridtolerance="7"
     guidetolerance="3"
     inkscape:window-width="1024"
     inkscape:window-height="718"
     inkscape:window-x="0"
     inkscape:window-y="0"
     inkscape:snap-bbox="true"
     inkscape:object-paths="true"
     inkscape:object-nodes="true"
     inkscape:window-maximized="0">
    <inkscape:grid
       type="xygrid"
       id="grid3169"
       visible="true"
       enabled="true" />
  </sodipodi:namedview>
  <metadata
     id="metadata2390">
    <rdf:RDF>
      <cc:Work
         rdf:about="">
        <dc:format>image/svg+xml</dc:format>
        <dc:type
           rdf:resource="http://purl.org/dc/dcmitype/StillImage" />
      </cc:Work>
    </rdf:RDF>
  </metadata>
  <g
     id="layer1"
     inkscape:label="Layer 1"
     inkscape:groupmode="layer">
    <rect
       style="opacity:0;fill:#ffffff;fill-opacity:1;fill-rule:evenodd;stroke:none;stroke-width:1;stroke-miterlimit:4;stroke-dasharray:none;stroke-opacity:1"
       id="rect3254"
       width="13.471766"
       height="14.217565"
       x="1.2394252"
       y="1.0423634"
       ry="0" />
    <path
       style="font-style:normal;font-variant:normal;font-weight:normal;font-stretch:normal;font-size:3.08434534px;font-family:'Times New Roman';-inkscape-font-specification:'Times New Roman';fill:#000000;fill-opacity:1;stroke:none;stroke-width:1px;stroke-linecap:butt;stroke-linejoin:miter;stroke-opacity:1"
       d="m 7.0556343,4.5967549 0.077687,1.6671038 -0.1968085,0 C 6.8985267,5.9702864 6.846735,5.7605881 6.7811381,5.6347629 6.6740961,5.4320606 6.5308059,5.2835242 6.3512669,5.1891534 6.1751698,5.0913007 5.9421073,5.0423711 5.6520787,5.0423644 l -0.9892218,0 0,5.4311946 c -3.7e-6,0.436873 0.046609,0.709481 0.1398376,0.817824 0.1312017,0.146789 0.3331892,0.220183 0.6059631,0.220183 l 0.2434211,0 0,0.193972 -2.9780237,0 0,-0.193972 0.2486003,0 c 0.2969368,0 0.5075562,-0.09087 0.6318589,-0.272608 0.075958,-0.111839 0.113939,-0.366971 0.1139418,-0.765399 l 0,-5.4311946 -0.844205,0 C 2.4962352,5.0423711 2.2631728,5.0668359 2.1250628,5.115759 1.9455172,5.18217 1.7918686,5.3097365 1.6641166,5.4984588 1.5363631,5.6871936 1.460402,5.9423266 1.436233,6.2638587 l -0.1968085,0 0.082867,-1.6671038 5.733343,0"
       id="text2386"
       inkscape:connector-curvature="0" />
    <path
       style="font-style:normal;font-variant:normal;font-weight:normal;font-stretch:normal;font-size:3.08375978px;font-family:'Times New Roman';-inkscape-font-specification:'Times New Roman';fill:#000000;fill-opacity:1;stroke:none;stroke-width:1px;stroke-linecap:butt;stroke-linejoin:miter;stroke-opacity:1"
       d="m 14.631292,4.596754 0.07766,1.6671037 -0.196734,0 C 14.474244,5.9702855 14.422473,5.7605871 14.356901,5.634762 14.249899,5.4320596 14.106663,5.2835233 13.927192,5.1891525 13.751162,5.0912998 13.518188,5.0423702 13.22827,5.0423635 l -0.988846,0 0,5.4311945 c -4e-6,0.436873 0.04659,0.70948 0.139784,0.817824 0.131152,0.146789 0.333063,0.220184 0.605733,0.220183 l 0.243329,0 0,0.193971 -2.976893,0 0,-0.193971 0.248505,0 c 0.296825,1e-6 0.507364,-0.09087 0.63162,-0.272608 0.07593,-0.111838 0.113896,-0.366971 0.113899,-0.765399 l 0,-5.4311945 -0.843885,0 c -0.327891,6.7e-6 -0.5608654,0.024471 -0.6989222,0.073395 -0.1794774,0.066411 -0.3330677,0.1939776 -0.4607712,0.3827 -0.1277051,0.1887341 -0.2036373,0.4438671 -0.227797,0.7653992 l -0.1967338,0 0.082835,-1.6671037 5.7311642,0"
       id="text2390"
       inkscape:connector-curvature="0" />
  </g>
</svg>
