<?xml version="1.0" encoding="UTF-8" standalone="no"?>
<!-- Created with Inkscape (http://www.inkscape.org/) -->

<svg
   xmlns:dc="http://purl.org/dc/elements/1.1/"
   xmlns:cc="http://creativecommons.org/ns#"
   xmlns:rdf="http://www.w3.org/1999/02/22-rdf-syntax-ns#"
   xmlns:svg="http://www.w3.org/2000/svg"
   xmlns="http://www.w3.org/2000/svg"
   xmlns:sodipodi="http://sodipodi.sourceforge.net/DTD/sodipodi-0.dtd"
   xmlns:inkscape="http://www.inkscape.org/namespaces/inkscape"
   width="16px"
   height="16px"
   id="svg2385"
   sodipodi:version="0.32"
   inkscape:version="0.91 r13725"
   sodipodi:docname="edit_bold.svg"
   inkscape:output_extension="org.inkscape.output.svg.inkscape"
   version="1.1">
  <defs
     id="defs2387">
    <inkscape:perspective
       sodipodi:type="inkscape:persp3d"
       inkscape:vp_x="0 : 8 : 1"
       inkscape:vp_y="0 : 1000 : 0"
       inkscape:vp_z="16 : 8 : 1"
       inkscape:persp3d-origin="8 : 5.3333333 : 1"
       id="perspective2393" />
  </defs>
  <sodipodi:namedview
     id="base"
     pagecolor="#ffffff"
     bordercolor="#666666"
     borderopacity="1.0"
     inkscape:pageopacity="0.0"
     inkscape:pageshadow="2"
     inkscape:zoom="34.625"
     inkscape:cx="8.1877256"
     inkscape:cy="8"
     inkscape:current-layer="layer1"
     showgrid="true"
     inkscape:grid-bbox="true"
     inkscape:document-units="px"
     gridtolerance="7"
     guidetolerance="3"
     inkscape:window-width="1600"
     inkscape:window-height="848"
     inkscape:window-x="0"
     inkscape:window-y="0"
     inkscape:snap-bbox="true"
     inkscape:object-paths="true"
     inkscape:object-nodes="true"
     inkscape:window-maximized="1">
    <inkscape:grid
       type="xygrid"
       id="grid3169"
       visible="true"
       enabled="true" />
  </sodipodi:namedview>
  <metadata
     id="metadata2390">
    <rdf:RDF>
      <cc:Work
         rdf:about="">
        <dc:format>image/svg+xml</dc:format>
        <dc:type
           rdf:resource="http://purl.org/dc/dcmitype/StillImage" />
      </cc:Work>
    </rdf:RDF>
  </metadata>
  <g
     id="layer1"
     inkscape:label="Layer 1"
     inkscape:groupmode="layer">
    <rect
       style="opacity:0;fill:#ffffff;fill-opacity:1;fill-rule:evenodd;stroke:none;stroke-width:1;stroke-miterlimit:4;stroke-dasharray:none;stroke-opacity:1"
       id="rect3254"
       width="16"
       height="16"
       x="0"
       y="0"
       ry="0" />
    <path
       style="font-style:normal;font-weight:normal;font-size:28px;font-family:Century;fill:#000000;fill-opacity:1;stroke:none;stroke-width:1px;stroke-linecap:butt;stroke-linejoin:miter;stroke-opacity:1"
       d="m 10,7.4127105 c 1.151712,0.2348231 1.960306,0.5192136 2.425783,0.8531716 0.668346,0.4748582 1.002526,1.0906029 1.002538,1.8472349 -1.2e-5,0.798384 -0.367012,1.458484 -1.101002,1.980299 -0.9011,0.6314 -2.210963,0.947101 -3.9295897,0.947101 l -6.1674063,0 0,-0.289611 c 0.5609434,0 0.939879,-0.04435 1.1368077,-0.133062 0.2028933,-0.09392 0.3431295,-0.213946 0.4207086,-0.360056 0.083542,-0.146106 0.1253141,-0.506162 0.1253172,-1.080161 l 0,-6.8879946 C 3.9131547,3.7156426 3.8713821,3.355589 3.7878393,3.2094703 3.7102602,3.0581532 3.570024,2.9381351 3.3671307,2.8494163 3.1642347,2.7607174 2.785299,2.7163628 2.230323,2.7163525 l 0,-0.2896086 5.8183079,0 c 1.3904181,1.08e-5 2.3750471,0.1095929 2.9539041,0.328745 0.578836,0.2139552 1.035349,0.5374818 1.369539,0.9705807 0.334171,0.4278992 0.50126,0.8844891 0.501271,1.369771 -1.1e-5,0.5113886 -0.211858,0.9679785 -0.635537,1.369771 C 11.814105,6.8621991 11.068169,7.1778983 10,7.4127105 M 6.7417494,7.2013743 C 7.5891281,7.2013802 8.2127309,7.1178894 8.6125596,6.9509017 9.0183422,6.7839266 9.328652,6.5491088 9.54349,6.2464482 9.758309,5.9438011 9.865725,5.5576565 9.865732,5.0880133 9.865725,4.6183859 9.758313,4.2348503 9.54349,3.9374056 9.334619,3.634761 9.0332603,3.4051615 8.6394135,3.2486067 8.2455519,3.0920711 7.6129981,3.0164079 6.7417494,3.0216159 l 0,4.1797584 m 0,0.6105264 0,3.4048623 -0.00895,0.391364 c -4.9e-6,0.281782 0.080556,0.495727 0.241683,0.641834 0.167085,0.140891 0.4117522,0.211336 0.7340022,0.211335 0.4773933,10e-7 0.9160036,-0.09131 1.3158328,-0.273953 C 9.4300932,11.99949 9.7404042,11.730756 9.9552412,11.381136 10.170058,11.026302 10.277474,10.632329 10.277481,10.199217 10.277474,9.7034931 10.146191,9.2599483 9.8836312,8.8685811 9.621058,8.4720047 9.260024,8.1954415 8.8005359,8.0388913 8.3410318,7.8823512 7.6547704,7.8066879 6.7417494,7.8119007"
       id="text2385"
       inkscape:connector-curvature="0" />
  </g>
</svg>
