<?xml version="1.0" encoding="UTF-8" standalone="no"?>
<!-- Created with Inkscape (http://www.inkscape.org/) -->

<svg
   xmlns:dc="http://purl.org/dc/elements/1.1/"
   xmlns:cc="http://creativecommons.org/ns#"
   xmlns:rdf="http://www.w3.org/1999/02/22-rdf-syntax-ns#"
   xmlns:svg="http://www.w3.org/2000/svg"
   xmlns="http://www.w3.org/2000/svg"
   xmlns:sodipodi="http://sodipodi.sourceforge.net/DTD/sodipodi-0.dtd"
   xmlns:inkscape="http://www.inkscape.org/namespaces/inkscape"
   viewBox="0 0 16 16"
   version="1.1"
   preserveAspectRatio="xMinYMin meet"
   id="svg2"
   inkscape:version="0.91 r13725"
   sodipodi:docname="edit_switch.svg"
   width="16"
   height="16">
  <defs
     id="defs30" />
  <sodipodi:namedview
     pagecolor="#ffffff"
     bordercolor="#666666"
     borderopacity="1"
     objecttolerance="10"
     gridtolerance="10"
     guidetolerance="10"
     inkscape:pageopacity="0"
     inkscape:pageshadow="2"
     inkscape:window-width="1600"
     inkscape:window-height="848"
     id="namedview28"
     showgrid="false"
     inkscape:zoom="42.75"
     inkscape:cx="8"
     inkscape:cy="8"
     inkscape:window-x="0"
     inkscape:window-y="0"
     inkscape:window-maximized="1"
     inkscape:current-layer="svg2" />
  <metadata
     id="metadata4">
    <rdf:RDF>
      <cc:Work
         rdf:about="">
        <dc:format>image/svg+xml</dc:format>
        <dc:type
           rdf:resource="http://purl.org/dc/dcmitype/StillImage" />
        <dc:title></dc:title>
      </cc:Work>
    </rdf:RDF>
  </metadata>
  <g
     transform="matrix(0.1441031,0,0,0.12754138,0.67655264,-119.78779)"
     id="g6">
    <g
       transform="matrix(3.3012228,0,0,3.3012228,-1350.5902,-574.66601)"
       id="g8"
       style="fill:#437892;fill-rule:nonzero">
      <path
         d="m 428.94,492.7 c -0.345,0 -0.625,-0.28 -0.625,-0.625 l 0,-6.5288 c 0,-0.345 0.28,-0.625 0.625,-0.625 l 6.5312,0 c 0.345,0 0.625,0.28 0.625,0.625 0,0.345 -0.28,0.625 -0.625,0.625 l -5.9062,0 0,5.9038 c 0,0.345 -0.27875,0.625 -0.625,0.625"
         id="path10"
         inkscape:connector-curvature="0" />
      <path
         d="m 418.32,491.45 10.361,0 6.165,-6.1625 0,-14.926 -16.526,0 0,21.089 z m 10.62,1.25 -11.245,0 c -0.345,0 -0.625,-0.28 -0.625,-0.625 l 0,-22.339 c 0,-0.34625 0.28,-0.625 0.625,-0.625 l 17.776,0 c 0.345,0 0.625,0.27875 0.625,0.625 l 0,15.81 c 0,0.16625 -0.0662,0.325 -0.18375,0.4425 l -6.53,6.5275 c -0.1175,0.1175 -0.27625,0.18375 -0.4425,0.18375"
         id="path12"
         inkscape:connector-curvature="0" />
      <path
         d="m 427.76,474.48 -6.3912,0 c -0.34625,0 -0.625,-0.27875 -0.625,-0.625 0,-0.345 0.27875,-0.625 0.625,-0.625 l 6.3912,0 c 0.345,0 0.625,0.28 0.625,0.625 0,0.34625 -0.28,0.625 -0.625,0.625"
         id="path14"
         inkscape:connector-curvature="0" />
      <path
         d="m 431.98,477.77 -10.608,0 c -0.34625,0 -0.625,-0.27875 -0.625,-0.625 0,-0.345 0.27875,-0.625 0.625,-0.625 l 10.608,0 c 0.345,0 0.625,0.28 0.625,0.625 0,0.34625 -0.28,0.625 -0.625,0.625"
         id="path16"
         inkscape:connector-curvature="0" />
      <path
         d="m 431.98,481.06 -10.608,0 c -0.34625,0 -0.625,-0.28 -0.625,-0.625 0,-0.345 0.27875,-0.625 0.625,-0.625 l 10.608,0 c 0.345,0 0.625,0.28 0.625,0.625 0,0.345 -0.28,0.625 -0.625,0.625"
         id="path18"
         inkscape:connector-curvature="0" />
      <path
         d="m 425.81,484.36 -4.44,0 c -0.34625,0 -0.625,-0.28 -0.625,-0.625 0,-0.34625 0.27875,-0.625 0.625,-0.625 l 4.44,0 c 0.34625,0 0.625,0.27875 0.625,0.625 0,0.345 -0.27875,0.625 -0.625,0.625"
         id="path20"
         inkscape:connector-curvature="0" />
      <path
         d="m 417.38,488.19 -4.3212,0 c -0.345,0 -0.625,-0.27875 -0.625,-0.625 l 0,-23.122 c 0,-0.345 0.28,-0.625 0.625,-0.625 l 3.9912,0 c 0.345,0 0.625,0.28 0.625,0.625 0,0.34625 -0.28,0.625 -0.625,0.625 l -3.3662,0 0,21.872 3.6962,0 c 0.34625,0 0.625,0.28 0.625,0.625 0,0.34625 -0.27875,0.625 -0.625,0.625"
         id="path22"
         inkscape:connector-curvature="0" />
      <path
         d="m 431.01,469.91 c -0.345,0 -0.625,-0.28 -0.625,-0.625 l 0,-4.2238 -3.3375,0 c -0.34625,0 -0.625,-0.27875 -0.625,-0.625 0,-0.345 0.27875,-0.625 0.625,-0.625 l 3.9625,0 c 0.34625,0 0.625,0.28 0.625,0.625 l 0,4.8488 c 0,0.345 -0.27875,0.625 -0.625,0.625"
         id="path24"
         inkscape:connector-curvature="0" />
      <path
         d="m 418.36,463.97 c -0.32875,0 -0.5975,0.26875 -0.5975,0.59875 0,0.33 0.26875,0.6 0.5975,0.6 l 7.3462,0 c 0.33125,0 0.60125,-0.27 0.60125,-0.6 0,-0.33 -0.27,-0.59875 -0.60125,-0.59875 l -7.3462,0 z m 7.3462,2.4488 -7.3462,0 c -1.0188,0 -1.8475,-0.83 -1.8475,-1.85 0,-1.02 0.82875,-1.8488 1.8475,-1.8488 l 7.3462,0 c 1.0212,0 1.8512,0.82875 1.8512,1.8488 0,1.02005 -0.83,1.85 -1.8512,1.85"
         id="path26"
         inkscape:connector-curvature="0" />
    </g>
  </g>
</svg>
