<?xml version="1.0" encoding="UTF-8" standalone="no"?>
<!-- Generator: Adobe Illustrator 18.1.1, SVG Export Plug-In . SVG Version: 6.00 Build 0)  -->

<svg
   xmlns:dc="http://purl.org/dc/elements/1.1/"
   xmlns:cc="http://creativecommons.org/ns#"
   xmlns:rdf="http://www.w3.org/1999/02/22-rdf-syntax-ns#"
   xmlns:svg="http://www.w3.org/2000/svg"
   xmlns="http://www.w3.org/2000/svg"
   xmlns:sodipodi="http://sodipodi.sourceforge.net/DTD/sodipodi-0.dtd"
   xmlns:inkscape="http://www.inkscape.org/namespaces/inkscape"
   version="1.1"
   id="Capa_1"
   x="0px"
   y="0px"
   viewBox="0 0 16 16"
   xml:space="preserve"
   inkscape:version="0.91 r13725"
   sodipodi:docname="flip.svg"
   width="16"
   height="16"><metadata
     id="metadata49"><rdf:RDF><cc:Work
         rdf:about=""><dc:format>image/svg+xml</dc:format><dc:type
           rdf:resource="http://purl.org/dc/dcmitype/StillImage" /><dc:title></dc:title></cc:Work></rdf:RDF></metadata><defs
     id="defs47" /><sodipodi:namedview
     pagecolor="#ffffff"
     bordercolor="#666666"
     borderopacity="1"
     objecttolerance="10"
     gridtolerance="10"
     guidetolerance="10"
     inkscape:pageopacity="0"
     inkscape:pageshadow="2"
     inkscape:window-width="1600"
     inkscape:window-height="848"
     id="namedview45"
     showgrid="false"
     inkscape:zoom="9.4847681"
     inkscape:cx="12.651864"
     inkscape:cy="12.441"
     inkscape:window-x="0"
     inkscape:window-y="0"
     inkscape:window-maximized="1"
     inkscape:current-layer="Capa_1" /><g
     id="g3"
     transform="matrix(0.49576893,0,0,0.46983835,1.8976249,2.0365581)"><g
       id="g5"><path
         style="fill:#030104"
         d="m 23.066,0.279 c 0.999,-0.461 1.816,0.062 1.816,1.162 l 0,8 c 0,1.1 -0.9,2 -2,2 l -22,0 c -1.1,0 -1.183,-0.377 -0.184,-0.838 L 23.066,0.279 Z"
         id="path7"
         inkscape:connector-curvature="0" /></g><g
       id="g9"><g
         id="g11"><path
           style="fill:#030104"
           d="m 22.882,15.441 0,6.874 -14.894,-6.874 14.894,0 m 0,-2 -22,0 c -1.1,0 -1.183,0.377 -0.184,0.838 l 22.368,10.324 c 0.247,0.113 0.482,0.168 0.697,0.168 0.655,0 1.119,-0.502 1.119,-1.33 l 0,-8 c 0,-1.1 -0.9,-2 -2,-2 l 0,0 z"
           id="path13"
           inkscape:connector-curvature="0" /></g></g></g><g
     id="g15"
     transform="matrix(0.49576893,0,0,0.46983835,1.8976249,2.0365581)" /><g
     id="g17"
     transform="matrix(0.49576893,0,0,0.46983835,1.8976249,2.0365581)" /><g
     id="g19"
     transform="matrix(0.49576893,0,0,0.46983835,1.8976249,2.0365581)" /><g
     id="g21"
     transform="matrix(0.49576893,0,0,0.46983835,1.8976249,2.0365581)" /><g
     id="g23"
     transform="matrix(0.49576893,0,0,0.46983835,1.8976249,2.0365581)" /><g
     id="g25"
     transform="matrix(0.49576893,0,0,0.46983835,1.8976249,2.0365581)" /><g
     id="g27"
     transform="matrix(0.49576893,0,0,0.46983835,1.8976249,2.0365581)" /><g
     id="g29"
     transform="matrix(0.49576893,0,0,0.46983835,1.8976249,2.0365581)" /><g
     id="g31"
     transform="matrix(0.49576893,0,0,0.46983835,1.8976249,2.0365581)" /><g
     id="g33"
     transform="matrix(0.49576893,0,0,0.46983835,1.8976249,2.0365581)" /><g
     id="g35"
     transform="matrix(0.49576893,0,0,0.46983835,1.8976249,2.0365581)" /><g
     id="g37"
     transform="matrix(0.49576893,0,0,0.46983835,1.8976249,2.0365581)" /><g
     id="g39"
     transform="matrix(0.49576893,0,0,0.46983835,1.8976249,2.0365581)" /><g
     id="g41"
     transform="matrix(0.49576893,0,0,0.46983835,1.8976249,2.0365581)" /><g
     id="g43"
     transform="matrix(0.49576893,0,0,0.46983835,1.8976249,2.0365581)" /></svg>