<?xml version="1.0" encoding="UTF-8" standalone="no"?>
<!-- Created with Inkscape (http://www.inkscape.org/) -->

<svg
   xmlns:dc="http://purl.org/dc/elements/1.1/"
   xmlns:cc="http://creativecommons.org/ns#"
   xmlns:rdf="http://www.w3.org/1999/02/22-rdf-syntax-ns#"
   xmlns:svg="http://www.w3.org/2000/svg"
   xmlns="http://www.w3.org/2000/svg"
   xmlns:sodipodi="http://sodipodi.sourceforge.net/DTD/sodipodi-0.dtd"
   xmlns:inkscape="http://www.inkscape.org/namespaces/inkscape"
   width="16"
   height="16"
   viewBox="0 0 16 16"
   id="svg3362"
   version="1.1"
   inkscape:version="0.91 r13725"
   sodipodi:docname="leaves_shine.svg">
  <defs
     id="defs3364" />
  <sodipodi:namedview
     id="base"
     pagecolor="#ffffff"
     bordercolor="#666666"
     borderopacity="1.0"
     inkscape:pageopacity="0.0"
     inkscape:pageshadow="2"
     inkscape:zoom="26.435045"
     inkscape:cx="4.0242804"
     inkscape:cy="8.5981692"
     inkscape:document-units="px"
     inkscape:current-layer="layer1"
     showgrid="false"
     units="px"
     inkscape:window-width="1366"
     inkscape:window-height="688"
     inkscape:window-x="0"
     inkscape:window-y="27"
     inkscape:window-maximized="1" />
  <metadata
     id="metadata3367">
    <rdf:RDF>
      <cc:Work
         rdf:about="">
        <dc:format>image/svg+xml</dc:format>
        <dc:type
           rdf:resource="http://purl.org/dc/dcmitype/StillImage" />
        <dc:title></dc:title>
      </cc:Work>
    </rdf:RDF>
  </metadata>
  <g
     inkscape:label="Layer 1"
     inkscape:groupmode="layer"
     id="layer1"
     transform="translate(0,-1036.3622)">
    <g
       transform="matrix(0,0.05035478,-0.04902416,0,16.121256,1037.9531)"
       style="fill-rule:evenodd"
       id="g4">
      <path
         style="fill:#a8fc00"
         inkscape:connector-curvature="0"
         id="path2511"
         d="m 184.99,269.55 -0.6151,6.2457 -4.4645,17.22 -6.0589,7.9722 -2.2322,-3.1889 -8.6101,15.626 -5.74,1.2756 0,-5.1023 -7.9723,10.523 -4.1456,3.8267 -2.2322,-0.9567 -0.3189,-3.5078 -14.669,8.61 1.5945,-6.3778 -1.5945,-1.2756 -3.1889,3.8267 -18.496,0.6378 0,-5.1023 -11.48,-1.2756 -3.9861,-2.0728 -3.0294,-2.2323 3.9861,-2.2322 -8.9289,-1.2756 -9.4073,-4.7833 -3.8267,-3.5078 4.9428,-1.4351 -13.712,-10.842 5.2617,-1.5945 -7.3345,-3.8267 -5.7401,-5.8995 10.364,-6.0589 -2.7106,-2.0728 12.277,-8.61 -3.3484,-1.5945 13.074,-7.3345 -4.9428,-2.2322 19.133,-10.364 8.4506,-1.1161 4.9428,1.1161 0.4784,-3.1889 16.742,0.9567 -1.435,-3.9861 18.655,3.8267 -2.87,-3.1889 19.452,6.6967 0.6378,-1.2755 10.683,8.1317 6.5372,9.4073 6.2184,6.8561 -0.3416,4.756 z" />
      <path
         style="fill:#c8fc0c"
         inkscape:connector-curvature="0"
         id="path2401"
         d="m 134.59,123.12 -7.7794,-16.799 -3.0441,-16.799 1.4657,-14.206 4.2843,1.2402 1.6912,-18.152 3.7206,-8.0049 3.6078,-0.1127 4.8481,-7.6666 6.4265,-12.627 1.5784,3.0441 16.235,-16.574 0,4.2843 3.4951,-1.6912 12.176,-9.3578 1.2401,3.4951 14.319,-6.3137 -0.1128,2.4804 15.221,-4.9608 -0.3383,2.0294 12.515,-4.7353 1.8039,15.446 2.0294,-0.3382 0.4509,5.75 -3.3823,8.7941 2.9314,-1.0147 -3.2696,13.191 3.2696,-0.7892 -5.9755,14.657 3.0441,-0.3382 -5.299,10.372 -4.848,4.0588 2.0294,0.9019 -9.3578,17.137 -9.3578,9.5833 -11.838,6.0882 3.3824,2.1422 -14.77,8.9068 -5.5245,0.451 1.1275,3.6078 -19.167,5.5245 -18.828,-2.7059 z" />
      <path
         style="fill:#8f5902"
         inkscape:connector-curvature="0"
         id="path2403"
         d="m 106.29,93.232 -5.4764,1.0037 28.822,47.019 -0.0873,0.5018 15.797,45.339 -14.662,-9.2511 0.2182,5.1928 17.826,10.146 28.408,45.317 28.626,35.171 -20.16,-2.0509 -0.5891,4.8873 27.077,4.6037 18.938,22.102 12.633,4.9528 -12.873,-20.968 -1.5709,7.2219 -23.455,-22.778 -24.131,-36.742 -4.7346,-15.338 3.1637,-9.9274 -3.1637,-2.0291 -3.8182,18.938 -12.415,-18.938 -26.139,-54.35 1.7891,-30.197 -3.1419,-1.5928 -3.36,18.829 -23.52,-47.062 z" />
      <g
         style="fill:#00e400"
         id="g9">
        <path
           inkscape:connector-curvature="0"
           id="path2399"
           d="m 117.58,105.8 -28.637,3.3823 -4.7353,-0.6765 3.1569,-3.8333 -19.392,-1.3529 2.7058,-2.4804 -20.52,-6.0882 3.3824,-2.4804 -17.363,-7.6666 2.2549,-3.3823 -9.6961,-4.0588 -6.0882,-7.6666 2.2549,-3.1569 -5.6372,-4.5098 -5.1862,-10.598 2.7059,-0.451 -5.8627,-6.0882 -2.8186,-6.0882 5.4117,-0.451 -9.2451,-12.289 16.912,-4.848 -1.3529,-2.9314 17.25,-1.8039 c 0,0 -2.8187,-4.2843 -1.804,-4.2843 1.0147,0 12.402,3.7206 12.402,3.7206 l 1.4657,-3.6078 14.995,5.1863 -0.902,-4.2843 10.147,8.2304 4.397,3.7206 0.451,-2.3676 8.1176,4.848 5.6372,5.4117 0.7892,-3.9461 9.9215,7.7794 5.299,7.4412 1.1274,-3.7206 4.6225,5.75 3.9461,13.755 2.4804,-4.2843 4.7353,6.5392 1.3529,9.2451 -1.4657,4.6225 0.6765,12.627 -7.8921,17.137 z" />
        <path
           inkscape:connector-curvature="0"
           id="path2393"
           d="m 152.77,191.45 -1.5784,11.951 -8.3431,10.372 -6.5392,8.1176 -8.3431,4.7353 -0.451,-2.7059 -9.2451,9.9215 -9.2451,3.3823 -10.824,4.5098 -14.431,3.3823 2.9314,-4.0588 -19.843,6.0882 0.451,-3.6078 -14.882,1.5784 -6.5392,-2.2549 3.8333,-4.7353 -12.853,1.5784 -6.0882,-2.4804 2.9314,-2.4804 -18.716,-2.2549 7.8921,-18.716 -4.7353,-1.5784 16.686,-16.235 -7.6667,-1.8039 17.137,-9.9216 -4.9607,-2.7059 24.804,-6.5392 -6.3137,-3.8333 16.686,-4.0588 9.4706,1.353 -5.6372,-5.4118 22.324,0.902 -1.8039,-2.7059 13.755,2.0294 8.5686,2.7059 -0.9019,-3.3824 10.372,2.9314 5.6373,6.3137 4.2843,0.6765 6.3137,6.9902 5.6372,9.2451 0.2255,2.7059 z" />
      </g>
      <path
         style="fill:#73d216"
         inkscape:connector-curvature="0"
         id="path2513"
         transform="matrix(0.99777781,-0.06662916,0.06662916,0.99777781,-9.2502987,13.96334)"
         d="m 172.93,215.8 -2.2549,-11.726 -8.5686,-12.627 -2.7059,-4.9608 -1.3529,-21.647 4.9608,3.1568 -2.2549,-18.941 -0.451,-5.6372 3.1569,3.8333 2.2549,0 -0.6765,-5.8627 -0.451,-4.9608 15.784,-10.824 4.9608,-6.9901 -5.6372,0.6765 5.6372,-6.3137 10.373,-15.333 -4.0588,0 8.1176,-14.431 7.8922,-7.4411 3.6078,4.9608 12.176,-9.9215 7.6666,-1.8039 3.6078,16.912 4.0588,-2.0294 2.7032,18.52 5.4212,-2.2322 -2.5511,24.395 c 0,1.8118 7.175,0.98639 7.0156,-0.63777 -0.0794,-0.80911 -11.002,19.931 -11.002,19.931 l 6.3778,1.1161 -11.64,20.409 3.5078,0.7972 -6.6967,8.9289 -14.51,7.6534 3.6673,1.7539 -18.336,15.785 -24.554,6.8562 -1.4351,15.147 -3.8113,-6.5114 z" />
    </g>
  </g>
</svg>
