<?xml version="1.0" encoding="UTF-8" standalone="no"?>
<!-- Generator: Adobe Illustrator 16.0.0, SVG Export Plug-In . SVG Version: 6.00 Build 0)  -->

<svg
   xmlns:dc="http://purl.org/dc/elements/1.1/"
   xmlns:cc="http://creativecommons.org/ns#"
   xmlns:rdf="http://www.w3.org/1999/02/22-rdf-syntax-ns#"
   xmlns:svg="http://www.w3.org/2000/svg"
   xmlns="http://www.w3.org/2000/svg"
   xmlns:sodipodi="http://sodipodi.sourceforge.net/DTD/sodipodi-0.dtd"
   xmlns:inkscape="http://www.inkscape.org/namespaces/inkscape"
   version="1.1"
   id="Capa_1"
   x="0px"
   y="0px"
   width="16"
   height="16"
   viewBox="0 0 16 16.000001"
   xml:space="preserve"
   inkscape:version="0.91 r13725"
   sodipodi:docname="link.svg"><metadata
     id="metadata43"><rdf:RDF><cc:Work
         rdf:about=""><dc:format>image/svg+xml</dc:format><dc:type
           rdf:resource="http://purl.org/dc/dcmitype/StillImage" /><dc:title></dc:title></cc:Work></rdf:RDF></metadata><defs
     id="defs41" /><sodipodi:namedview
     pagecolor="#ffffff"
     bordercolor="#666666"
     borderopacity="1"
     objecttolerance="10"
     gridtolerance="10"
     guidetolerance="10"
     inkscape:pageopacity="0"
     inkscape:pageshadow="2"
     inkscape:window-width="1600"
     inkscape:window-height="848"
     id="namedview39"
     showgrid="false"
     inkscape:zoom="42.75"
     inkscape:cx="8"
     inkscape:cy="8"
     inkscape:window-x="0"
     inkscape:window-y="0"
     inkscape:window-maximized="1"
     inkscape:current-layer="Capa_1" /><g
     id="g3"
     transform="matrix(0.07653248,0,0,0.05932252,0.77913054,2.5376191)"><path
       d="m 98.313,71.838 c -6.639,0.526 -6.702,9.935 0,10.357 23.934,1.506 10.567,24.471 2.524,37.632 -11.57,18.936 -27.343,36.946 -45.003,50.45 -16.561,12.663 -37.519,9.059 -32.777,-15.409 1.95,-10.064 6.785,-19.771 13.181,-27.734 2.619,-3.262 11.081,-13.204 15.07,-14.291 0.478,-0.13 0.462,-0.811 0,-0.949 -4.902,-1.461 -5.162,-3.806 -11.036,-1.719 -5.325,1.892 -9.762,6.737 -13.236,10.973 -8.285,10.104 -14.465,23.691 -15.642,36.775 -2.436,27.074 22.588,38.637 44.692,25.074 24.507,-15.037 45.727,-41.674 59.116,-66.75 9.909,-18.55 12.219,-46.714 -16.889,-44.409 z"
       id="path5"
       inkscape:connector-curvature="0" /><path
       d="M 176.457,18.135 C 170.371,-12.09 133.915,1.819 118.215,14.434 95.78,32.461 23.095,119.702 90.457,123.336 c 6.553,0.353 6.495,-9.753 0,-10.15 -47.763,-2.921 15.527,-73.059 29.367,-86.393 10.342,-9.964 40.243,-29.035 46.543,-5.876 5.918,21.755 -12.732,46.373 -29.202,57.901 -4.93,3.451 -0.49,11.438 4.783,8.183 22.469,-13.874 39.973,-41.729 34.509,-68.866 z"
       id="path7"
       inkscape:connector-curvature="0" /></g><g
     id="g9"
     transform="translate(0,-172.69299)" /><g
     id="g11"
     transform="translate(0,-172.69299)" /><g
     id="g13"
     transform="translate(0,-172.69299)" /><g
     id="g15"
     transform="translate(0,-172.69299)" /><g
     id="g17"
     transform="translate(0,-172.69299)" /><g
     id="g19"
     transform="translate(0,-172.69299)" /><g
     id="g21"
     transform="translate(0,-172.69299)" /><g
     id="g23"
     transform="translate(0,-172.69299)" /><g
     id="g25"
     transform="translate(0,-172.69299)" /><g
     id="g27"
     transform="translate(0,-172.69299)" /><g
     id="g29"
     transform="translate(0,-172.69299)" /><g
     id="g31"
     transform="translate(0,-172.69299)" /><g
     id="g33"
     transform="translate(0,-172.69299)" /><g
     id="g35"
     transform="translate(0,-172.69299)" /><g
     id="g37"
     transform="translate(0,-172.69299)" /></svg>