<?xml version="1.0" encoding="UTF-8" standalone="no"?>
<!-- Created with Inkscape (http://www.inkscape.org/) -->

<svg
   xmlns:dc="http://purl.org/dc/elements/1.1/"
   xmlns:cc="http://creativecommons.org/ns#"
   xmlns:rdf="http://www.w3.org/1999/02/22-rdf-syntax-ns#"
   xmlns:svg="http://www.w3.org/2000/svg"
   xmlns="http://www.w3.org/2000/svg"
   xmlns:sodipodi="http://sodipodi.sourceforge.net/DTD/sodipodi-0.dtd"
   xmlns:inkscape="http://www.inkscape.org/namespaces/inkscape"
   width="16"
   height="16"
   viewBox="0 0 16 16"
   id="svg2"
   version="1.1"
   inkscape:version="0.91 r13725"
   sodipodi:docname="maple.svg">
  <defs
     id="defs4" />
  <sodipodi:namedview
     id="base"
     pagecolor="#ffffff"
     bordercolor="#666666"
     borderopacity="1.0"
     inkscape:pageopacity="0.0"
     inkscape:pageshadow="2"
     inkscape:zoom="20.48"
     inkscape:cx="4.0379225"
     inkscape:cy="5.1315792"
     inkscape:document-units="px"
     inkscape:current-layer="layer1"
     showgrid="false"
     units="px"
     inkscape:window-width="1364"
     inkscape:window-height="684"
     inkscape:window-x="0"
     inkscape:window-y="27"
     inkscape:window-maximized="1" />
  <metadata
     id="metadata7">
    <rdf:RDF>
      <cc:Work
         rdf:about="">
        <dc:format>image/svg+xml</dc:format>
        <dc:type
           rdf:resource="http://purl.org/dc/dcmitype/StillImage" />
        <dc:title></dc:title>
      </cc:Work>
    </rdf:RDF>
  </metadata>
  <g
     inkscape:label="Layer 1"
     inkscape:groupmode="layer"
     id="layer1"
     transform="translate(0,-1036.3622)">
    <path
       style="fill:#000000;fill-opacity:0"
       id="path3338"
       sodipodi:type="arc"
       sodipodi:cx="325.71429"
       sodipodi:cy="409.50507"
       sodipodi:rx="177.14285"
       sodipodi:ry="131.42857"
       sodipodi:start="0"
       sodipodi:end="6.2670742"
       d="M 502.85715,409.50507 A 177.14285,131.42857 0 0 1 326.42778,540.93257 177.14285,131.42857 0 0 1 148.57719,410.56378 177.14285,131.42857 0 0 1 323.57387,278.08609 177.14285,131.42857 0 0 1 502.83416,407.3877 l -177.11987,2.11737 z" />
    <path
       style="fill:#000000;fill-opacity:0"
       id="path3340"
       sodipodi:type="arc"
       sodipodi:cx="291.42856"
       sodipodi:cy="482.36221"
       sodipodi:rx="111.42857"
       sodipodi:ry="75.714287"
       sodipodi:start="0"
       sodipodi:end="6.2670759"
       d="m 402.85713,482.36221 a 111.42857,75.714287 0 0 1 -110.97981,75.71368 111.42857,75.714287 0 0 1 -111.87372,-75.10383 111.42857,75.714287 0 0 1 110.0787,-76.31861 111.42857,75.714287 0 0 1 112.76037,74.4891 l -111.41411,1.21966 z" />
    <g
       transform="matrix(0.01559498,0,0,0.01929555,-0.3476289,1039.5458)"
       id="g51">
      <path
         style="fill:#cc2920"
         inkscape:connector-curvature="0"
         d="m 477.5,239.945 19.363,11.837 26.137,-13.087 -45.5,1.25"
         transform="matrix(0,-1.25,-1.25,0,1052.5,744.025)"
         id="path53" />
      <path
         style="fill:#cc2920"
         inkscape:connector-curvature="0"
         d="m 548.5,98.195 -62.367,-4.372 -7.152,7.749 69.519,-3.377"
         transform="matrix(0,-1.25,-1.25,0,1052.5,744.025)"
         id="path55" />
      <path
         style="fill:#cc2920"
         inkscape:connector-curvature="0"
         d="m 380.25,93.945 -0.516,-6.977 -2.734,-3.273 -0.25,-22.25 -2.679,2.277 -3.278,24.141 13.412,18.776 -3.955,-12.694"
         transform="matrix(0,-1.25,-1.25,0,1052.5,744.025)"
         id="path57" />
      <path
         style="fill:#cc2920"
         inkscape:connector-curvature="0"
         d="m 478.385,393.052 -4.885,-0.107 -17.75,-8 -2.103,-4.113 -8.047,-0.298 -8.047,2.384 -1.303,2.027 -12.704,1.252 -5.296,3.248 6,-10.75 0.19,-2.929 6.855,0.596 11.205,-3.667 1.61,-4.082 10.39,-7.668 -8.303,0.217 -1.789,1.49 -29.207,1.788 -1.789,-1.192 -31.293,-1.192 -0.597,-2.98 4.471,-2.385 26.823,-7.153 0.684,-2.843 11.75,-2.25 14.25,-8.25 9.975,-2.751 5.961,-4.768 6.557,-0.298 4.47,-2.981 12.037,-2.952 -16.507,-0.624 -16.094,4.47 -7.149,2.904 -25.25,7.75 -74.75,-32 -2.75,-13.25 35.687,9.86 4.063,2.89 19.75,2.25 61,-58.5 -40.25,-0.25 -3.25,-7.5 4.287,-3.266 0.213,-8.234 3.065,-0.708 3.875,-14.305 7.153,-4.471 5.657,-7.016 9.245,-1.031 7.255,-8.469 8.839,-4.048 0.911,-4.952 8.25,1.5 0.75,-3.25 -17.958,-7.306 -8.542,-0.194 1,-5.25 5.25,-5.75 5.25,-17.25 16.25,-27.5 -32.918,11.537 -11.326,12.517 -0.506,4.946 -9.925,7.572 -0.575,3.928 -4.25,3.75 -1.434,-3.804 2.934,-7.696 -0.5,-14.5 4.25,-8.75 3,-16.25 -14.25,17.5 -5.25,20.25 -14.623,29.713 -7.877,21.787 -4.342,3.844 0.842,-16.094 6,-23.5 0.311,-5.41 -10.061,-32.34 -18,21.75 0,5.25 -5.32,2.658 -7.18,14.342 -8.616,2.646 -7.884,-3.896 -16.5,6.5 2.926,1.867 -6.557,16.094 0.631,5.039 -3.015,1.517 2.515,26.483 -0.75,14.25 -2.66,-1.392 -1.59,-3.358 -1.986,1.272 -4.769,-5.663 -5.245,-1.609 -5.782,-12.399 -5.968,-20.851 -1.75,18.25 1.757,14.821 -19.67,34.274 -12.587,-32.345 -8.5,-40.75 -8.121,14.084 -6.129,16.916 -12.25,-12.75 -3.676,-6.848 -6.324,15.848 -1,-2 -19.75,4.25 -15.75,-0.75 -5.458,1.726 4.208,19.524 18.741,8.789 -14.306,9.835 9.815,16.876 5.087,16.505 19.163,-1.505 12.727,0.909 -0.298,1.788 -15.2,4.768 -8.229,6.535 -19.75,8 -8.083,1.559 -8.917,5.941 19.348,0.318 5.902,-2.568 3.337,2.568 12.663,-0.818 10.5,3 -1.704,3.481 2.682,3.874 2.086,8.047 4.686,3.348 0.679,6.488 10.321,-5.238 4.879,1.065 11.621,-6.065 13.116,-1.982 -0.894,5.365 1.278,4.867 -2.75,5 -3.25,9.75 23.2,-13.359 3.05,-5.891 27,-17.25 0.75,-8.5 2.879,8.096 -8.379,15.654 -12,21.75 -10,14.75 -12.837,14.905 -35.466,51.56 1.303,35.035 -1.601,13.545 -0.894,44.705 -3.755,27.25 -11,6.75 -3.724,3.553 -10.431,1.788 -9.239,1.49 -2.087,4.769 0,7.451 -4.019,7.949 14.75,0.5 5.5,13.75 2.844,0.153 12.517,-16.988 0,-3.576 8.047,-5.067 11.342,-8.522 2.75,-5.25 -1.872,-36.894 -0.596,-42.917 0.596,-15.796 -0.894,-7.451 -0.234,-20.692 19.25,-33 33.14,-47.342 14.306,-25.929 6.304,-11.729 3.83,-3.173 -5.663,25.929 2.833,7.744 -15.5,32 -0.149,4.961 5.961,0.597 21.757,-21.757 1.181,35.949 39.352,21.87 0.298,4.173 2.086,-1.491 9.239,4.173 -0.225,-29.975 -2.457,-16.817 2.086,0.298 9.371,8.769 1.955,10.902 16.69,27.121 1.605,7.727 5,-1.75 -3.923,-29.224 6.423,-1.526 18.314,5.997 8.686,-0.997 2.342,3.381 36.158,7.619 -23.939,-17.454 0,-3.279 32.188,-9.835 1.001,-7.432 -6.365,-3.893"
         transform="matrix(0,-1.25,-1.25,0,1052.5,744.025)"
         id="path59" />
      <path
         style="fill:#923b20"
         inkscape:connector-curvature="0"
         d="m 478.981,101.572 -38.149,28.91 97.111,-31.894 -58.962,2.984"
         transform="matrix(0,-1.25,-1.25,0,1052.5,744.025)"
         id="path61" />
      <path
         style="fill:#923b20"
         inkscape:connector-curvature="0"
         d="m 494.181,176.081 -39.639,-1.192 40.235,17.286 24.163,13.417 -24.759,-29.511"
         transform="matrix(0,-1.25,-1.25,0,1052.5,744.025)"
         id="path63" />
      <path
         style="fill:#923b20"
         inkscape:connector-curvature="0"
         d="m 504.016,384.707 -5.366,-21.589 -16.883,39.647 1.982,1.612 28.612,-9.835 -8.345,-9.835"
         transform="matrix(0,-1.25,-1.25,0,1052.5,744.025)"
         id="path65" />
      <path
         style="fill:#923b20"
         inkscape:connector-curvature="0"
         d="m 471.232,234.198 -21.161,19.373 46.792,-1.789 -25.631,-17.584"
         transform="matrix(0,-1.25,-1.25,0,1052.5,744.025)"
         id="path67" />
      <path
         style="fill:#923b20"
         inkscape:connector-curvature="0"
         d="m 427.718,274.433 -17.882,18.18 41.129,8.942 -23.247,-27.122"
         transform="matrix(0,-1.25,-1.25,0,1052.5,744.025)"
         id="path69" />
      <path
         style="fill:#923b20"
         inkscape:connector-curvature="0"
         d="m 383.609,316.158 -32.188,-12.219 12.466,-4.644 -29.124,-8.884 2.948,14.72 75.462,32.347 27.361,-8.504 -56.925,-12.816"
         transform="matrix(0,-1.25,-1.25,0,1052.5,744.025)"
         id="path71" />
      <path
         style="fill:#923b20"
         inkscape:connector-curvature="0"
         d="m 421.161,103.361 -12.219,-10.73 -7.175,-14.686 1.512,17.07 10.431,28.016 15.817,-17.729 -8.366,-1.941"
         transform="matrix(0,-1.25,-1.25,0,1052.5,744.025)"
         id="path73" />
      <path
         style="fill:#923b20"
         inkscape:connector-curvature="0"
         d="m 377.648,450.871 -2.885,0.424 -1.288,-7.875 -9.239,-4.173 0.407,28.578 39.067,5.653 -26.062,-22.607"
         transform="matrix(0,-1.25,-1.25,0,1052.5,744.025)"
         id="path75" />
      <path
         style="fill:#923b20"
         inkscape:connector-curvature="0"
         d="m 382.119,103.361 -2.385,-3.279 -6.855,-9.835 -2.086,-2.384 -2.086,10.133 -2.981,17.882 5.067,5.961 1.788,7.153 10.73,31.293 2.086,-3.874 4.768,-26.823 1.789,-9.836 -7.749,-13.113 -2.086,-3.278"
         transform="matrix(0,-1.25,-1.25,0,1052.5,744.025)"
         id="path77" />
      <path
         style="fill:#923b20"
         inkscape:connector-curvature="0"
         d="m 326.683,170.717 -15.2,-10.432 -29.505,28.314 44.705,-17.882"
         transform="matrix(0,-1.25,-1.25,0,1052.5,744.025)"
         id="path79" />
      <path
         style="fill:#923b20"
         inkscape:connector-curvature="0"
         d="m 244.723,231.814 12.527,36.381 11.912,-21.479 -24.439,-14.902"
         transform="matrix(0,-1.25,-1.25,0,1052.5,744.025)"
         id="path81" />
      <path
         style="fill:#923b20"
         inkscape:connector-curvature="0"
         d="m 183.029,159.391 16.69,61.396 6.855,-16.69 -23.545,-44.706"
         transform="matrix(0,-1.25,-1.25,0,1052.5,744.025)"
         id="path83" />
      <path
         style="fill:#56201b"
         inkscape:connector-curvature="0"
         d="m 181.837,596.61 -2.384,3.875 4.047,2.46 4.894,-1.268 4.172,0.894 1.684,6.374 3.25,2.25 1.325,11.344 4.769,-8.941 -2.384,-1.788 0,-7.749 2.79,-1.116 -1.598,-4.248 2.598,-2.252 -4.983,-11.756 -2.767,0.506 -2.895,4.56 -6.855,-1.56 2.384,4.541 -3.278,2.384 -4.769,1.49"
         transform="matrix(0,-1.25,-1.25,0,1052.5,744.025)"
         id="path85" />
      <path
         style="fill:#923b20"
         inkscape:connector-curvature="0"
         d="m 158.292,223.171 -36.542,68.524 45.185,-30.376 15.315,-10.374 -17.997,-8.402 -5.961,-19.372"
         transform="matrix(0,-1.25,-1.25,0,1052.5,744.025)"
         id="path87" />
      <path
         style="fill:#56201b"
         inkscape:connector-curvature="0"
         d="m 366.919,268.473 12.517,10.431 3.752,-5.019 7.276,-11.075 17.882,-3.875 6.571,-14.343 -1.894,-3.94 -46.104,27.821"
         transform="matrix(0,-1.25,-1.25,0,1052.5,744.025)"
         id="path89" />
      <path
         style="fill:#56201b"
         inkscape:connector-curvature="0"
         d="m 360.064,214.23 -10.134,26.823 15.2,-9.537 10.134,0.596 0.894,-26.227 -16.094,8.345"
         transform="matrix(0,-1.25,-1.25,0,1052.5,744.025)"
         id="path91" />
      <path
         style="fill:#56201b"
         inkscape:connector-curvature="0"
         d="m 306.165,242.968 -22.646,46.496 25.282,-16.521 -3.718,-22.246 1.082,-7.729"
         transform="matrix(0,-1.25,-1.25,0,1052.5,744.025)"
         id="path93" />
      <path
         style="fill:#56201b"
         inkscape:connector-curvature="0"
         d="m 409.624,349.674 11.94,14.647 -7.729,0.271 -4.211,-1.354 -20.949,0.01 -7.111,-1.243 -0.541,-4.06 28.601,-8.271"
         transform="matrix(0,-1.25,-1.25,0,1052.5,744.025)"
         id="path95" />
      <path
         style="fill:#56201b"
         inkscape:connector-curvature="0"
         d="m 373.293,429.674 0,-15.729 -2.857,-19.248 12.211,10.436 1.353,10.977 -10.707,13.564"
         transform="matrix(0,-1.25,-1.25,0,1052.5,744.025)"
         id="path97" />
    </g>
    <g
       transform="matrix(0.01982434,0,0,0.02238092,-0.5073759,1033.5203)"
       id="g23">
      <path
         style="fill:#923b20"
         inkscape:connector-curvature="0"
         d="m 165.25,375.445 c -3.61,-13.842 -19.177,-31.271 -19.177,-31.271 0,0 13.524,26.029 9.927,42.771 -2.44,11.357 -14.398,26.075 -14.398,26.075 l 14.902,11.623 c 7.996,-7.198 14.473,-27.239 8.746,-49.198"
         transform="matrix(0,-1.25,-1.25,0,1052.5,744.025)"
         id="path25" />
      <path
         style="fill:#e99022"
         inkscape:connector-curvature="0"
         d="m 139,376.195 2.602,4.637 6.259,8.047 20.594,11.295 -11.951,24.469 5.246,4.552 3.397,6.178 -11.623,16.69 2.726,1.382 3.234,-0.19 5.961,0.894 -2.086,3.576 -6.109,0.72 -2.75,3.5 -6,0.75 -1.533,2.183 -5.365,2.087 -3.602,1.98 -6.233,0.404 6.259,2.682 7.749,0.298 2.725,1.866 9.792,1.711 3.279,0 0.596,2.98 -4.667,5.059 -3,0.25 -3.957,4.228 -8.543,4.522 -23.5,25 11.777,-0.91 14.901,-3.875 7.749,-0.596 38.823,9.381 -0.078,4.031 -2.682,3.278 -5.24,2.191 -1.75,3.75 -18.045,11.345 15.545,5.655 5.913,-0.29 1.193,2.086 30.4,-4.769 2.744,-2.777 17.522,-3.481 16.728,-9.519 3.837,1.174 -11.922,30.399 2.086,5.067 9.749,-8.89 6.047,-1.541 24.703,-23.959 16.75,-11.25 0.869,5.107 -1.869,14.893 -5.5,16.5 -3.361,10.928 -5.389,7.322 -0.25,7 -2.706,9.223 -6.855,16.392 -14.603,21.161 10.133,42.023 -0.596,5.961 5.365,26.227 0,4.47 3.576,8.345 2.436,16.198 -0.052,6.155 2.552,3.595 -0.764,11.903 3.264,9.097 1.505,18.918 -0.505,12.832 3.5,2.5 3.264,0.166 -0.764,-2.916 2,-3 7.75,-10.75 6.25,-5.75 5,-1.5 4.799,-10.358 5.701,-0.392 -4.807,-6.761 -4.193,-5.989 -11.007,-8.615 0.007,-2.885 -8.948,-11.718 -8.552,-29.032 -15.5,-66.75 9.448,-16.876 9.239,-23.545 5.067,-10.729 -0.504,-4.35 6.167,-7.87 7.153,-30.399 0,-14.008 2.682,-9.239 13.435,50.729 16.813,11.787 15,-0.5 61.449,-11.648 -50.949,-9.352 -10,-10.5 31.5,-13.5 44.5,-28 -57,10 -14.5,-0.5 20.5,-13 55.62,-50.786 -26.525,-8.047 -50.095,19.833 0.5,-11 -18.06,4.28 0,-2.086 15.06,-15.694 -1.5,-4.5 -38.595,-20.935 -1.192,-22.949 -8.643,2.087 -3.279,5.066 -8.941,3.577 -2.85,5.154 -6.389,-0.684 -0.298,0.596 -13.313,27.088 -9.04,-8.908 -12.96,-6.592 -3.432,-11.886 -13.71,-18.18 -2.682,30.4 -0.894,0.298 L 213,409.195 191.672,405.271 190.5,401.695 176.77,396.33 176,391.695 151.139,384.11 139,376.195"
         transform="matrix(0,-1.25,-1.25,0,1052.5,744.025)"
         id="path27" />
      <path
         style="fill:#923b20"
         inkscape:connector-curvature="0"
         d="m 444.706,435.671 -31.533,9.037 65.414,18.297 -33.881,-27.334"
         transform="matrix(0,-1.25,-1.25,0,1052.5,744.025)"
         id="path29" />
      <path
         style="fill:#923b20"
         inkscape:connector-curvature="0"
         d="m 319.531,788.844 -5.067,-10.73 -5.663,5.067 -8.643,11.623 -2.682,4.173 1.788,2.384 4.471,-0.435 8.642,-5.824 8.942,-2.086 1,-2.872 -2.788,-1.3"
         transform="matrix(0,-1.25,-1.25,0,1052.5,744.025)"
         id="path31" />
      <path
         style="fill:#923b20"
         inkscape:connector-curvature="0"
         d="m 214.25,504.195 -63.5,8.25 4.562,1.609 33.938,8.391 2.422,3.531 15.328,-9.531 7.25,-12.25"
         transform="matrix(0,-1.25,-1.25,0,1052.5,744.025)"
         id="path33" />
      <path
         style="fill:#923b20"
         inkscape:connector-curvature="0"
         d="M 163.955,546.54 154.417,598.399 180,551.695 163.955,546.54"
         transform="matrix(0,-1.25,-1.25,0,1052.5,744.025)"
         id="path35" />
      <path
         style="fill:#923b20"
         inkscape:connector-curvature="0"
         d="m 81.1,493.192 37.255,25.035 24.439,-25.631 -61.694,0.596"
         transform="matrix(0,-1.25,-1.25,0,1052.5,744.025)"
         id="path37" />
      <path
         style="fill:#56201b"
         inkscape:connector-curvature="0"
         d="m 353.805,525.976 -4.512,11.758 -4.429,4.336 0,2.384 17.301,3.867 2.046,-1.353 -10.406,-20.992"
         transform="matrix(0,-1.25,-1.25,0,1052.5,744.025)"
         id="path39" />
      <path
         style="fill:#56201b"
         inkscape:connector-curvature="0"
         d="m 299.562,400.503 -5.457,-0.663 -1.994,6.921 6.596,1.349 2.857,-5.413 8.541,-0.963 4.602,-7.578 7.458,-1.234 -0.27,-14.917 -22.333,22.498"
         transform="matrix(0,-1.25,-1.25,0,1052.5,744.025)"
         id="path41" />
      <path
         style="fill:#56201b"
         inkscape:connector-curvature="0"
         d="m 312.271,442.968 -2.576,-3.721 -2.384,-15.2 -2.499,4.545 0,14.376 -2.27,5.22 -2.331,2.238 0.543,6.703 5.953,2.38 5.564,6.225 6.376,6.106 -6.376,-28.872"
         transform="matrix(0,-1.25,-1.25,0,1052.5,744.025)"
         id="path43" />
      <path
         style="fill:#56201b"
         inkscape:connector-curvature="0"
         d="m 208.064,445.506 -30.711,4.228 -16.27,3.399 8.541,2.707 5.954,-0.797 12.903,4.466 3.248,4.06 5.023,-5.835 17.895,-10.977 -6.583,-1.251"
         transform="matrix(0,-1.25,-1.25,0,1052.5,744.025)"
         id="path45" />
      <path
         style="fill:#56201b"
         inkscape:connector-curvature="0"
         d="m 165,409.445 -13.541,-18.417 20.291,8.667 14,11 0.415,5.957 -4.872,-4.06 -10.586,-3.94 -5.707,0.793"
         transform="matrix(0,-1.25,-1.25,0,1052.5,744.025)"
         id="path47" />
      <path
         style="fill:#56201b"
         inkscape:connector-curvature="0"
         d="m 289.131,411.53 1.788,-0.894 0.894,-3.279 -0.894,3.279 -1.788,0.894"
         transform="matrix(0,-1.25,-1.25,0,1052.5,744.025)"
         id="path49" />
    </g>
  </g>
</svg>
