<?xml version="1.0" encoding="UTF-8" standalone="no"?>
<!-- Created with Inkscape (http://www.inkscape.org/) -->

<svg
   xmlns:dc="http://purl.org/dc/elements/1.1/"
   xmlns:cc="http://creativecommons.org/ns#"
   xmlns:rdf="http://www.w3.org/1999/02/22-rdf-syntax-ns#"
   xmlns:svg="http://www.w3.org/2000/svg"
   xmlns="http://www.w3.org/2000/svg"
   xmlns:sodipodi="http://sodipodi.sourceforge.net/DTD/sodipodi-0.dtd"
   xmlns:inkscape="http://www.inkscape.org/namespaces/inkscape"
   width="16px"
   height="16px"
   id="svg2385"
   sodipodi:version="0.32"
   inkscape:version="0.91 r13725"
   sodipodi:docname="mobile_reload.svg"
   inkscape:output_extension="org.inkscape.output.svg.inkscape"
   version="1.1">
  <defs
     id="defs2387">
    <inkscape:perspective
       sodipodi:type="inkscape:persp3d"
       inkscape:vp_x="0 : 8 : 1"
       inkscape:vp_y="0 : 1000 : 0"
       inkscape:vp_z="16 : 8 : 1"
       inkscape:persp3d-origin="8 : 5.3333333 : 1"
       id="perspective2393" />
  </defs>
  <sodipodi:namedview
     id="base"
     pagecolor="#ffffff"
     bordercolor="#666666"
     borderopacity="1.0"
     inkscape:pageopacity="0.0"
     inkscape:pageshadow="2"
     inkscape:zoom="30.0625"
     inkscape:cx="8"
     inkscape:cy="8"
     inkscape:current-layer="layer1"
     showgrid="true"
     inkscape:grid-bbox="true"
     inkscape:document-units="px"
     gridtolerance="3"
     guidetolerance="3"
     inkscape:window-width="1366"
     inkscape:window-height="671"
     inkscape:window-x="0"
     inkscape:window-y="29"
     inkscape:window-maximized="1"
     inkscape:snap-bbox="true"
     inkscape:object-nodes="true">
    <inkscape:grid
       type="xygrid"
       id="grid3169"
       visible="true"
       enabled="true" />
  </sodipodi:namedview>
  <metadata
     id="metadata2390">
    <rdf:RDF>
      <cc:Work
         rdf:about="">
        <dc:format>image/svg+xml</dc:format>
        <dc:type
           rdf:resource="http://purl.org/dc/dcmitype/StillImage" />
        <dc:title></dc:title>
      </cc:Work>
    </rdf:RDF>
  </metadata>
  <g
     id="layer1"
     inkscape:label="Layer 1"
     inkscape:groupmode="layer">
    <path
       style="fill:#87aade;fill-opacity:1;fill-rule:evenodd;stroke:#000000;stroke-width:0.4176985;stroke-linecap:butt;stroke-linejoin:miter;stroke-miterlimit:4;stroke-dasharray:none;stroke-opacity:1"
       d="M 1.0181028,9 C 1.1626409,5.0078617 6.5110364,2.5998024 6.5674132,2.837699 6.8864904,3.6052629 6.0414049,5.3596921 5.5917103,5.9720391 5.3012598,6.108351 5.7961531,4.7592542 5.5594292,4.8902753 3.1531706,6.2220868 3.1144593,6.9540353 3,9 c 0.3868979,2.164464 1.9892216,3.042572 3.6992652,3.815064 -0.4303696,0.513033 -0.6150198,1.365997 -0.1318517,2.347238 0,0 -2.799087,-1.191044 -3.8062376,-2.352554 C 1.871459,11.783669 0.9665719,10.423272 1.0181028,9 Z"
       id="path2385-1"
       inkscape:connector-curvature="0"
       sodipodi:nodetypes="sccscccas" />
    <path
       style="fill:#87aade;fill-opacity:1;fill-rule:evenodd;stroke:#000000;stroke-width:0.4176985;stroke-linecap:butt;stroke-linejoin:miter;stroke-miterlimit:4;stroke-dasharray:none;stroke-opacity:1"
       d="m 15.205625,7.4889188 c -0.144538,3.9921382 -5.4929346,6.4001972 -5.5493116,6.1623002 -0.319077,-0.767563 0.5260086,-2.521993 0.9757036,-3.13434 0.290451,-0.136312 -0.204442,1.212785 0.03228,1.081764 2.406259,-1.331811 2.44497,-2.0637592 2.55943,-4.1097242 -0.386898,-2.1644637 -1.989222,-3.0425717 -3.6992666,-3.8150637 0.43037,-0.513033 0.6150196,-1.365997 0.131852,-2.347238 0,0 2.7990876,1.191044 3.8062386,2.352554 0.889717,1.026079 1.794604,2.3864762 1.743073,3.8097477 z"
       id="path2385-1-2"
       inkscape:connector-curvature="0"
       sodipodi:nodetypes="sccscccas" />
  </g>
</svg>
