<?xml version="1.0" encoding="UTF-8" standalone="no"?>
<!-- Generator: Adobe Illustrator 18.0.0, SVG Export Plug-In . SVG Version: 6.00 Build 0)  -->

<svg
   xmlns:dc="http://purl.org/dc/elements/1.1/"
   xmlns:cc="http://creativecommons.org/ns#"
   xmlns:rdf="http://www.w3.org/1999/02/22-rdf-syntax-ns#"
   xmlns:svg="http://www.w3.org/2000/svg"
   xmlns="http://www.w3.org/2000/svg"
   xmlns:sodipodi="http://sodipodi.sourceforge.net/DTD/sodipodi-0.dtd"
   xmlns:inkscape="http://www.inkscape.org/namespaces/inkscape"
   version="1.1"
   id="Capa_1"
   x="0px"
   y="0px"
   viewBox="0 0 16 16"
   xml:space="preserve"
   inkscape:version="0.91 r13725"
   sodipodi:docname="preview.svg"
   width="16"
   height="16"><metadata
     id="metadata43"><rdf:RDF><cc:Work
         rdf:about=""><dc:format>image/svg+xml</dc:format><dc:type
           rdf:resource="http://purl.org/dc/dcmitype/StillImage" /><dc:title></dc:title></cc:Work></rdf:RDF></metadata><defs
     id="defs41" /><sodipodi:namedview
     pagecolor="#ffffff"
     bordercolor="#666666"
     borderopacity="1"
     objecttolerance="10"
     gridtolerance="10"
     guidetolerance="10"
     inkscape:pageopacity="0"
     inkscape:pageshadow="2"
     inkscape:window-width="1600"
     inkscape:window-height="848"
     id="namedview39"
     showgrid="false"
     inkscape:zoom="42.75"
     inkscape:cx="8"
     inkscape:cy="8"
     inkscape:window-x="0"
     inkscape:window-y="0"
     inkscape:window-maximized="1"
     inkscape:current-layer="Capa_1" /><g
     id="g3"
     transform="matrix(0.02515801,0,0,0.02600347,2.6987946,2.2575265)"><path
       d="M 432.438,435.688 366.39,369.64 c 34.533,-44.958 31.232,-109.829 -9.913,-150.974 -11.978,-11.978 -26.139,-20.974 -41.583,-26.633 l 0,-103.703 c 0,-3.979 -1.58,-7.794 -4.394,-10.606 L 237.17,4.394 C 234.358,1.58 230.542,0 226.564,0 L 39.463,0 c -8.284,0 -15,6.716 -15,15 l 0,319.199 c 0,8.284 6.716,15 15,15 l 132.31,0 c 5.465,11.485 12.936,22.246 22.431,31.74 21.672,21.673 50.486,33.608 81.137,33.608 25.591,0 49.899,-8.327 69.843,-23.689 l 66.042,66.043 c 2.929,2.93 6.768,4.394 10.606,4.394 3.838,0 7.678,-1.465 10.606,-4.394 5.858,-5.857 5.858,-15.355 0,-21.213 z M 241.562,51.211 l 22.121,22.121 -22.121,0 0,-22.121 z M 54.463,319.199 54.463,30 l 157.099,0 0,58.332 c 0,8.284 6.716,15 15,15 l 58.332,0 0,82.123 c -3.161,-0.259 -6.346,-0.397 -9.554,-0.397 -8.109,0 -16.087,0.844 -23.84,2.474 l -171.067,0 c -5.522,0 -10,4.478 -10,10 0,5.522 4.478,10 10,10 l 126.66,0 c -4.524,3.361 -8.832,7.077 -12.889,11.135 -5.262,5.262 -9.897,10.916 -13.921,16.863 l -99.85,0 c -5.522,0 -10,4.478 -10,10 0,5.522 4.478,10 10,10 l 89.055,0 c -8.422,20.21 -10.826,42.356 -7.2,63.67 l -107.825,0 z m 139.02,-41.171 64.151,0 c 5.522,0 10,-4.478 10,-10 0,-5.522 -4.478,-10 -10,-10 l -56.01,0 c 3.679,-6.498 8.262,-12.619 13.793,-18.149 16.006,-16.006 37.287,-24.821 59.924,-24.821 11.921,0 23.457,2.468 34.054,7.121 l 0,122.841 -105.711,0 c -12.727,-20.167 -16.128,-44.559 -10.201,-66.992 z m 27.748,86.992 98.163,0 c 5.522,0 10,-4.478 10,-10 l 0,-120.482 c 2.024,1.682 3.986,3.457 5.87,5.341 33.042,33.042 33.042,86.806 0,119.848 -16.007,16.006 -37.288,24.821 -59.924,24.821 -19.997,0 -38.93,-6.89 -54.109,-19.528 z"
       id="path5"
       inkscape:connector-curvature="0" /><path
       d="m 80.433,159.534 178.491,0 c 5.522,0 10,-4.478 10,-10 0,-5.522 -4.478,-10 -10,-10 l -178.491,0 c -5.522,0 -10,4.478 -10,10 0,5.522 4.478,10 10,10 z"
       id="path7"
       inkscape:connector-curvature="0" /></g><g
     id="g9"
     transform="translate(0,-445.29501)" /><g
     id="g11"
     transform="translate(0,-445.29501)" /><g
     id="g13"
     transform="translate(0,-445.29501)" /><g
     id="g15"
     transform="translate(0,-445.29501)" /><g
     id="g17"
     transform="translate(0,-445.29501)" /><g
     id="g19"
     transform="translate(0,-445.29501)" /><g
     id="g21"
     transform="translate(0,-445.29501)" /><g
     id="g23"
     transform="translate(0,-445.29501)" /><g
     id="g25"
     transform="translate(0,-445.29501)" /><g
     id="g27"
     transform="translate(0,-445.29501)" /><g
     id="g29"
     transform="translate(0,-445.29501)" /><g
     id="g31"
     transform="translate(0,-445.29501)" /><g
     id="g33"
     transform="translate(0,-445.29501)" /><g
     id="g35"
     transform="translate(0,-445.29501)" /><g
     id="g37"
     transform="translate(0,-445.29501)" /></svg>