<?xml version="1.0" encoding="UTF-8" standalone="no"?>
<svg
   xmlns:dc="http://purl.org/dc/elements/1.1/"
   xmlns:cc="http://creativecommons.org/ns#"
   xmlns:rdf="http://www.w3.org/1999/02/22-rdf-syntax-ns#"
   xmlns:svg="http://www.w3.org/2000/svg"
   xmlns="http://www.w3.org/2000/svg"
   xmlns:sodipodi="http://sodipodi.sourceforge.net/DTD/sodipodi-0.dtd"
   xmlns:inkscape="http://www.inkscape.org/namespaces/inkscape"
   height="16"
   width="16"
   id="svg2"
   version="1.1"
   inkscape:version="0.91 r13725"
   sodipodi:docname="pull.svg">
  <metadata
     id="metadata10">
    <rdf:RDF>
      <cc:Work
         rdf:about="">
        <dc:format>image/svg+xml</dc:format>
        <dc:type
           rdf:resource="http://purl.org/dc/dcmitype/StillImage" />
        <dc:title></dc:title>
      </cc:Work>
    </rdf:RDF>
  </metadata>
  <defs
     id="defs8" />
  <sodipodi:namedview
     pagecolor="#ffffff"
     bordercolor="#666666"
     borderopacity="1"
     objecttolerance="10"
     gridtolerance="10"
     guidetolerance="10"
     inkscape:pageopacity="0"
     inkscape:pageshadow="2"
     inkscape:window-width="1600"
     inkscape:window-height="848"
     id="namedview6"
     showgrid="false"
     inkscape:zoom="42.75"
     inkscape:cx="8"
     inkscape:cy="8"
     inkscape:window-x="0"
     inkscape:window-y="0"
     inkscape:window-maximized="1"
     inkscape:current-layer="svg2" />
  <path
     d="m 14.70116,5.6473387 -2.440678,-2.440678 0,1.6271186 -4.8813562,0 0,1.6271187 4.8813562,0 0,1.6271186 2.440678,-2.4406779 z m -4.067797,4.0677965 -6.5084745,0 0,-7.3220338 6.5084745,0 0,1.6271186 0.813559,0 0,-1.6271186 c 0,-0.8135594 -0.813559,-0.8135594 -0.813559,-0.8135594 l -8.1355932,0 c 0,0 -0.8135593,0 -0.8135593,0.8135594 l 0,9.7627116 c 0,0.813559 0.8135593,0.813559 0.8135593,0.813559 l 1.6271187,0 0,1.627119 1.2203389,-1.220339 1.220339,1.220339 0,-1.627119 4.0677966,0 c 0,0 0.813559,-0.0143 0.813559,-0.813559 l 0,-4.8813557 -0.813559,0 0,2.4406779 z m 0,1.6271188 c 0,0.783368 -0.8135593,0.813559 -0.8135593,0.813559 l -3.2542373,0 0,-0.813559 -2.4406779,0 0,0.813559 -0.8135594,0 c -0.8135593,0 -0.8135593,-0.813559 -0.8135593,-0.813559 l 0,-0.81356 8.1355932,0 0,0.81356 z m -4.8813559,-6.5084747 -0.8135593,0 0,0.8135594 0.8135593,0 0,-0.8135594 z m 0,-1.6271186 -0.8135593,0 0,0.8135593 0.8135593,0 0,-0.8135593 z m 0,3.2542373 -0.8135593,0 0,0.8135593 0.8135593,0 0,-0.8135593 z m -0.8135593,2.4406782 0.8135593,0 0,-0.8135596 -0.8135593,0 0,0.8135596 z"
     id="path4"
     inkscape:connector-curvature="0" />
</svg>
