<?xml version="1.0" encoding="UTF-8" standalone="no"?>
<!-- Generator: Adobe Illustrator 16.0.0, SVG Export Plug-In . SVG Version: 6.00 Build 0)  -->

<svg
   xmlns:dc="http://purl.org/dc/elements/1.1/"
   xmlns:cc="http://creativecommons.org/ns#"
   xmlns:rdf="http://www.w3.org/1999/02/22-rdf-syntax-ns#"
   xmlns:svg="http://www.w3.org/2000/svg"
   xmlns="http://www.w3.org/2000/svg"
   xmlns:sodipodi="http://sodipodi.sourceforge.net/DTD/sodipodi-0.dtd"
   xmlns:inkscape="http://www.inkscape.org/namespaces/inkscape"
   version="1.1"
   id="Capa_1"
   x="0px"
   y="0px"
   width="16"
   height="16"
   viewBox="0 0 16 16"
   xml:space="preserve"
   inkscape:version="0.91 r13725"
   sodipodi:docname="save.svg"><metadata
     id="metadata41"><rdf:RDF><cc:Work
         rdf:about=""><dc:format>image/svg+xml</dc:format><dc:type
           rdf:resource="http://purl.org/dc/dcmitype/StillImage" /><dc:title /></cc:Work></rdf:RDF></metadata><defs
     id="defs39" /><sodipodi:namedview
     pagecolor="#ffffff"
     bordercolor="#666666"
     borderopacity="1"
     objecttolerance="10"
     gridtolerance="10"
     guidetolerance="10"
     inkscape:pageopacity="0"
     inkscape:pageshadow="2"
     inkscape:window-width="1600"
     inkscape:window-height="848"
     id="namedview37"
     showgrid="true"
     inkscape:zoom="42.75"
     inkscape:cx="8.1052632"
     inkscape:cy="8"
     inkscape:window-x="0"
     inkscape:window-y="0"
     inkscape:window-maximized="1"
     inkscape:current-layer="Capa_1"><inkscape:grid
       type="xygrid"
       id="grid4149" /></sodipodi:namedview><g
     id="g3"
     transform="matrix(-0.02768403,0,0,0.02740694,14.114332,1.9765296)"><path
       d="m 432.823,121.049 c -3.806,-9.132 -8.377,-16.367 -13.709,-21.695 L 339.173,19.412 C 333.848,14.087 326.613,9.517 317.477,5.708 308.346,1.903 299.969,0 292.357,0 L 27.409,0 C 19.798,0 13.325,2.663 7.995,7.993 2.665,13.32 0.003,19.792 0.003,27.407 l 0,383.719 c 0,7.617 2.662,14.089 7.992,19.417 5.33,5.325 11.803,7.991 19.414,7.991 l 383.718,0 c 7.618,0 14.089,-2.666 19.417,-7.991 5.325,-5.328 7.987,-11.8 7.987,-19.417 l 0,-264.948 c 0,-7.616 -1.902,-15.99 -5.708,-25.129 z M 182.725,45.677 c 0,-2.474 0.905,-4.611 2.714,-6.423 1.807,-1.804 3.949,-2.708 6.423,-2.708 l 54.819,0 c 2.468,0 4.609,0.902 6.417,2.708 1.813,1.812 2.717,3.949 2.717,6.423 l 0,91.362 c 0,2.478 -0.91,4.618 -2.717,6.427 -1.808,1.803 -3.949,2.708 -6.417,2.708 l -54.819,0 c -2.474,0 -4.617,-0.902 -6.423,-2.708 -1.809,-1.812 -2.714,-3.949 -2.714,-6.427 l 0,-91.362 z m 146.181,356.314 -219.273,0 0,-109.636 219.273,0 0,109.636 z m 73.094,0 -36.552,0 -0.007,0 0,-118.773 c 0,-7.617 -2.663,-14.085 -7.991,-19.417 -5.328,-5.328 -11.8,-7.994 -19.41,-7.994 l -237.542,0 c -7.614,0 -14.087,2.666 -19.417,7.994 -5.327,5.328 -7.992,11.8 -7.992,19.417 l 0,118.773 -36.545,0 0,-365.449 36.544,0 0,118.771 c 0,7.615 2.662,14.084 7.992,19.414 5.33,5.327 11.803,7.993 19.417,7.993 l 164.456,0 c 7.61,0 14.089,-2.666 19.41,-7.993 5.325,-5.327 7.994,-11.799 7.994,-19.414 l 0,-118.771 c 2.854,0 6.563,0.95 11.136,2.853 4.572,1.902 7.806,3.805 9.709,5.708 l 80.232,80.23 c 1.902,1.903 3.806,5.19 5.708,9.851 1.909,4.665 2.857,8.33 2.857,10.994 l 0,255.813 z"
       id="path5"
       inkscape:connector-curvature="0" /></g><g
     id="g7"
     transform="matrix(-0.02463657,0,0,0.02355013,13.262041,3.0800219)" /><g
     id="g9"
     transform="matrix(-0.02463657,0,0,0.02355013,13.262041,3.0800219)" /><g
     id="g11"
     transform="matrix(-0.02463657,0,0,0.02355013,13.262041,3.0800219)" /><g
     id="g13"
     transform="matrix(-0.02463657,0,0,0.02355013,13.262041,3.0800219)" /><g
     id="g15"
     transform="matrix(-0.02463657,0,0,0.02355013,13.262041,3.0800219)" /><g
     id="g17"
     transform="matrix(-0.02463657,0,0,0.02355013,13.262041,3.0800219)" /><g
     id="g19"
     transform="matrix(-0.02463657,0,0,0.02355013,13.262041,3.0800219)" /><g
     id="g21"
     transform="matrix(-0.02463657,0,0,0.02355013,13.262041,3.0800219)" /><g
     id="g23"
     transform="matrix(-0.02463657,0,0,0.02355013,13.262041,3.0800219)" /><g
     id="g25"
     transform="matrix(-0.02463657,0,0,0.02355013,13.262041,3.0800219)" /><g
     id="g27"
     transform="matrix(-0.02463657,0,0,0.02355013,13.262041,3.0800219)" /><g
     id="g29"
     transform="matrix(-0.02463657,0,0,0.02355013,13.262041,3.0800219)" /><g
     id="g31"
     transform="matrix(-0.02463657,0,0,0.02355013,13.262041,3.0800219)" /><g
     id="g33"
     transform="matrix(-0.02463657,0,0,0.02355013,13.262041,3.0800219)" /><g
     id="g35"
     transform="matrix(-0.02463657,0,0,0.02355013,13.262041,3.0800219)" /></svg>