<?xml version="1.0" encoding="UTF-8" standalone="no"?>
<svg viewBox="0 0 316.60504 332.12491" xmlns="http://www.w3.org/2000/svg">
<defs>
<clipPath id="clipPath9802">
<path d="m261.12813,178.47315c0,0-38.57575,19.28787-50.44521,87.53727-5.59275,32.15832 1.61234,80.9041 31.15733,100.89042 50.44521,34.1247 112.75988,56.37994 152.81931,35.60838s119.40751-113.52946 63.79835-194.36242c-34.1247-49.60335-51.92889-54.89625-97.92305-59.3473s-97.92304,29.67365-99.40673,29.67365z" fill-rule="evenodd"/>
</clipPath>
<filter id="filter8819">
<feGaussianBlur stdDeviation="3.16423"/>
</filter>
<filter id="filter9858">
<feGaussianBlur stdDeviation="3.91923"/>
</filter>
<filter id="filter20010"></filter>
<filter height="2.1931" id="filter38751" width="1.14818" x="-.07409" y="-.59655">
<feGaussianBlur stdDeviation="9.88087"/>
</filter>
<filter height="1.87753" id="filter35726" width="1.12506" x="-.06253" y="-.43877">
<feGaussianBlur stdDeviation="5.15449"/>
</filter>
<filter height="1.3374" id="filter6620" width="1.23483" x="-.11742" y="-.1687">
<feGaussianBlur stdDeviation="15.77093"/>
</filter>
<filter height="1.52724" id="filter6716" width="1.28409" x="-.14205" y="-.26362">
<feGaussianBlur stdDeviation="14.12959"/>
</filter>
<filter height="1.58639" id="filter19027" width="1.34786" x="-.17393" y="-.2932">
<feGaussianBlur stdDeviation="6.43053"/>
</filter>
<linearGradient gradientUnits="userSpaceOnUse" id="linearGradient23027" x1="269.87851" x2="281.47363" y1="202.21208" y2="314.4603">
<stop offset="0" stop-color="#fff"/>
<stop offset="1" stop-color="#fff" stop-opacity="0"/>
</linearGradient>
<radialGradient cx="325.95416" cy="195.24698" gradientTransform="matrix(1.07029,-9.5906697e-3,3.7456645e-3,.61118,-23.64248,78.39936)" gradientUnits="userSpaceOnUse" id="radialGradient22023" r="105.4082">
<stop offset="0"/>
<stop offset="1" stop-opacity="0"/>
</radialGradient>
<radialGradient cx="271.90884" cy="-61.01802" gradientTransform="matrix(1.0089175e-6,-2.8131,1.35971,1.1016889e-6,239.97741,832.44033)" gradientUnits="userSpaceOnUse" id="radialGradient22028" r="8.86545">
<stop offset="0" stop-color="#152609"/>
<stop offset="1" stop-color="#457526"/>
</radialGradient>
<radialGradient cx="197.74216" cy="-53.95449" gradientTransform="matrix(-1.3731994e-2,.24723,-.58918,-2.9297874e-2,130.50755,11.56067)" gradientUnits="userSpaceOnUse" id="radialGradient22034" r="105.8082" spreadMethod="reflect">
<stop offset="0" stop-color="#163800"/>
<stop offset=".69504" stop-color="#598c1d"/>
<stop offset="1" stop-color="#91a125"/>
</radialGradient>
<radialGradient cx="280.11124" cy="246.39078" gradientTransform="matrix(6.7004494e-3,-.46977,1.03827,1.4808963e-2,73.69906,392.57186)" gradientUnits="userSpaceOnUse" id="radialGradient23025" r="134.32591">
<stop offset="0" stop-color="#ff8626"/>
<stop offset="1" stop-color="#e12e00"/>
</radialGradient>
</defs>
<g transform="translate(-3.10397,2.98798)">
<path d="m411.79872,322.43326a133.36339,16.56333 0 1,1 -266.72677,0 133.36339,16.56333 0 1,1 266.72677,0z" fill="#4d4d4d" fill-rule="evenodd" filter="url(#filter38751)" opacity=".67692" transform="matrix(.88783,0,0,3.26726,-83.26217,-852.04349)"/>
<path d="m304.26598,314.99686a82.42985,11.74772 0 1,1 -164.85969,0 82.42985,11.74772 0 1,1 164.85969,0z" fill-opacity=".95339" fill-rule="evenodd" filter="url(#filter35726)" transform="matrix(.91483,0,0,1.9015,-39.77557,-375.92678)"/>
<g transform="matrix(.84729,0,0,.80169,-135.7133,-88.68007)">
<path clip-path="url(#clipPath9802)" d="m261.12813,178.47315c0,0-38.57575,19.28787-50.44521,87.53727-5.59275,32.15832 1.61234,80.9041 31.15733,100.89042 50.44521,34.1247 112.75988,56.37994 152.81931,35.60838s119.40751-113.52946 63.79835-194.36242c-34.1247-49.60335-51.92889-54.89625-97.92305-59.3473s-97.92304,29.67365-99.40673,29.67365z" fill="url(#radialGradient23025)" fill-rule="evenodd"/>
<path clip-path="url(#clipPath9802)" d="m275.96496,185.89156c-4.19888,1.67625-13.31139,9.98355-17.80419,13.35315-5.98451,4.48838-10.27432,8.45624-11.86946,14.83682-1.95413,7.8165-3.02246,13.57349-4.45105,19.28788-1.32948,5.3179 7.74424,10.83815 11.86946,11.86946 7.27266,1.81816 16.51583.04883 22.25524,1.48368 8.04852,2.01213 9.20452,8.9021 19.28787,8.9021 9.12496,0 15.30302.23309 20.77156,2.96736 5.6506,2.8253 10.6012,8.26797 14.83682,10.38578 6.95345,3.47672 9.50806,5.7153 16.32051,7.41841 7.52787,1.88197 15.10955,1.18094 22.25524,2.96737 11.56879,2.89219 11.27923-6.54118 13.35314-14.83683 .51797-2.07187 15.42014-10.96909 16.32051-11.86946 4.37232-4.37232 12.07253-2.96736 19.28787-2.96736 10.08016,0 11.27953-3.66447 16.32051-10.38578 3.93513-5.24683 5.93473-14.16214 5.93473-20.77156 0-9.8933-6.16718-12.10191-11.86946-17.80419l-13.35314-13.35314c-5.96333-5.96333-11.60866-9.39125-17.80419-11.86946-9.31047-3.72419-13.35315-5.42613-13.35315,5.93473 0,8.58877 2.96737,9.74352 2.96737,19.28787 0,9.11493-1.00237,13.35314-10.38578,13.35314-7.62498,0-15.57132,3.33462-20.77155,5.93473-6.3538,3.1769-22.70266,1.48369-29.67366,1.48369-9.93114,0-23.47658.4365-31.15733-1.48369-3.30821-.82705-11.34943-15.72407-11.86946-17.80419-1.68233-6.72931-7.41841-2.2757-7.41841-16.32051z" fill="#fff6d5" fill-rule="evenodd" filter="url(#filter6716)" opacity=".63077"/>
<path clip-path="url(#clipPath9802)" d="m467.40624,232.46458c-.87024,17.68602 1.82009,35.74226-1.82691,53.16682-3.99639,10.68252-5.40304,25.84443-18.60032,28.67595-10.82913,8.44109-23.73265,14.56476-32.01188,25.85702-9.60847,10.0264-19.77434,19.99602-32.9517,24.93254-13.66183,1.58602-21.3458,17.86521-35.60547,16.0625-10.10505-7.84411-28.47302-7.56299-41.00978-9.13523-14.09344.82793-12.57361-17.20935-22.00237-23.61387-11.36915-9.5685-26.43575-6.68232-39.45683-10.84718-13.0773-6.66126-18.75788-21.45805-27.17745-32.78148-4.29235-7.29501-9.13177-23.0848-7.7287-6.63687 .43922,26.51008 7.28994,55.36316 27.82383,73.60775 23.4105,17.94201 50.36712,31.14077 78.29842,40.4371 27.95541,8.86184 61.00278,12.01801 86.62719-5.02826 26.02489-17.62373 46.58286-42.90492 60.84907-70.77394 16.26036-31.91968 21.1238-71.00864 4.7729-103.92285z" fill="#800000" fill-rule="evenodd" filter="url(#filter6620)"/>
<path clip-path="url(#clipPath9802)" d="m262.61181,224.46731-1.48368,2.96737c-12.07717,24.15435-14.83682,9.4451-14.83682,38.57575-1.19106,2.38212 10.88034,7.91297 13.35314,8.90209-1.41386,2.82773 35.90689,2.97179 22.25524-31.15734-4.84829-12.12071-8.61634-13.9521-19.28788-19.28787zm32.64102,19.28787c-.39604-.99009 10.15123,19.52242-7.41841,37.09207-1.6677,1.6677 26.99597,5.33773 45.99416,14.83682 34.63479,17.3174 38.38886-27.21737 19.28787-41.54311-5.88884-4.41663-48.32123-10.38578-57.86362-10.38578z" fill="url(#linearGradient23027)" fill-rule="evenodd" filter="url(#filter8819)" opacity=".61538"/>
</g>
<path d="m338.70945,204.58985c-2.00857-.40172-4.41885-8.83772-33.34228-7.63257s-47.80399,12.45314-50.61599,18.07714-4.41885,13.65828-4.41885,13.65828l-2.812,2.00857c0,0 0-10.44457.80343-12.45314s21.29085-24.10285 27.71828-28.11999 27.31656-5.624 33.74399-2.00858 18.88057,4.41886 18.88057,4.41886 2.00857-10.44457-16.872-22.09428-29.32514-18.47885-36.55599-16.06857-17.67543,11.248-16.06857,13.65828 1.60686-7.63257 1.60686-7.63257l15.66685-8.03428c0,0 17.27371-3.21371 29.72685,4.41886s39.76972,22.09428 39.76972,22.09428 6.42743-12.85486 9.64114-17.27371 12.05143-28.52171 18.07714-30.932 12.05143-1.20514 12.05143-1.20514l-2.41029,4.82057 2.00857,2.00857h-4.01714c0,0-1.20514,2.00857-4.82057,11.64971s-7.23086,28.92343-7.23086,31.73543-.40171,5.22228-.40171,5.22228 12.45314-2.812 20.88914-5.22228 20.88914-7.23086 26.11142-6.82915 16.47028-.40171 21.29084,1.60686 10.44457.80343 14.06,7.23086 8.436,21.29085 6.82914,22.89771-3.21371-14.06-10.44457-17.67543-14.86342-7.63257-25.7097-6.02571 3.61543-1.60686-14.86342,4.41886-37.35942,13.25656-37.35942,13.25656 10.44457,13.65829 12.85485,16.47029 14.06,20.08571 15.26514,24.90628 0,18.07714 0,18.07714 1.20514-18.07714-3.21371-21.69257-10.04286-15.26514-18.07714-19.684-16.06857-16.06857-20.48743-14.86342-5.62399,4.82057-9.64114,4.01714-8.83772-2.00857-7.63258-1.20514z" fill="url(#radialGradient22023)" fill-rule="evenodd" filter="url(#filter9858)" opacity=".95" transform="matrix(.84729,0,0,.66322,-133.42375,-54.30622)"/>
<path d="m147.53335,77.66564c-1.70183-.32206-3.74403-7.08514-28.25047-6.11898s-40.5037,9.98361-42.88628,14.49233-3.74403,10.94975-3.74403,10.94975l-2.38257,1.61026c0,0 0-8.37335.68074-9.98361s18.03946-19.32309 23.48534-22.54361 23.14497-4.50872 28.59085-1.61026 15.99726,3.54257 15.99726,3.54257 1.70183-8.37334-14.29543-17.71284-24.84681-14.81437-30.97342-12.88206-14.97616,9.01744-13.61468,10.94975 1.36147-6.11898 1.36147-6.11898l13.27432-6.44103c0,0 14.63578-2.57641 25.18717,3.54257s33.69637,17.71284 33.69637,17.71284 5.44587-10.30565 8.16881-13.84821 10.21102-22.86566 15.31652-24.79798 10.21102-.96615 10.21102-.96615l-.11871,2.22664 1.31714,5.25023-4.94247-2.00199c0,0-1.0211,1.61026-4.0844,9.3395s-6.12662,23.18771-6.12662,25.44208-.34037,4.18666-.34037,4.18666 10.55139-2.25436 17.6991-4.18666 17.6991-5.79693 22.12386-5.47489 13.95506-.32205 18.03947,1.28821 8.84955.6441 11.91286,5.79693 7.14771,17.06873 5.78624,18.35693-2.72294-11.27181-8.84955-14.17027-12.59358-6.11898-21.78351-4.83077 3.06331-1.28821-12.59357,3.54257-31.65416,10.62769-31.65416,10.62769 8.84955,10.94976 10.89175,13.20412 11.91286,16.10258 12.93395,19.96719 0,14.49233 0,14.49233 1.0211-14.49233-2.72293-17.39079-8.50919-12.23796-15.31652-15.78053-13.6147-12.88207-17.35874-11.91591-4.76513,3.86462-8.16882,3.22051-7.48807-1.61026-6.46698-.96615z" fill="url(#radialGradient22034)" fill-rule="evenodd" stroke="#8d7100" stroke-opacity=".61864" stroke-width=".24725"/>
<path d="m152.06123,66.50851z" fill="none" stroke="#000" stroke-width=".82417"/>
<path d="m180.88332,17.6309c0,0 .83023-.22158-2.87631,3.7239s-15.05783,33.97489-18.06939,41.20825l-7.41307,4.38386c1.62161,0 15.52113,2.19192 21.08094.43838s25.94577-10.08287 37.99203-11.17884 21.3126-2.19192 25.48247,1.09597 8.57137,8.54853 8.57137,8.54853m-144.32339-30.46781c0,0 15.28947,6.1374 22.70256,10.52125s22.00757,15.56269 24.55583,18.19301 3.01156,2.84951 3.01156,2.84951 13.43619-1.53436 15.98445,2.63031 16.44776,18.63139 16.44776,18.63139m-31.50558-21.04252c0,0-.92663,1.53435-8.57138,2.41112s-14.13118-1.75355-24.32417-2.41112-19.69098.87677-24.0925,2.8495-20.84929,11.83642-20.84929,14.46674" fill="none" opacity=".73077" stroke="#529330" stroke-width=".32967"/>
<path d="m52.01147-198.41977a36.97201,21.93255 0 1,1 -73.94402,0 36.97201,21.93255 0 1,1 73.94402,0z" fill="#071f05" fill-rule="evenodd" filter="url(#filter19027)" transform="matrix(.38774,0,0,.29777,151.38225,125.80794)"/>
<path d="m150.2285,33.64255-.68074,30.91696c0,0-.68073,3.54257 3.06331,3.86462s8.18587,1.75833 9.8877-.17398 3.02252.16479 1.00405-11.41988c-3.70453-21.2616-3.74404-23.83181-3.74404-23.83181l-9.53028.6441z" fill="url(#radialGradient22028)" fill-rule="evenodd"/>
<path d="m338.83036,153.4264c0,0-.31332,35.09208 0,37.91198s1.87993,3.13322 1.87993,3.13322 1.56662-13.47285 1.25329-23.81248-3.13322-17.54604-3.13322-17.23272z" fill="#e2e3db" fill-rule="evenodd" filter="url(#filter20010)" opacity=".46923" transform="matrix(.84729,0,0,.80169,-135.7133,-88.68007)"/>
<path d="m271.34799-83.37959a5.45733,1.3762 0 1,1 -10.91467,0 5.45733,1.3762 0 1,1 10.91467,0z" fill="#89a02c" fill-rule="evenodd" transform="matrix(.89028,-4.2741879e-2,4.7532656e-2,.80055,-77.79085,111.59333)"/>
</g>
</svg>
