<?xml version="1.0" encoding="UTF-8" standalone="no"?>
<svg
   xmlns:dc="http://purl.org/dc/elements/1.1/"
   xmlns:cc="http://creativecommons.org/ns#"
   xmlns:rdf="http://www.w3.org/1999/02/22-rdf-syntax-ns#"
   xmlns:svg="http://www.w3.org/2000/svg"
   xmlns="http://www.w3.org/2000/svg"
   xmlns:sodipodi="http://sodipodi.sourceforge.net/DTD/sodipodi-0.dtd"
   xmlns:inkscape="http://www.inkscape.org/namespaces/inkscape"
   width="256"
   height="256"
   viewBox="0 0 256 256"
   shape-rendering="geometricPrecision"
   version="1.1"
   id="svg2"
   inkscape:version="0.91 r13725"
   sodipodi:docname="hapnote.svg">
  <metadata
     id="metadata42">
    <rdf:RDF>
      <cc:Work
         rdf:about="">
        <dc:format>image/svg+xml</dc:format>
        <dc:type
           rdf:resource="http://purl.org/dc/dcmitype/StillImage" />
        <dc:title></dc:title>
      </cc:Work>
    </rdf:RDF>
  </metadata>
  <defs
     id="defs40" />
  <sodipodi:namedview
     pagecolor="#ffffff"
     bordercolor="#666666"
     borderopacity="1"
     objecttolerance="10"
     gridtolerance="10"
     guidetolerance="10"
     inkscape:pageopacity="0"
     inkscape:pageshadow="2"
     inkscape:window-width="1366"
     inkscape:window-height="716"
     id="namedview38"
     showgrid="false"
     inkscape:zoom="2.15625"
     inkscape:cx="130.08696"
     inkscape:cy="128"
     inkscape:window-x="0"
     inkscape:window-y="0"
     inkscape:window-maximized="1"
     inkscape:current-layer="svg2" />
  <desc
     id="desc4">Created by https://guilds.gw2w2w.com/</desc>
  <rect
     x="0"
     y="0"
     width="256"
     height="256"
     fill="none"
     stroke="none"
     id="rect6" />
  <g
     transform="matrix(-1,0,0,-1,248,192)"
     id="g8">
    <g
       id="g10"
       style="opacity:0.7;fill:#001f34;stroke:#001f34;stroke-width:0.05%;stroke-opacity:1">
      <path
         d="m 192.7,52.58 c 5.02,-5.62 12.93,-5.88 19.87,-6.94 -3.16,1.5 -6.47,2.62 -9.76,3.79 -4.01,1.38 -7.26,4.18 -10.68,6.58 -4.39,3.09 -8.77,6.2 -12.93,9.59 5.1,0.66 9.62,-1.86 14.15,-3.73 -2.63,2.15 -5.6,3.83 -8.67,5.26 -0.19,0.37 -0.57,1.1 -0.76,1.47 1.16,0.4 2.33,0.79 3.51,1.19 -0.58,3.12 -0.77,6.45 -2.52,9.2 -1.92,3.11 -4.05,6.11 -5.7,9.38 -2.98,2.25 -5.93,4.55 -8.72,7.03 3.52,-1.54 6.99,-3.18 10.47,-4.83 1.64,0.62 3.29,1.25 4.94,1.88 -0.59,3.44 -1.23,6.87 -1.85,10.31 2.39,-1.46 4.83,-2.82 7.32,-4.1 -3.42,5.95 -9.16,9.8 -14.78,13.45 9.39,-4.43 19.17,-7.9 28.58,-12.29 -8.93,5.35 -18.18,10.35 -26.13,17.13 5.37,-0.54 9.6,-4.08 14.23,-6.47 4.39,-2.34 8.6,-4.99 12.93,-7.45 -7.43,5.33 -15.7,9.29 -23.53,13.97 -0.03,0.86 -0.09,2.58 -0.13,3.44 2.68,-1.23 5.36,-2.46 7.94,-3.89 7.19,-4.19 15.22,-6.59 22.65,-10.28 4.74,-2.38 9.77,-4.1 14.96,-5.16 -0.27,3.1 -1.51,5.94 -3.7,8.16 1.3,0.53 2.59,1.07 3.89,1.62 -1.27,1.23 -2.53,2.47 -3.79,3.71 0.04,1.34 0.08,2.68 0.12,4.03 -4.36,2.27 -8.83,4.35 -13.06,6.86 -4.45,2.61 -8.06,6.34 -11.68,9.95 -0.59,0.2 -1.17,0.41 -1.75,0.62 -2.36,4.06 -6.79,5.57 -10.98,6.96 -0.77,1.34 -1.14,3.19 -2.77,3.78 -4.57,2.02 -8.99,4.36 -13.38,6.73 0.53,0.88 1.08,1.75 1.62,2.63 -4.54,1.57 -8.54,4.23 -12.39,7.04 -6.64,4.23 -12.57,9.44 -18.75,14.29 -0.46,-0.48 -0.93,-0.96 -1.39,-1.43 -5.21,4.68 -9.99,10.31 -16.48,13.22 2.27,-4.15 5.77,-7.36 9,-10.74 -10.33,6.87 -18.61,16.25 -28.48,23.68 -1.95,1.54 -2.71,-1.35 -3.33,-2.63 2.55,-2.75 5.05,-5.54 7.64,-8.25 0.02,-0.95 0.03,-1.89 0.04,-2.83 5.54,-3.29 8.15,-9.29 11.14,-14.68 -1.02,0.68 -2.03,1.37 -3.05,2.05 -0.41,-0.47 -1.23,-1.42 -1.64,-1.9 -1.69,1.67 -3.42,3.28 -5.19,4.85 0.82,0.62 1.63,1.24 2.45,1.87 -2.9,2.41 -5.81,4.81 -8.53,7.42 -0.04,1.07 -0.09,2.15 -0.13,3.23 -0.74,0.73 -1.48,1.46 -2.22,2.2 0.18,-1.6 0.35,-3.2 0.54,-4.8 -1.55,1.63 -3.12,3.25 -4.73,4.81 0.39,-1.91 0.18,-4.2 1.8,-5.61 4.85,-5.19 10.74,-9.52 14.35,-15.78 -3.79,2.25 -7.03,5.26 -10.01,8.49 0.16,-1.57 0.33,-3.13 0.5,-4.69 -3.53,3.9 -7.18,7.73 -11.61,10.62 3.67,-5.38 7.19,-11.02 12.32,-15.16 -0.01,-0.98 -0.02,-1.95 -0.03,-2.92 3.55,-3.4 7.14,-6.77 10.24,-10.6 -6.58,4.93 -12.27,10.89 -18.28,16.47 -1.71,1.59 -3.75,2.74 -5.78,3.86 1.56,-1.99 3.23,-3.89 4.98,-5.71 -0.61,-0.64 -1.21,-1.28 -1.81,-1.91 1.48,-0.03 2.96,-0.07 4.44,-0.09 10.06,-10.32 20.94,-19.8 32.28,-28.7 -2.36,1.06 -4.7,2.13 -7.04,3.21 6.74,-7.57 15.88,-12.33 23.1,-19.36 -9.26,5.08 -16.99,12.43 -25.99,17.91 -4.79,2.61 -7.06,8.76 -12.9,9.52 2.17,-2.78 4.55,-5.39 6.9,-8.02 -7.92,6.67 -16.52,12.56 -23.8,19.96 -3.29,1.32 -5.64,4.01 -7.56,6.9 -1.19,-0.47 -2.38,-0.94 -3.57,-1.42 -0.02,0.94 -0.04,1.88 -0.05,2.82 -1.67,1.17 -3.33,2.35 -4.99,3.52 0.02,0.87 0.03,1.75 0.03,2.63 -1.23,0.05 -2.47,0.09 -3.71,0.14 -3.2,6.31 -7.22,12.24 -12.36,17.14 1.05,-2.15 2.13,-4.29 3.23,-6.42 -2.29,1.81 -4.6,3.6 -6.95,5.33 3.64,-4.67 7.82,-8.88 11.4,-13.59 0.32,-2.42 0.88,-4.8 1.59,-7.14 -3.5,3.82 -7.3,7.35 -10.87,11.1 -1.01,-0.47 -2.01,-0.94 -3.01,-1.4 -2.78,3.64 -6.32,6.55 -9.83,9.44 -8.36,7.73 -15.68,16.49 -23.29,24.94 3.39,-4.49 6.77,-8.99 9.45,-13.94 2.42,-4.71 7.32,-7.27 10.31,-11.52 2.31,-3.13 4.39,-6.44 6.21,-9.88 -0.99,-0.33 -2.7,0.37 -2.94,-1.07 1.14,-1.52 3.03,-1.94 4.85,-1.78 2.08,-1.37 4.24,-2.76 5.72,-4.79 1.33,-2.21 1.74,-4.82 2.45,-7.26 -4.88,1.96 -9.68,4.14 -14.1,6.99 1.64,-2.51 3.07,-5.14 4.59,-7.72 1.14,-1.81 2.05,-3.76 2.73,-5.79 -3.95,2.81 -7.24,6.73 -12.05,8.12 3.81,-5.15 7.13,-11.23 13.4,-13.72 -0.5,-0.68 -1,-1.35 -1.5,-2.02 3.26,-3.96 6.83,-7.64 10.48,-11.24 4.16,-4.02 7.13,-9.05 11.12,-13.22 -0.77,0.15 -2.3,0.45 -3.07,0.6 4.8,-5.95 10.92,-10.61 16,-16.29 6.08,-6.88 12.97,-12.96 19.12,-19.76 2.79,-2.87 6.1,-5.27 8.33,-8.64 1.05,-0.9 2.1,-1.8 3.16,-2.68 -1.27,0.03 -3.82,0.1 -5.09,0.13 3.09,-1.93 6.25,-3.75 9.35,-5.65 -6.29,2.28 -11.62,6.48 -17.79,9.02 2.06,-1.93 4.21,-3.74 6.34,-5.58 -1.83,-0.05 -3.66,-0.1 -5.49,-0.17 3.62,-3.5 8.73,-3.86 13.21,-5.6 -2.82,0.38 -5.6,0.97 -8.38,1.5 3.49,-2.68 7.2,-5.04 10.99,-7.27 -7.72,3.88 -15.72,7.23 -23.15,11.65 0.16,-0.94 0.33,-1.89 0.5,-2.84 0.63,-0.01 1.9,-0.04 2.53,-0.05 4.27,-4.84 10.46,-7.1 15.3,-11.22 -0.58,-0.53 -1.73,-1.57 -2.3,-2.09 5.87,-2.58 11.18,-6.2 16.65,-9.51 3.13,-1.91 6.06,-4.31 9.64,-5.33 3.24,-0.93 6.6,-1.23 9.92,-1.72 0.81,0.61 1.61,1.22 2.42,1.84 1.57,-0.1 3.14,-0.2 4.71,-0.31 -3.2,1.39 -5.92,3.57 -8.79,5.5 -2.54,1.22 -5.48,1.07 -8.22,1.39 -0.08,1.61 -0.13,3.23 -0.2,4.85 6.23,-1.75 12.06,-4.91 18.56,-5.63 -6.67,6.22 -15.75,8.63 -23.22,13.67 10.6,-3.48 19.93,-10.13 30.79,-12.95 0.17,-0.47 0.49,-1.41 0.65,-1.88 -2.16,0.19 -4.32,0.36 -6.48,0.5 5.88,-3.1 12.59,-4.15 18.37,-7.46 2.91,-1.77 6.36,-1.71 9.64,-1.8 -3.48,1.77 -7.27,3.23 -9.84,6.34 1.17,-0.3 3.52,-0.91 4.69,-1.21 -3.01,2.47 -5.8,5.2 -8.12,8.33 6.73,-1.37 13.32,-3.44 20.12,-4.51 0.07,-0.7 0.22,-2.09 0.3,-2.79 m -39.07,97.55 c -4.16,2.17 -8.7,3.83 -12.26,6.98 -2.7,2.75 -4.99,5.87 -7.82,8.5 3.06,-2.13 6.34,-3.92 9.67,-5.61 5.09,-2.37 8.07,-7.84 13.77,-9.16 2.98,-3.09 6.41,-5.68 10.15,-7.77 -4.58,2.21 -8.91,4.88 -13.51,7.06 z"
         id="path12"
         inkscape:connector-curvature="0" />
      <path
         d="m 187.57,149.5 c 4.82,-4.24 9.94,-8.33 15.95,-10.75 -5.04,3.98 -10.53,7.32 -15.95,10.75 z"
         id="path14"
         inkscape:connector-curvature="0" />
    </g>
  </g>
  <path
     style="fill:#3f3f3f"
     d="M 113.97867,214.99789 C 80.563137,189.89464 72.304158,183.27408 73.536282,182.57813 c 0.356789,-0.20014 35.615058,-9.4675 37.146918,-9.76229 0.59715,-0.11437 20.01036,8.72182 43.14045,19.63753 41.34406,19.51087 42.05482,19.88286 42.05905,21.99812 0.004,1.65123 -0.77551,2.67026 -3.34892,4.38065 -5.37113,3.57058 -39.62205,24.89108 -39.98669,24.89108 -0.18238,0 -17.53816,-12.92635 -38.56842,-28.72533 z m 54.18838,-33.11855 c -25.61428,-9.90326 -26.40278,-10.26724 -27.21115,-12.55978 -0.51387,-1.45735 -0.51387,-2.5736 0,-2.91613 0.99076,-0.66077 33.17579,-9.33999 34.67121,-9.34971 0.56911,0 12.80457,3.01564 27.18988,6.70949 l 26.15511,6.71635 0,2.54329 0,2.54329 -16.15183,7.98414 c -8.88351,4.39121 -16.62945,8.1065 -17.2132,8.25605 -0.58374,0.14867 -12.93176,-4.31774 -27.44002,-9.92699 z m 12.96579,-43.58022 c -26.5575,-4.41723 -48.78935,-8.27206 -49.4041,-8.56656 -0.61476,-0.29422 -1.11775,-1.38702 -1.11775,-2.42835 0,-2.24565 -0.33314,-2.17559 17.43674,-3.66183 l 12.51869,-1.04676 49.18055,5.18237 49.18056,5.18208 -0.27846,2.62306 c -0.15316,1.44277 -0.75674,2.94702 -1.34129,3.34274 -1.81234,1.22689 -23.67953,7.55411 -25.84239,7.47719 -1.1254,-0.0401 -23.77505,-3.6867 -50.33255,-8.10394 z"
     id="path3435"
     inkscape:connector-curvature="0"
     inkscape:export-filename="C:\Users\User\path3435.png"
     inkscape:export-xdpi="90"
     inkscape:export-ydpi="90" />
  <path
     inkscape:connector-curvature="0"
     style="fill:#000000"
     d="m 34.481526,208.431 c -2.742863,-0.0412 -4.083858,-2.71166 -3.847524,-5.1607 -0.515969,-2.29978 -0.363783,-4.6838 -0.462943,-7.03311 0.210413,-2.36335 2.222781,-4.2054 1.590833,-6.77316 -0.317421,-3.80289 -0.49716,-7.64934 -0.05916,-11.44905 0.429551,-2.54742 1.375123,-4.94934 2.61288,-7.20555 0.02999,-2.04704 -0.398324,-4.04443 -1.250963,-5.91158 -1.489603,-3.85281 -2.843891,-7.75765 -4.687526,-11.46035 -0.823043,-2.08866 -0.457699,-4.94008 -3.482995,-4.99803 -1.737766,-0.19166 -3.595027,-0.30066 -3.115695,-2.66188 -0.120846,-3.22512 0.403621,-6.43511 0.272094,-9.66772 0.465056,-2.87534 -2.303325,-4.65024 -3.820269,-6.69378 -1.603715,-2.2344 -3.360808,-4.39059 -4.633492,-6.84451 -0.444642,-3.04475 1.431394,-5.7429 2.492569,-8.46399 1.241247,-3.13809 3.033329,-6.01997 4.38916,-9.09784 1.09918,-1.81806 2.533056,-4.1451 4.949456,-4.08556 2.312909,-0.0463 4.786905,0.0555 6.670536,-1.51677 1.762907,-1.5825 2.34503,-3.91554 3.303116,-5.96788 1.250656,-2.90124 3.633533,-5.58268 6.920181,-6.0262 2.485475,-0.39733 5.190412,0.53175 7.038905,2.20738 0.398131,2.34475 2.013622,3.93077 2.611179,6.19574 0.254872,2.19909 -0.233616,4.64818 2.55318,5.33084 2.527645,1.71936 5.136027,3.35014 7.500375,5.29062 1.482904,1.90547 -0.574871,4.70434 -2.79154,4.8325 -2.911649,1.35805 -6.042314,2.22626 -9.250619,2.51368 -2.84775,-0.43774 -1.90323,3.23472 -0.176074,4.07369 2.407299,2.16131 -2.33741,-1.29078 -2.368013,-1.26245 -0.02669,1.32751 -0.386048,2.51071 -0.82692,0.54182 -1.139017,-2.26305 0.40413,3.21644 -0.555184,1.97912 -0.181607,-1.13279 -1.407753,-3.563 -1.356866,-1.00293 0.132456,0.81984 1.45194,3.46946 -0.06838,1.59815 -0.714465,-1.60038 -0.365721,-3.45887 -0.519793,-5.18331 -2.69637,-0.2829 -1.213571,2.31501 -0.807548,3.72873 0.609824,2.5534 -2.56672,4.03989 -2.316391,6.32965 1.32208,1.67883 3.224669,3.01342 4.376463,5.01887 2.493867,3.40341 3.063204,7.65386 4.151133,11.61252 -0.151897,1.52138 3.363772,3.05892 0.389713,3.09409 -1.708513,1.13129 -1.109965,4.07702 -2.19814,5.89843 -0.787336,3.97719 -1.97018,7.86549 -3.197704,11.72494 -0.823236,2.77873 -1.866846,5.58082 -1.760145,8.5372 -0.0371,4.15457 -0.622469,8.28448 -1.697876,12.29354 -0.593163,2.60225 -1.563911,5.14315 -1.521618,7.87199 -0.224224,2.50538 0.246558,5.00396 1.196323,7.31459 0.75318,2.05507 -0.42571,4.97577 -3.029541,4.15054 -2.504082,-0.58133 -1.120672,2.80647 0.297279,3.39726 1.483921,1.71097 0.117207,3.50204 -1.973943,2.96428 -0.512663,-1.7e-4 -1.027212,0.0102 -1.538516,-0.0338 z m -12.44257,-82.79709 c 0.01608,-2.25639 1.063569,-4.31605 0.535401,-6.56118 -0.212806,-1.02001 0.500615,-4.27614 -0.5555,-3.94978 -0.686825,2.33459 -2.988343,4.14287 -2.897987,6.67522 0.869493,1.68751 2.207558,3.10609 2.780272,4.97208 0.183992,-0.35204 0.09371,-0.76099 0.137814,-1.13634 z m 25.812983,-10.75664 c 0.09483,-1.42495 -2.103961,-0.75241 -0.63493,0.24649 0.405523,0.61604 0.864161,0.51527 0.63493,-0.24649 z m 6.108388,-7.65969 c -1.145971,-1.6074 -2.722914,-2.82829 -4.133218,-4.17955 -1.224989,-0.17735 -1.299096,2.53149 -2.201315,3.46227 0.125757,1.74855 3.641601,0.43953 5.076915,0.79918 0.41851,-0.0252 0.843878,-0.003 1.257618,-0.0819 z m -2.111186,-8.30325 c 0.460566,-2.09694 -1.820038,1.28958 -0.117347,0.41484 l 0.117338,-0.41484 9e-6,0 z m -0.524967,-0.86768 c 0.902613,-1.14171 -1.237581,-4.48687 -0.761432,-1.61613 0.12837,0.36731 -0.06361,3.0064 0.761432,1.61613 z"
     id="path1345" />
</svg>
